M48
; DRILL file {KiCad 5.1.10-88a1d61d58~88~ubuntu20.04.1} date Sun May  2 13:02:10 2021
; FORMAT={-:-/ absolute / inch / decimal}
; #@! TF.CreationDate,2021-05-02T13:02:10-03:00
; #@! TF.GenerationSoftware,Kicad,Pcbnew,5.1.10-88a1d61d58~88~ubuntu20.04.1
; #@! TF.FileFunction,Plated,1,2,PTH
FMAT,2
INCH
T1C0.0157
T2C0.0236
T3C0.0300
T4C0.0315
T5C0.0394
%
G90
G05
T1
X5.885Y-3.205
X5.885Y-4.4475
X6.2375Y-3.205
X6.2625Y-4.4475
X7.145Y-3.18
X7.145Y-4.445
X7.545Y-4.4475
X7.5475Y-3.18
T2
X5.189Y-2.8346
X5.189Y-4.0945
X5.2677Y-2.8346
X5.2677Y-4.0945
X6.4488Y-2.8346
X6.4488Y-4.0945
X6.5276Y-2.8346
X6.5276Y-4.0945
X7.7087Y-2.8346
X7.7087Y-4.0945
X7.7874Y-2.8346
X7.7874Y-4.0945
T3
X4.3744Y-2.6772
X4.3744Y-3.622
X4.3744Y-3.937
X4.3744Y-4.8819
X4.4744Y-2.6772
X4.4744Y-3.622
X4.4744Y-3.937
X4.4744Y-4.8819
X4.5744Y-2.6772
X4.5744Y-3.622
X4.5744Y-3.937
X4.5744Y-4.8819
X4.6744Y-2.6772
X4.6744Y-3.622
X4.6744Y-3.937
X4.6744Y-4.8819
X4.7744Y-2.6772
X4.7744Y-3.622
X4.7744Y-3.937
X4.7744Y-4.8819
X4.8744Y-2.6772
X4.8744Y-3.622
X4.8744Y-3.937
X4.8744Y-4.8819
X4.9744Y-2.6772
X4.9744Y-3.622
X4.9744Y-3.937
X4.9744Y-4.8819
X5.0744Y-2.6772
X5.0744Y-3.622
X5.0744Y-3.937
X5.0744Y-4.8819
X5.6343Y-2.6772
X5.6343Y-3.622
X5.6343Y-3.937
X5.6343Y-4.8819
X5.7343Y-2.6772
X5.7343Y-3.622
X5.7343Y-3.937
X5.7343Y-4.8819
X5.8343Y-2.6772
X5.8343Y-3.622
X5.8343Y-3.937
X5.8343Y-4.8819
X5.9343Y-2.6772
X5.9343Y-3.622
X5.9343Y-3.937
X5.9343Y-4.8819
X6.0343Y-2.6772
X6.0343Y-3.622
X6.0343Y-3.937
X6.0343Y-4.8819
X6.1343Y-2.6772
X6.1343Y-3.622
X6.1343Y-3.937
X6.1343Y-4.8819
X6.2343Y-2.6772
X6.2343Y-3.622
X6.2343Y-3.937
X6.2343Y-4.8819
X6.3343Y-2.6772
X6.3343Y-3.622
X6.3343Y-3.937
X6.3343Y-4.8819
X6.8941Y-2.6772
X6.8941Y-3.622
X6.8941Y-3.937
X6.8941Y-4.8819
X6.9941Y-2.6772
X6.9941Y-3.622
X6.9941Y-3.937
X6.9941Y-4.8819
X7.0941Y-2.6772
X7.0941Y-3.622
X7.0941Y-3.937
X7.0941Y-4.8819
X7.1941Y-2.6772
X7.1941Y-3.622
X7.1941Y-3.937
X7.1941Y-4.8819
X7.2941Y-2.6772
X7.2941Y-3.622
X7.2941Y-3.937
X7.2941Y-4.8819
X7.3941Y-2.6772
X7.3941Y-3.622
X7.3941Y-3.937
X7.3941Y-4.8819
X7.4941Y-2.6772
X7.4941Y-3.622
X7.4941Y-3.937
X7.4941Y-4.8819
X7.5941Y-2.6772
X7.5941Y-3.622
X7.5941Y-3.937
X7.5941Y-4.8819
T4
X4.1756Y-3.0465
X4.1756Y-3.3465
X4.1756Y-4.3063
X4.1756Y-4.6063
X4.275Y-2.8346
X4.275Y-4.0945
X4.2756Y-3.0465
X4.2756Y-3.3465
X4.2756Y-4.3063
X4.2756Y-4.6063
X4.3756Y-3.0465
X4.3756Y-3.3465
X4.3756Y-4.3063
X4.3756Y-4.6063
X4.4756Y-3.0465
X4.4756Y-3.3465
X4.4756Y-4.3063
X4.4756Y-4.6063
X4.5756Y-3.0465
X4.5756Y-3.3465
X4.5756Y-4.3063
X4.5756Y-4.6063
X4.675Y-2.8346
X4.675Y-4.0945
X4.6756Y-3.0465
X4.6756Y-3.3465
X4.6756Y-4.3063
X4.6756Y-4.6063
X4.7756Y-3.0465
X4.7756Y-3.3465
X4.7756Y-4.3063
X4.7756Y-4.6063
X4.8228Y-2.8346
X4.8228Y-4.0945
X4.8756Y-3.0465
X4.8756Y-3.3465
X4.8756Y-4.3063
X4.8756Y-4.6063
X4.9756Y-3.0465
X4.9756Y-3.3465
X4.9756Y-4.3063
X4.9756Y-4.6063
X5.0197Y-2.8346
X5.0197Y-4.0945
X5.0756Y-3.0465
X5.0756Y-3.3465
X5.0756Y-4.3063
X5.0756Y-4.6063
X5.1756Y-3.0465
X5.1756Y-3.3465
X5.1756Y-4.3063
X5.1756Y-4.6063
X5.2756Y-3.0465
X5.2756Y-3.3465
X5.2756Y-4.3063
X5.2756Y-4.6063
X5.4354Y-3.0465
X5.4354Y-3.3465
X5.4354Y-4.3063
X5.4354Y-4.6063
X5.5348Y-2.8346
X5.5348Y-4.0945
X5.5354Y-3.0465
X5.5354Y-3.3465
X5.5354Y-4.3063
X5.5354Y-4.6063
X5.6354Y-3.0465
X5.6354Y-3.3465
X5.6354Y-4.3063
X5.6354Y-4.6063
X5.7354Y-3.0465
X5.7354Y-3.3465
X5.7354Y-4.3063
X5.7354Y-4.6063
X5.8354Y-3.0465
X5.8354Y-3.3465
X5.8354Y-4.3063
X5.8354Y-4.6063
X5.9348Y-2.8346
X5.9348Y-4.0945
X5.9354Y-3.0465
X5.9354Y-3.3465
X5.9354Y-4.3063
X5.9354Y-4.6063
X6.0354Y-3.0465
X6.0354Y-3.3465
X6.0354Y-4.3063
X6.0354Y-4.6063
X6.0827Y-2.8346
X6.0827Y-4.0945
X6.1354Y-3.0465
X6.1354Y-3.3465
X6.1354Y-4.3063
X6.1354Y-4.6063
X6.2354Y-3.0465
X6.2354Y-3.3465
X6.2354Y-4.3063
X6.2354Y-4.6063
X6.2795Y-2.8346
X6.2795Y-4.0945
X6.3354Y-3.0465
X6.3354Y-3.3465
X6.3354Y-4.3063
X6.3354Y-4.6063
X6.4354Y-3.0465
X6.4354Y-3.3465
X6.4354Y-4.3063
X6.4354Y-4.6063
X6.5354Y-3.0465
X6.5354Y-3.3465
X6.5354Y-4.3063
X6.5354Y-4.6063
X6.6953Y-3.0465
X6.6953Y-3.3465
X6.6953Y-4.3063
X6.6953Y-4.6063
X6.7947Y-2.8346
X6.7947Y-4.0945
X6.7953Y-3.0465
X6.7953Y-3.3465
X6.7953Y-4.3063
X6.7953Y-4.6063
X6.8953Y-3.0465
X6.8953Y-3.3465
X6.8953Y-4.3063
X6.8953Y-4.6063
X6.9953Y-3.0465
X6.9953Y-3.3465
X6.9953Y-4.3063
X6.9953Y-4.6063
X7.0953Y-3.0465
X7.0953Y-3.3465
X7.0953Y-4.3063
X7.0953Y-4.6063
X7.1947Y-2.8346
X7.1947Y-4.0945
X7.1953Y-3.0465
X7.1953Y-3.3465
X7.1953Y-4.3063
X7.1953Y-4.6063
X7.2953Y-3.0465
X7.2953Y-3.3465
X7.2953Y-4.3063
X7.2953Y-4.6063
X7.3425Y-2.8346
X7.3425Y-4.0945
X7.3953Y-3.0465
X7.3953Y-3.3465
X7.3953Y-4.3063
X7.3953Y-4.6063
X7.4953Y-3.0465
X7.4953Y-3.3465
X7.4953Y-4.3063
X7.4953Y-4.6063
X7.5394Y-2.8346
X7.5394Y-4.0945
X7.5953Y-3.0465
X7.5953Y-3.3465
X7.5953Y-4.3063
X7.5953Y-4.6063
X7.6953Y-3.0465
X7.6953Y-3.3465
X7.6953Y-4.3063
X7.6953Y-4.6063
X7.7953Y-3.0465
X7.7953Y-3.3465
X7.7953Y-4.3063
X7.7953Y-4.6063
T5
X4.1675Y-3.58
X4.1675Y-3.68
X4.1675Y-3.78
X4.1675Y-3.88
X4.1675Y-3.98
T0
M30
