%TF.GenerationSoftware,KiCad,Pcbnew,5.1.10-88a1d61d58~88~ubuntu20.04.1*%
%TF.CreationDate,2021-05-02T13:02:05-03:00*%
%TF.ProjectId,D3_Face,44335f46-6163-4652-9e6b-696361645f70,v01*%
%TF.SameCoordinates,Original*%
%TF.FileFunction,Legend,Bot*%
%TF.FilePolarity,Positive*%
%FSLAX46Y46*%
G04 Gerber Fmt 4.6, Leading zero omitted, Abs format (unit mm)*
G04 Created by KiCad (PCBNEW 5.1.10-88a1d61d58~88~ubuntu20.04.1) date 2021-05-02 13:02:05*
%MOMM*%
%LPD*%
G01*
G04 APERTURE LIST*
%ADD10C,0.010000*%
%ADD11C,0.120000*%
%ADD12C,0.150000*%
G04 APERTURE END LIST*
D10*
%TO.C,G\u002A\u002A\u002A*%
G36*
X135946276Y-89585623D02*
G01*
X135885252Y-89600695D01*
X135883576Y-89601329D01*
X135840538Y-89620166D01*
X135792356Y-89646030D01*
X135737725Y-89679851D01*
X135675341Y-89722558D01*
X135603902Y-89775082D01*
X135522102Y-89838352D01*
X135428638Y-89913299D01*
X135322205Y-90000852D01*
X135315288Y-90006601D01*
X134999474Y-90278230D01*
X134700595Y-90553675D01*
X134419231Y-90832342D01*
X134155964Y-91113638D01*
X133911375Y-91396969D01*
X133721824Y-91634744D01*
X133645620Y-91735914D01*
X133583151Y-91822873D01*
X133534416Y-91895620D01*
X133499415Y-91954157D01*
X133478147Y-91998486D01*
X133476129Y-92003944D01*
X133460446Y-92070227D01*
X133455536Y-92144219D01*
X133461602Y-92214185D01*
X133473746Y-92251148D01*
X133499655Y-92301354D01*
X133539393Y-92364894D01*
X133593025Y-92441860D01*
X133660616Y-92532344D01*
X133742228Y-92636438D01*
X133837927Y-92754234D01*
X133842779Y-92760118D01*
X133883205Y-92809328D01*
X133919652Y-92854121D01*
X133950120Y-92892005D01*
X133972609Y-92920485D01*
X133985117Y-92937069D01*
X133986701Y-92939485D01*
X133997874Y-92953981D01*
X134021482Y-92980839D01*
X134055972Y-93018459D01*
X134099787Y-93065240D01*
X134151374Y-93119581D01*
X134209178Y-93179880D01*
X134271642Y-93244539D01*
X134337213Y-93311954D01*
X134404335Y-93380526D01*
X134471454Y-93448654D01*
X134537015Y-93514737D01*
X134599462Y-93577175D01*
X134657241Y-93634366D01*
X134708797Y-93684709D01*
X134735748Y-93710630D01*
X134878873Y-93845650D01*
X135011863Y-93967561D01*
X135137184Y-94078485D01*
X135257298Y-94180544D01*
X135374671Y-94275861D01*
X135491765Y-94366558D01*
X135533740Y-94398052D01*
X135577840Y-94431081D01*
X135624781Y-94466574D01*
X135666801Y-94498652D01*
X135680969Y-94509579D01*
X135721767Y-94538428D01*
X135771079Y-94569339D01*
X135819345Y-94596375D01*
X135827099Y-94600329D01*
X135869666Y-94620690D01*
X135902867Y-94633286D01*
X135934467Y-94640212D01*
X135972229Y-94643565D01*
X135990173Y-94644352D01*
X136048879Y-94643893D01*
X136093254Y-94637870D01*
X136106878Y-94633729D01*
X136139328Y-94620303D01*
X136170039Y-94605076D01*
X136202656Y-94585783D01*
X136240826Y-94560154D01*
X136288194Y-94525921D01*
X136328197Y-94496062D01*
X136534717Y-94336914D01*
X136733785Y-94175538D01*
X136738067Y-94171880D01*
X136489916Y-94171880D01*
X136484218Y-94181265D01*
X136469457Y-94174297D01*
X136444477Y-94151084D01*
X136443486Y-94150063D01*
X136433979Y-94139672D01*
X136426014Y-94128595D01*
X136419298Y-94114869D01*
X136413539Y-94096528D01*
X136408445Y-94071607D01*
X136403724Y-94038142D01*
X136399084Y-93994168D01*
X136394232Y-93937720D01*
X136388877Y-93866834D01*
X136382726Y-93779543D01*
X136377864Y-93708704D01*
X136372757Y-93634778D01*
X136366606Y-93547039D01*
X136359830Y-93451386D01*
X136352847Y-93353719D01*
X136346077Y-93259936D01*
X136342048Y-93204658D01*
X136336509Y-93126341D01*
X136331420Y-93049353D01*
X136327000Y-92977384D01*
X136323465Y-92914127D01*
X136321034Y-92863275D01*
X136319932Y-92829094D01*
X136318569Y-92743296D01*
X135970760Y-92743296D01*
X135964230Y-93188090D01*
X135962824Y-93288040D01*
X135961521Y-93388602D01*
X135960356Y-93486613D01*
X135959361Y-93578911D01*
X135958570Y-93662335D01*
X135958015Y-93733722D01*
X135957731Y-93789911D01*
X135957700Y-93809160D01*
X135957700Y-93985436D01*
X135871222Y-93986188D01*
X135819241Y-93988239D01*
X135763162Y-93992937D01*
X135714382Y-93999306D01*
X135710619Y-93999949D01*
X135668289Y-94006605D01*
X135628012Y-94011650D01*
X135598374Y-94014008D01*
X135597940Y-94014021D01*
X135559385Y-94015086D01*
X135565737Y-93889074D01*
X135569221Y-93827907D01*
X135573663Y-93761343D01*
X135578420Y-93698521D01*
X135581818Y-93659288D01*
X135587264Y-93599239D01*
X135593953Y-93522193D01*
X135601661Y-93430868D01*
X135610162Y-93327980D01*
X135619233Y-93216244D01*
X135628649Y-93098376D01*
X135636621Y-92997109D01*
X135643189Y-92914112D01*
X135648634Y-92848790D01*
X135653265Y-92799104D01*
X135657395Y-92763015D01*
X135661333Y-92738482D01*
X135665390Y-92723468D01*
X135669877Y-92715932D01*
X135675106Y-92713835D01*
X135679673Y-92714597D01*
X135695049Y-92717135D01*
X135726022Y-92720841D01*
X135768489Y-92725267D01*
X135818347Y-92729968D01*
X135833277Y-92731291D01*
X135970760Y-92743296D01*
X136318569Y-92743296D01*
X136318440Y-92735203D01*
X136344614Y-92732172D01*
X136360516Y-92731940D01*
X136369200Y-92739212D01*
X136374080Y-92758766D01*
X136376400Y-92776647D01*
X136379791Y-92809792D01*
X136383628Y-92854000D01*
X136387166Y-92900606D01*
X136387686Y-92908160D01*
X136391121Y-92955891D01*
X136395610Y-93013983D01*
X136400422Y-93073112D01*
X136402785Y-93100883D01*
X136406702Y-93147115D01*
X136411674Y-93207350D01*
X136417236Y-93275886D01*
X136422924Y-93347016D01*
X136427284Y-93402323D01*
X136432755Y-93471398D01*
X136438504Y-93542472D01*
X136444061Y-93609841D01*
X136448955Y-93667800D01*
X136452098Y-93703763D01*
X136456506Y-93755872D01*
X136461543Y-93819999D01*
X136466621Y-93888433D01*
X136471154Y-93953464D01*
X136471637Y-93960728D01*
X136475553Y-94016128D01*
X136479644Y-94067469D01*
X136483506Y-94110109D01*
X136486738Y-94139408D01*
X136487710Y-94146039D01*
X136489916Y-94171880D01*
X136738067Y-94171880D01*
X136928827Y-94008931D01*
X137123265Y-93834091D01*
X137320523Y-93648018D01*
X137524025Y-93447709D01*
X137524198Y-93447535D01*
X137611325Y-93359182D01*
X137699962Y-93267531D01*
X137788181Y-93174687D01*
X137874055Y-93082753D01*
X137955654Y-92993833D01*
X138031050Y-92910031D01*
X138098315Y-92833451D01*
X138155521Y-92766196D01*
X138200740Y-92710371D01*
X138205444Y-92704313D01*
X138232153Y-92670217D01*
X138266776Y-92626724D01*
X138304639Y-92579678D01*
X138337681Y-92539052D01*
X138402401Y-92457005D01*
X138457842Y-92380634D01*
X138502539Y-92312124D01*
X138535029Y-92253660D01*
X138547310Y-92226214D01*
X138563143Y-92163424D01*
X138565576Y-92102817D01*
X137620560Y-92102817D01*
X137616093Y-92152919D01*
X137601194Y-92197630D01*
X137573614Y-92241285D01*
X137531106Y-92288219D01*
X137517736Y-92301111D01*
X137450198Y-92355864D01*
X137366790Y-92407219D01*
X137266562Y-92455637D01*
X137148560Y-92501576D01*
X137011832Y-92545493D01*
X137007456Y-92546777D01*
X136764915Y-92608056D01*
X136520527Y-92650688D01*
X136276753Y-92674247D01*
X136269023Y-92674680D01*
X136213208Y-92676490D01*
X136142620Y-92676893D01*
X136061896Y-92676032D01*
X135975674Y-92674049D01*
X135888592Y-92671090D01*
X135805288Y-92667297D01*
X135730399Y-92662814D01*
X135668564Y-92657784D01*
X135646377Y-92655398D01*
X135484790Y-92633057D01*
X135331339Y-92605106D01*
X135176828Y-92569719D01*
X135062661Y-92539418D01*
X135014819Y-92523542D01*
X134956671Y-92500440D01*
X134894653Y-92473028D01*
X134835199Y-92444220D01*
X134784746Y-92416931D01*
X134763883Y-92404098D01*
X134693021Y-92349755D01*
X134638539Y-92291183D01*
X134601036Y-92229785D01*
X134581115Y-92166961D01*
X134579376Y-92104115D01*
X134596421Y-92042647D01*
X134603001Y-92028967D01*
X134634599Y-91982421D01*
X134681026Y-91933060D01*
X134738412Y-91884474D01*
X134802888Y-91840256D01*
X134812511Y-91834471D01*
X134846687Y-91813462D01*
X134873217Y-91795578D01*
X134888275Y-91783475D01*
X134890307Y-91780439D01*
X134885718Y-91774836D01*
X134870163Y-91768145D01*
X134840961Y-91759467D01*
X134795432Y-91747902D01*
X134787762Y-91746040D01*
X134771066Y-91739863D01*
X134771571Y-91733168D01*
X134790010Y-91725536D01*
X134827116Y-91716546D01*
X134845833Y-91712770D01*
X134901418Y-91701539D01*
X134959048Y-91688973D01*
X135022640Y-91674150D01*
X135096114Y-91656149D01*
X135183388Y-91634047D01*
X135216455Y-91625549D01*
X135288963Y-91606920D01*
X135344477Y-91592925D01*
X135385132Y-91583222D01*
X135413064Y-91577470D01*
X135430407Y-91575325D01*
X135439299Y-91576446D01*
X135441873Y-91580491D01*
X135440266Y-91587117D01*
X135439161Y-91589861D01*
X135433194Y-91605707D01*
X135422205Y-91636250D01*
X135407611Y-91677501D01*
X135390832Y-91725469D01*
X135385698Y-91740244D01*
X135339996Y-91871978D01*
X135305405Y-91866891D01*
X135278395Y-91862219D01*
X135240151Y-91854754D01*
X135198715Y-91846069D01*
X135196689Y-91845627D01*
X135158541Y-91837695D01*
X135132581Y-91834465D01*
X135111719Y-91836276D01*
X135088865Y-91843465D01*
X135068206Y-91851746D01*
X134989955Y-91888379D01*
X134923342Y-91928804D01*
X134870787Y-91971259D01*
X134834709Y-92013983D01*
X134827130Y-92027241D01*
X134807579Y-92084689D01*
X134807345Y-92140060D01*
X134826066Y-92193110D01*
X134863378Y-92243591D01*
X134918917Y-92291259D01*
X134992321Y-92335866D01*
X135083224Y-92377168D01*
X135191265Y-92414918D01*
X135316078Y-92448870D01*
X135457301Y-92478778D01*
X135508012Y-92487816D01*
X135687670Y-92511756D01*
X135872846Y-92523833D01*
X136059989Y-92524289D01*
X136245549Y-92513365D01*
X136425976Y-92491304D01*
X136597721Y-92458347D01*
X136757233Y-92414737D01*
X136802164Y-92399615D01*
X136821685Y-92391850D01*
X136341559Y-92391850D01*
X136341221Y-92409121D01*
X136339871Y-92418141D01*
X136339746Y-92418488D01*
X136326352Y-92430446D01*
X136310686Y-92433763D01*
X136287487Y-92433763D01*
X136270254Y-92194094D01*
X136264393Y-92113607D01*
X136257968Y-92027116D01*
X136251438Y-91940687D01*
X136245263Y-91860387D01*
X136239901Y-91792280D01*
X136238785Y-91778401D01*
X136234018Y-91716796D01*
X136229839Y-91657724D01*
X136226543Y-91605781D01*
X136224427Y-91565560D01*
X136224026Y-91553182D01*
X135985021Y-91553182D01*
X135984591Y-91645208D01*
X135983693Y-91754919D01*
X135982467Y-91872205D01*
X135981225Y-91974994D01*
X135979892Y-92072324D01*
X135978504Y-92162314D01*
X135977098Y-92243081D01*
X135975709Y-92312743D01*
X135974375Y-92369418D01*
X135973132Y-92411222D01*
X135972017Y-92436273D01*
X135971423Y-92442482D01*
X135966551Y-92466025D01*
X135831172Y-92458995D01*
X135781280Y-92455959D01*
X135738606Y-92452521D01*
X135706974Y-92449052D01*
X135690210Y-92445924D01*
X135688709Y-92445168D01*
X135686723Y-92433213D01*
X135686546Y-92405673D01*
X135688092Y-92366642D01*
X135691278Y-92320211D01*
X135691300Y-92319939D01*
X135703156Y-92172158D01*
X135714153Y-92029735D01*
X135724037Y-91896144D01*
X135732550Y-91774861D01*
X135739436Y-91669360D01*
X135740140Y-91657926D01*
X135744221Y-91599582D01*
X135748928Y-91545720D01*
X135753830Y-91500484D01*
X135758491Y-91468018D01*
X135761313Y-91455319D01*
X135776555Y-91425383D01*
X135802644Y-91390478D01*
X135834113Y-91356797D01*
X135865493Y-91330528D01*
X135878634Y-91322514D01*
X135915274Y-91308125D01*
X135948130Y-91302869D01*
X135971774Y-91307337D01*
X135977249Y-91311749D01*
X135979828Y-91320411D01*
X135981880Y-91340259D01*
X135983415Y-91372378D01*
X135984444Y-91417849D01*
X135984976Y-91477756D01*
X135985021Y-91553182D01*
X136224026Y-91553182D01*
X136223797Y-91546144D01*
X136221217Y-91508006D01*
X136215455Y-91472507D01*
X136211202Y-91457223D01*
X136187365Y-91415403D01*
X136148754Y-91375045D01*
X136100117Y-91340701D01*
X136077440Y-91328979D01*
X136048312Y-91313653D01*
X136036864Y-91301968D01*
X136043638Y-91293006D01*
X136069176Y-91285852D01*
X136106110Y-91280501D01*
X136157737Y-91281507D01*
X136203241Y-91295856D01*
X136238047Y-91321657D01*
X136251221Y-91340518D01*
X136258631Y-91363876D01*
X136265680Y-91404922D01*
X136272458Y-91464321D01*
X136279054Y-91542738D01*
X136279853Y-91553671D01*
X136285495Y-91630438D01*
X136292105Y-91717939D01*
X136299001Y-91807271D01*
X136305499Y-91889527D01*
X136307946Y-91919833D01*
X136317241Y-92034894D01*
X136324886Y-92131695D01*
X136330973Y-92211666D01*
X136335592Y-92276237D01*
X136338836Y-92326838D01*
X136340794Y-92364899D01*
X136341559Y-92391850D01*
X136821685Y-92391850D01*
X136888797Y-92365155D01*
X136957616Y-92328554D01*
X137010570Y-92288190D01*
X137049603Y-92242439D01*
X137076664Y-92189679D01*
X137085387Y-92163449D01*
X137085319Y-92130336D01*
X137070024Y-92090701D01*
X137041799Y-92047169D01*
X137002942Y-92002363D01*
X136955750Y-91958906D01*
X136902520Y-91919424D01*
X136845548Y-91886539D01*
X136841013Y-91884327D01*
X136801915Y-91867503D01*
X136750220Y-91848043D01*
X136692462Y-91828281D01*
X136635174Y-91810551D01*
X136631412Y-91809464D01*
X136582891Y-91795296D01*
X136541521Y-91782798D01*
X136510851Y-91773074D01*
X136494429Y-91767228D01*
X136492712Y-91766310D01*
X136490392Y-91763553D01*
X136491431Y-91760145D01*
X136498548Y-91754099D01*
X136514461Y-91743428D01*
X136541889Y-91726145D01*
X136580346Y-91702251D01*
X136628718Y-91671833D01*
X136683734Y-91636642D01*
X136735636Y-91602934D01*
X136749839Y-91593585D01*
X136835324Y-91537066D01*
X136891073Y-91545808D01*
X136950117Y-91559357D01*
X137021143Y-91582575D01*
X137100051Y-91613637D01*
X137182744Y-91650715D01*
X137265121Y-91691983D01*
X137343086Y-91735616D01*
X137405599Y-91775065D01*
X137483321Y-91835780D01*
X137544488Y-91901418D01*
X137588262Y-91970700D01*
X137613806Y-92042349D01*
X137620560Y-92102817D01*
X138565576Y-92102817D01*
X138565965Y-92093131D01*
X138556116Y-92022406D01*
X138534440Y-91959366D01*
X138512763Y-91920756D01*
X138478711Y-91869152D01*
X138433418Y-91805989D01*
X138378019Y-91732699D01*
X138313651Y-91650719D01*
X138241447Y-91561481D01*
X138162543Y-91466420D01*
X138078074Y-91366970D01*
X138068438Y-91355870D01*
X136389232Y-91355870D01*
X136380203Y-91396473D01*
X136362482Y-91426910D01*
X136337781Y-91443485D01*
X136324637Y-91445436D01*
X136317349Y-91436645D01*
X136310481Y-91414448D01*
X136308193Y-91401983D01*
X136292418Y-91347220D01*
X136261551Y-91301212D01*
X136222405Y-91266636D01*
X136174718Y-91235727D01*
X136121432Y-91207850D01*
X136069231Y-91186110D01*
X136024801Y-91173616D01*
X136020825Y-91172962D01*
X135961559Y-91173700D01*
X135904597Y-91193673D01*
X135850508Y-91232428D01*
X135799864Y-91289510D01*
X135753232Y-91364465D01*
X135735206Y-91400684D01*
X135715118Y-91442847D01*
X135700542Y-91470139D01*
X135688992Y-91485763D01*
X135677981Y-91492923D01*
X135665022Y-91494822D01*
X135662096Y-91494852D01*
X135631503Y-91486301D01*
X135611611Y-91467676D01*
X135597701Y-91441386D01*
X135595498Y-91410216D01*
X135605383Y-91370826D01*
X135627737Y-91319880D01*
X135628723Y-91317900D01*
X135673088Y-91248774D01*
X135731808Y-91186826D01*
X135801277Y-91134148D01*
X135877891Y-91092830D01*
X135958043Y-91064961D01*
X136038128Y-91052632D01*
X136084662Y-91053565D01*
X136158739Y-91068649D01*
X136227200Y-91098129D01*
X136287219Y-91139627D01*
X136335969Y-91190763D01*
X136370624Y-91249157D01*
X136387859Y-91308800D01*
X136389232Y-91355870D01*
X138068438Y-91355870D01*
X137989176Y-91264566D01*
X137943842Y-91213179D01*
X137897276Y-91161939D01*
X137838672Y-91099454D01*
X137770314Y-91028013D01*
X137765677Y-91023236D01*
X136412281Y-91023236D01*
X136409038Y-91047121D01*
X136398535Y-91056224D01*
X136379777Y-91050198D01*
X136351771Y-91028696D01*
X136313520Y-90991369D01*
X136309697Y-90987384D01*
X136252057Y-90932555D01*
X136199193Y-90894680D01*
X136148417Y-90872412D01*
X136097039Y-90864403D01*
X136066807Y-90865665D01*
X136031191Y-90872206D01*
X135983650Y-90884862D01*
X135928724Y-90902000D01*
X135870952Y-90921989D01*
X135814876Y-90943199D01*
X135765037Y-90963998D01*
X135725973Y-90982755D01*
X135704875Y-90995689D01*
X135687652Y-91010736D01*
X135672161Y-91029548D01*
X135656434Y-91055524D01*
X135638503Y-91092063D01*
X135616399Y-91142563D01*
X135607321Y-91164146D01*
X135593645Y-91187727D01*
X135582463Y-91192531D01*
X135576850Y-91179432D01*
X135578557Y-91155967D01*
X135594921Y-91109889D01*
X135626638Y-91059463D01*
X135670627Y-91007472D01*
X135723803Y-90956699D01*
X135783083Y-90909924D01*
X135845386Y-90869930D01*
X135907629Y-90839499D01*
X135942864Y-90827218D01*
X135994691Y-90816836D01*
X136056040Y-90811480D01*
X136118926Y-90811315D01*
X136175361Y-90816507D01*
X136201395Y-90821875D01*
X136245992Y-90839686D01*
X136291522Y-90867709D01*
X136334407Y-90902527D01*
X136371065Y-90940721D01*
X136397917Y-90978873D01*
X136411383Y-91013564D01*
X136412281Y-91023236D01*
X137765677Y-91023236D01*
X137694488Y-90949907D01*
X137613480Y-90867427D01*
X137529576Y-90782862D01*
X137522645Y-90775943D01*
X135924874Y-90775943D01*
X135924339Y-90780379D01*
X135911785Y-90785628D01*
X135887172Y-90792142D01*
X135857975Y-90798171D01*
X135832481Y-90801887D01*
X135824583Y-90793547D01*
X135815089Y-90770272D01*
X135805843Y-90736591D01*
X135805780Y-90736311D01*
X135793372Y-90680986D01*
X135785549Y-90641276D01*
X135782598Y-90613503D01*
X135784806Y-90593988D01*
X135792460Y-90579054D01*
X135805847Y-90565021D01*
X135820111Y-90552629D01*
X135848333Y-90529488D01*
X135865696Y-90518943D01*
X135875645Y-90519944D01*
X135881624Y-90531444D01*
X135882304Y-90533704D01*
X135888868Y-90560183D01*
X135896545Y-90596843D01*
X135904570Y-90639200D01*
X135912179Y-90682773D01*
X135918609Y-90723076D01*
X135923095Y-90755627D01*
X135924874Y-90775943D01*
X137522645Y-90775943D01*
X137445061Y-90698503D01*
X137362220Y-90616640D01*
X137323364Y-90578673D01*
X136007117Y-90578673D01*
X136006163Y-90644102D01*
X136003303Y-90689912D01*
X135998538Y-90716082D01*
X135995492Y-90721746D01*
X135980316Y-90728100D01*
X135966914Y-90714956D01*
X135955233Y-90682237D01*
X135948812Y-90651970D01*
X135937809Y-90589835D01*
X135930357Y-90544242D01*
X135926457Y-90512289D01*
X135926106Y-90491073D01*
X135929304Y-90477692D01*
X135936050Y-90469243D01*
X135946343Y-90462824D01*
X135948747Y-90461570D01*
X135971177Y-90450681D01*
X135986972Y-90446598D01*
X135997294Y-90451654D01*
X136003308Y-90468182D01*
X136006174Y-90498512D01*
X136007056Y-90544979D01*
X136007117Y-90578673D01*
X137323364Y-90578673D01*
X137283339Y-90539564D01*
X137273446Y-90530029D01*
X136322022Y-90530029D01*
X136321780Y-90548652D01*
X136320538Y-90552197D01*
X136312084Y-90547531D01*
X136292595Y-90531086D01*
X136264772Y-90505295D01*
X136231315Y-90472593D01*
X136222985Y-90464228D01*
X136164297Y-90407884D01*
X136114149Y-90367242D01*
X136069981Y-90341646D01*
X136029231Y-90330443D01*
X135989337Y-90332980D01*
X135947739Y-90348603D01*
X135901873Y-90376660D01*
X135896003Y-90380801D01*
X135829429Y-90434186D01*
X135774788Y-90492482D01*
X135731006Y-90553471D01*
X135712054Y-90580566D01*
X135696233Y-90599342D01*
X135687914Y-90605358D01*
X135683327Y-90596343D01*
X135683336Y-90571779D01*
X135685198Y-90554283D01*
X135692083Y-90516872D01*
X135701613Y-90481626D01*
X135705936Y-90469791D01*
X135728913Y-90425253D01*
X135763586Y-90371593D01*
X135806956Y-90312914D01*
X135856028Y-90253320D01*
X135896997Y-90208142D01*
X135979602Y-90121195D01*
X135984946Y-89913410D01*
X135986750Y-89852115D01*
X135988766Y-89798449D01*
X135990852Y-89755206D01*
X135992869Y-89725181D01*
X135994672Y-89711169D01*
X135995215Y-89710552D01*
X135997505Y-89721671D01*
X136000444Y-89748871D01*
X136003706Y-89788492D01*
X136006970Y-89836872D01*
X136008126Y-89856507D01*
X136012006Y-89913764D01*
X136016932Y-89969968D01*
X136022316Y-90019218D01*
X136027572Y-90055616D01*
X136028405Y-90060075D01*
X136034797Y-90088885D01*
X136042780Y-90111406D01*
X136055327Y-90132313D01*
X136075411Y-90156279D01*
X136106005Y-90187976D01*
X136116428Y-90198441D01*
X136163388Y-90249190D01*
X136208222Y-90304474D01*
X136248544Y-90360716D01*
X136281968Y-90414339D01*
X136306109Y-90461767D01*
X136318581Y-90499422D01*
X136319056Y-90502247D01*
X136322022Y-90530029D01*
X137273446Y-90530029D01*
X137210705Y-90469565D01*
X137146602Y-90408933D01*
X137093316Y-90359958D01*
X137084393Y-90351973D01*
X136993443Y-90272180D01*
X136898327Y-90190851D01*
X136800841Y-90109385D01*
X136702787Y-90029183D01*
X136605963Y-89951648D01*
X136512167Y-89878178D01*
X136423200Y-89810176D01*
X136340860Y-89749043D01*
X136266946Y-89696179D01*
X136203258Y-89652985D01*
X136151594Y-89620863D01*
X136130657Y-89609300D01*
X136076127Y-89590156D01*
X136012284Y-89582187D01*
X135946276Y-89585623D01*
G37*
X135946276Y-89585623D02*
X135885252Y-89600695D01*
X135883576Y-89601329D01*
X135840538Y-89620166D01*
X135792356Y-89646030D01*
X135737725Y-89679851D01*
X135675341Y-89722558D01*
X135603902Y-89775082D01*
X135522102Y-89838352D01*
X135428638Y-89913299D01*
X135322205Y-90000852D01*
X135315288Y-90006601D01*
X134999474Y-90278230D01*
X134700595Y-90553675D01*
X134419231Y-90832342D01*
X134155964Y-91113638D01*
X133911375Y-91396969D01*
X133721824Y-91634744D01*
X133645620Y-91735914D01*
X133583151Y-91822873D01*
X133534416Y-91895620D01*
X133499415Y-91954157D01*
X133478147Y-91998486D01*
X133476129Y-92003944D01*
X133460446Y-92070227D01*
X133455536Y-92144219D01*
X133461602Y-92214185D01*
X133473746Y-92251148D01*
X133499655Y-92301354D01*
X133539393Y-92364894D01*
X133593025Y-92441860D01*
X133660616Y-92532344D01*
X133742228Y-92636438D01*
X133837927Y-92754234D01*
X133842779Y-92760118D01*
X133883205Y-92809328D01*
X133919652Y-92854121D01*
X133950120Y-92892005D01*
X133972609Y-92920485D01*
X133985117Y-92937069D01*
X133986701Y-92939485D01*
X133997874Y-92953981D01*
X134021482Y-92980839D01*
X134055972Y-93018459D01*
X134099787Y-93065240D01*
X134151374Y-93119581D01*
X134209178Y-93179880D01*
X134271642Y-93244539D01*
X134337213Y-93311954D01*
X134404335Y-93380526D01*
X134471454Y-93448654D01*
X134537015Y-93514737D01*
X134599462Y-93577175D01*
X134657241Y-93634366D01*
X134708797Y-93684709D01*
X134735748Y-93710630D01*
X134878873Y-93845650D01*
X135011863Y-93967561D01*
X135137184Y-94078485D01*
X135257298Y-94180544D01*
X135374671Y-94275861D01*
X135491765Y-94366558D01*
X135533740Y-94398052D01*
X135577840Y-94431081D01*
X135624781Y-94466574D01*
X135666801Y-94498652D01*
X135680969Y-94509579D01*
X135721767Y-94538428D01*
X135771079Y-94569339D01*
X135819345Y-94596375D01*
X135827099Y-94600329D01*
X135869666Y-94620690D01*
X135902867Y-94633286D01*
X135934467Y-94640212D01*
X135972229Y-94643565D01*
X135990173Y-94644352D01*
X136048879Y-94643893D01*
X136093254Y-94637870D01*
X136106878Y-94633729D01*
X136139328Y-94620303D01*
X136170039Y-94605076D01*
X136202656Y-94585783D01*
X136240826Y-94560154D01*
X136288194Y-94525921D01*
X136328197Y-94496062D01*
X136534717Y-94336914D01*
X136733785Y-94175538D01*
X136738067Y-94171880D01*
X136489916Y-94171880D01*
X136484218Y-94181265D01*
X136469457Y-94174297D01*
X136444477Y-94151084D01*
X136443486Y-94150063D01*
X136433979Y-94139672D01*
X136426014Y-94128595D01*
X136419298Y-94114869D01*
X136413539Y-94096528D01*
X136408445Y-94071607D01*
X136403724Y-94038142D01*
X136399084Y-93994168D01*
X136394232Y-93937720D01*
X136388877Y-93866834D01*
X136382726Y-93779543D01*
X136377864Y-93708704D01*
X136372757Y-93634778D01*
X136366606Y-93547039D01*
X136359830Y-93451386D01*
X136352847Y-93353719D01*
X136346077Y-93259936D01*
X136342048Y-93204658D01*
X136336509Y-93126341D01*
X136331420Y-93049353D01*
X136327000Y-92977384D01*
X136323465Y-92914127D01*
X136321034Y-92863275D01*
X136319932Y-92829094D01*
X136318569Y-92743296D01*
X135970760Y-92743296D01*
X135964230Y-93188090D01*
X135962824Y-93288040D01*
X135961521Y-93388602D01*
X135960356Y-93486613D01*
X135959361Y-93578911D01*
X135958570Y-93662335D01*
X135958015Y-93733722D01*
X135957731Y-93789911D01*
X135957700Y-93809160D01*
X135957700Y-93985436D01*
X135871222Y-93986188D01*
X135819241Y-93988239D01*
X135763162Y-93992937D01*
X135714382Y-93999306D01*
X135710619Y-93999949D01*
X135668289Y-94006605D01*
X135628012Y-94011650D01*
X135598374Y-94014008D01*
X135597940Y-94014021D01*
X135559385Y-94015086D01*
X135565737Y-93889074D01*
X135569221Y-93827907D01*
X135573663Y-93761343D01*
X135578420Y-93698521D01*
X135581818Y-93659288D01*
X135587264Y-93599239D01*
X135593953Y-93522193D01*
X135601661Y-93430868D01*
X135610162Y-93327980D01*
X135619233Y-93216244D01*
X135628649Y-93098376D01*
X135636621Y-92997109D01*
X135643189Y-92914112D01*
X135648634Y-92848790D01*
X135653265Y-92799104D01*
X135657395Y-92763015D01*
X135661333Y-92738482D01*
X135665390Y-92723468D01*
X135669877Y-92715932D01*
X135675106Y-92713835D01*
X135679673Y-92714597D01*
X135695049Y-92717135D01*
X135726022Y-92720841D01*
X135768489Y-92725267D01*
X135818347Y-92729968D01*
X135833277Y-92731291D01*
X135970760Y-92743296D01*
X136318569Y-92743296D01*
X136318440Y-92735203D01*
X136344614Y-92732172D01*
X136360516Y-92731940D01*
X136369200Y-92739212D01*
X136374080Y-92758766D01*
X136376400Y-92776647D01*
X136379791Y-92809792D01*
X136383628Y-92854000D01*
X136387166Y-92900606D01*
X136387686Y-92908160D01*
X136391121Y-92955891D01*
X136395610Y-93013983D01*
X136400422Y-93073112D01*
X136402785Y-93100883D01*
X136406702Y-93147115D01*
X136411674Y-93207350D01*
X136417236Y-93275886D01*
X136422924Y-93347016D01*
X136427284Y-93402323D01*
X136432755Y-93471398D01*
X136438504Y-93542472D01*
X136444061Y-93609841D01*
X136448955Y-93667800D01*
X136452098Y-93703763D01*
X136456506Y-93755872D01*
X136461543Y-93819999D01*
X136466621Y-93888433D01*
X136471154Y-93953464D01*
X136471637Y-93960728D01*
X136475553Y-94016128D01*
X136479644Y-94067469D01*
X136483506Y-94110109D01*
X136486738Y-94139408D01*
X136487710Y-94146039D01*
X136489916Y-94171880D01*
X136738067Y-94171880D01*
X136928827Y-94008931D01*
X137123265Y-93834091D01*
X137320523Y-93648018D01*
X137524025Y-93447709D01*
X137524198Y-93447535D01*
X137611325Y-93359182D01*
X137699962Y-93267531D01*
X137788181Y-93174687D01*
X137874055Y-93082753D01*
X137955654Y-92993833D01*
X138031050Y-92910031D01*
X138098315Y-92833451D01*
X138155521Y-92766196D01*
X138200740Y-92710371D01*
X138205444Y-92704313D01*
X138232153Y-92670217D01*
X138266776Y-92626724D01*
X138304639Y-92579678D01*
X138337681Y-92539052D01*
X138402401Y-92457005D01*
X138457842Y-92380634D01*
X138502539Y-92312124D01*
X138535029Y-92253660D01*
X138547310Y-92226214D01*
X138563143Y-92163424D01*
X138565576Y-92102817D01*
X137620560Y-92102817D01*
X137616093Y-92152919D01*
X137601194Y-92197630D01*
X137573614Y-92241285D01*
X137531106Y-92288219D01*
X137517736Y-92301111D01*
X137450198Y-92355864D01*
X137366790Y-92407219D01*
X137266562Y-92455637D01*
X137148560Y-92501576D01*
X137011832Y-92545493D01*
X137007456Y-92546777D01*
X136764915Y-92608056D01*
X136520527Y-92650688D01*
X136276753Y-92674247D01*
X136269023Y-92674680D01*
X136213208Y-92676490D01*
X136142620Y-92676893D01*
X136061896Y-92676032D01*
X135975674Y-92674049D01*
X135888592Y-92671090D01*
X135805288Y-92667297D01*
X135730399Y-92662814D01*
X135668564Y-92657784D01*
X135646377Y-92655398D01*
X135484790Y-92633057D01*
X135331339Y-92605106D01*
X135176828Y-92569719D01*
X135062661Y-92539418D01*
X135014819Y-92523542D01*
X134956671Y-92500440D01*
X134894653Y-92473028D01*
X134835199Y-92444220D01*
X134784746Y-92416931D01*
X134763883Y-92404098D01*
X134693021Y-92349755D01*
X134638539Y-92291183D01*
X134601036Y-92229785D01*
X134581115Y-92166961D01*
X134579376Y-92104115D01*
X134596421Y-92042647D01*
X134603001Y-92028967D01*
X134634599Y-91982421D01*
X134681026Y-91933060D01*
X134738412Y-91884474D01*
X134802888Y-91840256D01*
X134812511Y-91834471D01*
X134846687Y-91813462D01*
X134873217Y-91795578D01*
X134888275Y-91783475D01*
X134890307Y-91780439D01*
X134885718Y-91774836D01*
X134870163Y-91768145D01*
X134840961Y-91759467D01*
X134795432Y-91747902D01*
X134787762Y-91746040D01*
X134771066Y-91739863D01*
X134771571Y-91733168D01*
X134790010Y-91725536D01*
X134827116Y-91716546D01*
X134845833Y-91712770D01*
X134901418Y-91701539D01*
X134959048Y-91688973D01*
X135022640Y-91674150D01*
X135096114Y-91656149D01*
X135183388Y-91634047D01*
X135216455Y-91625549D01*
X135288963Y-91606920D01*
X135344477Y-91592925D01*
X135385132Y-91583222D01*
X135413064Y-91577470D01*
X135430407Y-91575325D01*
X135439299Y-91576446D01*
X135441873Y-91580491D01*
X135440266Y-91587117D01*
X135439161Y-91589861D01*
X135433194Y-91605707D01*
X135422205Y-91636250D01*
X135407611Y-91677501D01*
X135390832Y-91725469D01*
X135385698Y-91740244D01*
X135339996Y-91871978D01*
X135305405Y-91866891D01*
X135278395Y-91862219D01*
X135240151Y-91854754D01*
X135198715Y-91846069D01*
X135196689Y-91845627D01*
X135158541Y-91837695D01*
X135132581Y-91834465D01*
X135111719Y-91836276D01*
X135088865Y-91843465D01*
X135068206Y-91851746D01*
X134989955Y-91888379D01*
X134923342Y-91928804D01*
X134870787Y-91971259D01*
X134834709Y-92013983D01*
X134827130Y-92027241D01*
X134807579Y-92084689D01*
X134807345Y-92140060D01*
X134826066Y-92193110D01*
X134863378Y-92243591D01*
X134918917Y-92291259D01*
X134992321Y-92335866D01*
X135083224Y-92377168D01*
X135191265Y-92414918D01*
X135316078Y-92448870D01*
X135457301Y-92478778D01*
X135508012Y-92487816D01*
X135687670Y-92511756D01*
X135872846Y-92523833D01*
X136059989Y-92524289D01*
X136245549Y-92513365D01*
X136425976Y-92491304D01*
X136597721Y-92458347D01*
X136757233Y-92414737D01*
X136802164Y-92399615D01*
X136821685Y-92391850D01*
X136341559Y-92391850D01*
X136341221Y-92409121D01*
X136339871Y-92418141D01*
X136339746Y-92418488D01*
X136326352Y-92430446D01*
X136310686Y-92433763D01*
X136287487Y-92433763D01*
X136270254Y-92194094D01*
X136264393Y-92113607D01*
X136257968Y-92027116D01*
X136251438Y-91940687D01*
X136245263Y-91860387D01*
X136239901Y-91792280D01*
X136238785Y-91778401D01*
X136234018Y-91716796D01*
X136229839Y-91657724D01*
X136226543Y-91605781D01*
X136224427Y-91565560D01*
X136224026Y-91553182D01*
X135985021Y-91553182D01*
X135984591Y-91645208D01*
X135983693Y-91754919D01*
X135982467Y-91872205D01*
X135981225Y-91974994D01*
X135979892Y-92072324D01*
X135978504Y-92162314D01*
X135977098Y-92243081D01*
X135975709Y-92312743D01*
X135974375Y-92369418D01*
X135973132Y-92411222D01*
X135972017Y-92436273D01*
X135971423Y-92442482D01*
X135966551Y-92466025D01*
X135831172Y-92458995D01*
X135781280Y-92455959D01*
X135738606Y-92452521D01*
X135706974Y-92449052D01*
X135690210Y-92445924D01*
X135688709Y-92445168D01*
X135686723Y-92433213D01*
X135686546Y-92405673D01*
X135688092Y-92366642D01*
X135691278Y-92320211D01*
X135691300Y-92319939D01*
X135703156Y-92172158D01*
X135714153Y-92029735D01*
X135724037Y-91896144D01*
X135732550Y-91774861D01*
X135739436Y-91669360D01*
X135740140Y-91657926D01*
X135744221Y-91599582D01*
X135748928Y-91545720D01*
X135753830Y-91500484D01*
X135758491Y-91468018D01*
X135761313Y-91455319D01*
X135776555Y-91425383D01*
X135802644Y-91390478D01*
X135834113Y-91356797D01*
X135865493Y-91330528D01*
X135878634Y-91322514D01*
X135915274Y-91308125D01*
X135948130Y-91302869D01*
X135971774Y-91307337D01*
X135977249Y-91311749D01*
X135979828Y-91320411D01*
X135981880Y-91340259D01*
X135983415Y-91372378D01*
X135984444Y-91417849D01*
X135984976Y-91477756D01*
X135985021Y-91553182D01*
X136224026Y-91553182D01*
X136223797Y-91546144D01*
X136221217Y-91508006D01*
X136215455Y-91472507D01*
X136211202Y-91457223D01*
X136187365Y-91415403D01*
X136148754Y-91375045D01*
X136100117Y-91340701D01*
X136077440Y-91328979D01*
X136048312Y-91313653D01*
X136036864Y-91301968D01*
X136043638Y-91293006D01*
X136069176Y-91285852D01*
X136106110Y-91280501D01*
X136157737Y-91281507D01*
X136203241Y-91295856D01*
X136238047Y-91321657D01*
X136251221Y-91340518D01*
X136258631Y-91363876D01*
X136265680Y-91404922D01*
X136272458Y-91464321D01*
X136279054Y-91542738D01*
X136279853Y-91553671D01*
X136285495Y-91630438D01*
X136292105Y-91717939D01*
X136299001Y-91807271D01*
X136305499Y-91889527D01*
X136307946Y-91919833D01*
X136317241Y-92034894D01*
X136324886Y-92131695D01*
X136330973Y-92211666D01*
X136335592Y-92276237D01*
X136338836Y-92326838D01*
X136340794Y-92364899D01*
X136341559Y-92391850D01*
X136821685Y-92391850D01*
X136888797Y-92365155D01*
X136957616Y-92328554D01*
X137010570Y-92288190D01*
X137049603Y-92242439D01*
X137076664Y-92189679D01*
X137085387Y-92163449D01*
X137085319Y-92130336D01*
X137070024Y-92090701D01*
X137041799Y-92047169D01*
X137002942Y-92002363D01*
X136955750Y-91958906D01*
X136902520Y-91919424D01*
X136845548Y-91886539D01*
X136841013Y-91884327D01*
X136801915Y-91867503D01*
X136750220Y-91848043D01*
X136692462Y-91828281D01*
X136635174Y-91810551D01*
X136631412Y-91809464D01*
X136582891Y-91795296D01*
X136541521Y-91782798D01*
X136510851Y-91773074D01*
X136494429Y-91767228D01*
X136492712Y-91766310D01*
X136490392Y-91763553D01*
X136491431Y-91760145D01*
X136498548Y-91754099D01*
X136514461Y-91743428D01*
X136541889Y-91726145D01*
X136580346Y-91702251D01*
X136628718Y-91671833D01*
X136683734Y-91636642D01*
X136735636Y-91602934D01*
X136749839Y-91593585D01*
X136835324Y-91537066D01*
X136891073Y-91545808D01*
X136950117Y-91559357D01*
X137021143Y-91582575D01*
X137100051Y-91613637D01*
X137182744Y-91650715D01*
X137265121Y-91691983D01*
X137343086Y-91735616D01*
X137405599Y-91775065D01*
X137483321Y-91835780D01*
X137544488Y-91901418D01*
X137588262Y-91970700D01*
X137613806Y-92042349D01*
X137620560Y-92102817D01*
X138565576Y-92102817D01*
X138565965Y-92093131D01*
X138556116Y-92022406D01*
X138534440Y-91959366D01*
X138512763Y-91920756D01*
X138478711Y-91869152D01*
X138433418Y-91805989D01*
X138378019Y-91732699D01*
X138313651Y-91650719D01*
X138241447Y-91561481D01*
X138162543Y-91466420D01*
X138078074Y-91366970D01*
X138068438Y-91355870D01*
X136389232Y-91355870D01*
X136380203Y-91396473D01*
X136362482Y-91426910D01*
X136337781Y-91443485D01*
X136324637Y-91445436D01*
X136317349Y-91436645D01*
X136310481Y-91414448D01*
X136308193Y-91401983D01*
X136292418Y-91347220D01*
X136261551Y-91301212D01*
X136222405Y-91266636D01*
X136174718Y-91235727D01*
X136121432Y-91207850D01*
X136069231Y-91186110D01*
X136024801Y-91173616D01*
X136020825Y-91172962D01*
X135961559Y-91173700D01*
X135904597Y-91193673D01*
X135850508Y-91232428D01*
X135799864Y-91289510D01*
X135753232Y-91364465D01*
X135735206Y-91400684D01*
X135715118Y-91442847D01*
X135700542Y-91470139D01*
X135688992Y-91485763D01*
X135677981Y-91492923D01*
X135665022Y-91494822D01*
X135662096Y-91494852D01*
X135631503Y-91486301D01*
X135611611Y-91467676D01*
X135597701Y-91441386D01*
X135595498Y-91410216D01*
X135605383Y-91370826D01*
X135627737Y-91319880D01*
X135628723Y-91317900D01*
X135673088Y-91248774D01*
X135731808Y-91186826D01*
X135801277Y-91134148D01*
X135877891Y-91092830D01*
X135958043Y-91064961D01*
X136038128Y-91052632D01*
X136084662Y-91053565D01*
X136158739Y-91068649D01*
X136227200Y-91098129D01*
X136287219Y-91139627D01*
X136335969Y-91190763D01*
X136370624Y-91249157D01*
X136387859Y-91308800D01*
X136389232Y-91355870D01*
X138068438Y-91355870D01*
X137989176Y-91264566D01*
X137943842Y-91213179D01*
X137897276Y-91161939D01*
X137838672Y-91099454D01*
X137770314Y-91028013D01*
X137765677Y-91023236D01*
X136412281Y-91023236D01*
X136409038Y-91047121D01*
X136398535Y-91056224D01*
X136379777Y-91050198D01*
X136351771Y-91028696D01*
X136313520Y-90991369D01*
X136309697Y-90987384D01*
X136252057Y-90932555D01*
X136199193Y-90894680D01*
X136148417Y-90872412D01*
X136097039Y-90864403D01*
X136066807Y-90865665D01*
X136031191Y-90872206D01*
X135983650Y-90884862D01*
X135928724Y-90902000D01*
X135870952Y-90921989D01*
X135814876Y-90943199D01*
X135765037Y-90963998D01*
X135725973Y-90982755D01*
X135704875Y-90995689D01*
X135687652Y-91010736D01*
X135672161Y-91029548D01*
X135656434Y-91055524D01*
X135638503Y-91092063D01*
X135616399Y-91142563D01*
X135607321Y-91164146D01*
X135593645Y-91187727D01*
X135582463Y-91192531D01*
X135576850Y-91179432D01*
X135578557Y-91155967D01*
X135594921Y-91109889D01*
X135626638Y-91059463D01*
X135670627Y-91007472D01*
X135723803Y-90956699D01*
X135783083Y-90909924D01*
X135845386Y-90869930D01*
X135907629Y-90839499D01*
X135942864Y-90827218D01*
X135994691Y-90816836D01*
X136056040Y-90811480D01*
X136118926Y-90811315D01*
X136175361Y-90816507D01*
X136201395Y-90821875D01*
X136245992Y-90839686D01*
X136291522Y-90867709D01*
X136334407Y-90902527D01*
X136371065Y-90940721D01*
X136397917Y-90978873D01*
X136411383Y-91013564D01*
X136412281Y-91023236D01*
X137765677Y-91023236D01*
X137694488Y-90949907D01*
X137613480Y-90867427D01*
X137529576Y-90782862D01*
X137522645Y-90775943D01*
X135924874Y-90775943D01*
X135924339Y-90780379D01*
X135911785Y-90785628D01*
X135887172Y-90792142D01*
X135857975Y-90798171D01*
X135832481Y-90801887D01*
X135824583Y-90793547D01*
X135815089Y-90770272D01*
X135805843Y-90736591D01*
X135805780Y-90736311D01*
X135793372Y-90680986D01*
X135785549Y-90641276D01*
X135782598Y-90613503D01*
X135784806Y-90593988D01*
X135792460Y-90579054D01*
X135805847Y-90565021D01*
X135820111Y-90552629D01*
X135848333Y-90529488D01*
X135865696Y-90518943D01*
X135875645Y-90519944D01*
X135881624Y-90531444D01*
X135882304Y-90533704D01*
X135888868Y-90560183D01*
X135896545Y-90596843D01*
X135904570Y-90639200D01*
X135912179Y-90682773D01*
X135918609Y-90723076D01*
X135923095Y-90755627D01*
X135924874Y-90775943D01*
X137522645Y-90775943D01*
X137445061Y-90698503D01*
X137362220Y-90616640D01*
X137323364Y-90578673D01*
X136007117Y-90578673D01*
X136006163Y-90644102D01*
X136003303Y-90689912D01*
X135998538Y-90716082D01*
X135995492Y-90721746D01*
X135980316Y-90728100D01*
X135966914Y-90714956D01*
X135955233Y-90682237D01*
X135948812Y-90651970D01*
X135937809Y-90589835D01*
X135930357Y-90544242D01*
X135926457Y-90512289D01*
X135926106Y-90491073D01*
X135929304Y-90477692D01*
X135936050Y-90469243D01*
X135946343Y-90462824D01*
X135948747Y-90461570D01*
X135971177Y-90450681D01*
X135986972Y-90446598D01*
X135997294Y-90451654D01*
X136003308Y-90468182D01*
X136006174Y-90498512D01*
X136007056Y-90544979D01*
X136007117Y-90578673D01*
X137323364Y-90578673D01*
X137283339Y-90539564D01*
X137273446Y-90530029D01*
X136322022Y-90530029D01*
X136321780Y-90548652D01*
X136320538Y-90552197D01*
X136312084Y-90547531D01*
X136292595Y-90531086D01*
X136264772Y-90505295D01*
X136231315Y-90472593D01*
X136222985Y-90464228D01*
X136164297Y-90407884D01*
X136114149Y-90367242D01*
X136069981Y-90341646D01*
X136029231Y-90330443D01*
X135989337Y-90332980D01*
X135947739Y-90348603D01*
X135901873Y-90376660D01*
X135896003Y-90380801D01*
X135829429Y-90434186D01*
X135774788Y-90492482D01*
X135731006Y-90553471D01*
X135712054Y-90580566D01*
X135696233Y-90599342D01*
X135687914Y-90605358D01*
X135683327Y-90596343D01*
X135683336Y-90571779D01*
X135685198Y-90554283D01*
X135692083Y-90516872D01*
X135701613Y-90481626D01*
X135705936Y-90469791D01*
X135728913Y-90425253D01*
X135763586Y-90371593D01*
X135806956Y-90312914D01*
X135856028Y-90253320D01*
X135896997Y-90208142D01*
X135979602Y-90121195D01*
X135984946Y-89913410D01*
X135986750Y-89852115D01*
X135988766Y-89798449D01*
X135990852Y-89755206D01*
X135992869Y-89725181D01*
X135994672Y-89711169D01*
X135995215Y-89710552D01*
X135997505Y-89721671D01*
X136000444Y-89748871D01*
X136003706Y-89788492D01*
X136006970Y-89836872D01*
X136008126Y-89856507D01*
X136012006Y-89913764D01*
X136016932Y-89969968D01*
X136022316Y-90019218D01*
X136027572Y-90055616D01*
X136028405Y-90060075D01*
X136034797Y-90088885D01*
X136042780Y-90111406D01*
X136055327Y-90132313D01*
X136075411Y-90156279D01*
X136106005Y-90187976D01*
X136116428Y-90198441D01*
X136163388Y-90249190D01*
X136208222Y-90304474D01*
X136248544Y-90360716D01*
X136281968Y-90414339D01*
X136306109Y-90461767D01*
X136318581Y-90499422D01*
X136319056Y-90502247D01*
X136322022Y-90530029D01*
X137273446Y-90530029D01*
X137210705Y-90469565D01*
X137146602Y-90408933D01*
X137093316Y-90359958D01*
X137084393Y-90351973D01*
X136993443Y-90272180D01*
X136898327Y-90190851D01*
X136800841Y-90109385D01*
X136702787Y-90029183D01*
X136605963Y-89951648D01*
X136512167Y-89878178D01*
X136423200Y-89810176D01*
X136340860Y-89749043D01*
X136266946Y-89696179D01*
X136203258Y-89652985D01*
X136151594Y-89620863D01*
X136130657Y-89609300D01*
X136076127Y-89590156D01*
X136012284Y-89582187D01*
X135946276Y-89585623D01*
G36*
X135967937Y-88466710D02*
G01*
X135910457Y-88491053D01*
X135901454Y-88495969D01*
X135880146Y-88508398D01*
X135861797Y-88521019D01*
X135844260Y-88536264D01*
X135825390Y-88556563D01*
X135803042Y-88584350D01*
X135775070Y-88622055D01*
X135739327Y-88672109D01*
X135712722Y-88709846D01*
X135620572Y-88837667D01*
X135516928Y-88975799D01*
X135404516Y-89120825D01*
X135286062Y-89269326D01*
X135164291Y-89417882D01*
X135041929Y-89563076D01*
X134925635Y-89697033D01*
X134811296Y-89824203D01*
X134685592Y-89959635D01*
X134551210Y-90100657D01*
X134410837Y-90244597D01*
X134267159Y-90388785D01*
X134122862Y-90530547D01*
X133980633Y-90667212D01*
X133843158Y-90796108D01*
X133713124Y-90914564D01*
X133610424Y-91005072D01*
X133517148Y-91084640D01*
X133417153Y-91167871D01*
X133312350Y-91253305D01*
X133204647Y-91339483D01*
X133095956Y-91424948D01*
X132988186Y-91508240D01*
X132883247Y-91587901D01*
X132783050Y-91662473D01*
X132689504Y-91730497D01*
X132604519Y-91790514D01*
X132530006Y-91841066D01*
X132467875Y-91880694D01*
X132449045Y-91891925D01*
X132401100Y-91929929D01*
X132359897Y-91982215D01*
X132329509Y-92043479D01*
X132326800Y-92051132D01*
X132313484Y-92103712D01*
X132313643Y-92149310D01*
X132327751Y-92195832D01*
X132336644Y-92214947D01*
X132356978Y-92248182D01*
X132385087Y-92279791D01*
X132423662Y-92312044D01*
X132475396Y-92347209D01*
X132538089Y-92384752D01*
X132568869Y-92404011D01*
X132612892Y-92433776D01*
X132667849Y-92472350D01*
X132731436Y-92518035D01*
X132801344Y-92569133D01*
X132875268Y-92623947D01*
X132950900Y-92680779D01*
X133025933Y-92737930D01*
X133098062Y-92793703D01*
X133160735Y-92843025D01*
X133361875Y-93005703D01*
X133554054Y-93167071D01*
X133741060Y-93330523D01*
X133926683Y-93499456D01*
X134114712Y-93677266D01*
X134308936Y-93867351D01*
X134357192Y-93915475D01*
X134555622Y-94116951D01*
X134740182Y-94310654D01*
X134913532Y-94499651D01*
X135078334Y-94687007D01*
X135237247Y-94875791D01*
X135392930Y-95069067D01*
X135548045Y-95269903D01*
X135648148Y-95403685D01*
X135708217Y-95484563D01*
X135758126Y-95550921D01*
X135799182Y-95604341D01*
X135832692Y-95646405D01*
X135859960Y-95678695D01*
X135882293Y-95702793D01*
X135900999Y-95720280D01*
X135917382Y-95732738D01*
X135922694Y-95736133D01*
X135960269Y-95749581D01*
X136009514Y-95753524D01*
X136064781Y-95747987D01*
X136113902Y-95735297D01*
X136157304Y-95716801D01*
X136191840Y-95692053D01*
X136222611Y-95656541D01*
X136248643Y-95616175D01*
X136282376Y-95562378D01*
X136327264Y-95495717D01*
X136381635Y-95418369D01*
X136443822Y-95332513D01*
X136512154Y-95240326D01*
X136584961Y-95143987D01*
X136660575Y-95045672D01*
X136737324Y-94947561D01*
X136813539Y-94851830D01*
X136887551Y-94760657D01*
X136957689Y-94676221D01*
X137022285Y-94600699D01*
X137059685Y-94558340D01*
X137332443Y-94260320D01*
X137601529Y-93979174D01*
X137869171Y-93712908D01*
X138137596Y-93459532D01*
X138409032Y-93217052D01*
X138685709Y-92983477D01*
X138969853Y-92756814D01*
X139263694Y-92535071D01*
X139560152Y-92322756D01*
X139610241Y-92285625D01*
X139646444Y-92252910D01*
X139672637Y-92220363D01*
X139692701Y-92183736D01*
X139697828Y-92171982D01*
X139710859Y-92117498D01*
X138749406Y-92117498D01*
X138748479Y-92155674D01*
X138745228Y-92190127D01*
X138738529Y-92223043D01*
X138727261Y-92256612D01*
X138710302Y-92293020D01*
X138686530Y-92334455D01*
X138654824Y-92383105D01*
X138614061Y-92441158D01*
X138563119Y-92510801D01*
X138513731Y-92577070D01*
X138406708Y-92716562D01*
X138295287Y-92854800D01*
X138178228Y-92993077D01*
X138054293Y-93132680D01*
X137922243Y-93274902D01*
X137780838Y-93421031D01*
X137628840Y-93572358D01*
X137465010Y-93730173D01*
X137288109Y-93895765D01*
X137096897Y-94070426D01*
X136970735Y-94183729D01*
X136839837Y-94298293D01*
X136714511Y-94403390D01*
X136595604Y-94498446D01*
X136483964Y-94582884D01*
X136380439Y-94656130D01*
X136285877Y-94717607D01*
X136201126Y-94766742D01*
X136127033Y-94802957D01*
X136064446Y-94825678D01*
X136014214Y-94834330D01*
X136012058Y-94834383D01*
X135992090Y-94832532D01*
X135960491Y-94827404D01*
X135931653Y-94821686D01*
X135885442Y-94809168D01*
X135836507Y-94790413D01*
X135783132Y-94764374D01*
X135723600Y-94730004D01*
X135656196Y-94686253D01*
X135579202Y-94632075D01*
X135490903Y-94566421D01*
X135404237Y-94499688D01*
X135221262Y-94352411D01*
X135031308Y-94190754D01*
X134837236Y-94017479D01*
X134641906Y-93835350D01*
X134448177Y-93647130D01*
X134258912Y-93455582D01*
X134076970Y-93263469D01*
X133905211Y-93073555D01*
X133789793Y-92940128D01*
X133696376Y-92828700D01*
X133615537Y-92729525D01*
X133545976Y-92640778D01*
X133486395Y-92560633D01*
X133435496Y-92487268D01*
X133391979Y-92418856D01*
X133354546Y-92353573D01*
X133321898Y-92289595D01*
X133312417Y-92269462D01*
X133295225Y-92230756D01*
X133285125Y-92201344D01*
X133280564Y-92173282D01*
X133279992Y-92138627D01*
X133281028Y-92108716D01*
X133283414Y-92072107D01*
X133288062Y-92038370D01*
X133296064Y-92005490D01*
X133308509Y-91971456D01*
X133326488Y-91934254D01*
X133351092Y-91891873D01*
X133383412Y-91842298D01*
X133424537Y-91783518D01*
X133475559Y-91713518D01*
X133537568Y-91630288D01*
X133547248Y-91617386D01*
X133651934Y-91480190D01*
X133755446Y-91349365D01*
X133861162Y-91220870D01*
X133972456Y-91090666D01*
X134092704Y-90954710D01*
X134194439Y-90842557D01*
X134241767Y-90791748D01*
X134297915Y-90732919D01*
X134360789Y-90668144D01*
X134428297Y-90599500D01*
X134498343Y-90529063D01*
X134568834Y-90458909D01*
X134637675Y-90391114D01*
X134702774Y-90327754D01*
X134762035Y-90270904D01*
X134813364Y-90222642D01*
X134854669Y-90185042D01*
X134877571Y-90165285D01*
X134909705Y-90138163D01*
X134952174Y-90101588D01*
X135000632Y-90059342D01*
X135050732Y-90015205D01*
X135080178Y-89989026D01*
X135167114Y-89913162D01*
X135265255Y-89830503D01*
X135369410Y-89745297D01*
X135474387Y-89661786D01*
X135574997Y-89584219D01*
X135577194Y-89582556D01*
X135669113Y-89520087D01*
X135762448Y-89469915D01*
X135854630Y-89432935D01*
X135943091Y-89410045D01*
X136025262Y-89402140D01*
X136081519Y-89406636D01*
X136127445Y-89416846D01*
X136171611Y-89432289D01*
X136217768Y-89454880D01*
X136269667Y-89486535D01*
X136331059Y-89529168D01*
X136353163Y-89545325D01*
X136467006Y-89630092D01*
X136573207Y-89710975D01*
X136674029Y-89789905D01*
X136771735Y-89868815D01*
X136868590Y-89949637D01*
X136966855Y-90034303D01*
X137068796Y-90124746D01*
X137176674Y-90222897D01*
X137292755Y-90330689D01*
X137419300Y-90450054D01*
X137474496Y-90502560D01*
X137603734Y-90627772D01*
X137731311Y-90755274D01*
X137856132Y-90883791D01*
X137977101Y-91012046D01*
X138093126Y-91138764D01*
X138203109Y-91262668D01*
X138305957Y-91382483D01*
X138400575Y-91496931D01*
X138485868Y-91604737D01*
X138560740Y-91704625D01*
X138624098Y-91795318D01*
X138674846Y-91875540D01*
X138711889Y-91944015D01*
X138712830Y-91945985D01*
X138730352Y-91984238D01*
X138741207Y-92013927D01*
X138746955Y-92042372D01*
X138749158Y-92076894D01*
X138749406Y-92117498D01*
X139710859Y-92117498D01*
X139711457Y-92114999D01*
X139706479Y-92056756D01*
X139683697Y-91999745D01*
X139643912Y-91946457D01*
X139617210Y-91921412D01*
X139596422Y-91905001D01*
X139562210Y-91879165D01*
X139517284Y-91845900D01*
X139464355Y-91807199D01*
X139406133Y-91765058D01*
X139350885Y-91725436D01*
X139000327Y-91465987D01*
X138659707Y-91195089D01*
X138327603Y-90911424D01*
X138002592Y-90613676D01*
X137683251Y-90300529D01*
X137368158Y-89970664D01*
X137055890Y-89622765D01*
X136963427Y-89515710D01*
X136905868Y-89448337D01*
X136854736Y-89388064D01*
X136808096Y-89332481D01*
X136764011Y-89279177D01*
X136720545Y-89225743D01*
X136675762Y-89169767D01*
X136627725Y-89108841D01*
X136574498Y-89040553D01*
X136514144Y-88962494D01*
X136444728Y-88872253D01*
X136407363Y-88823568D01*
X136347752Y-88746059D01*
X136298582Y-88682701D01*
X136258428Y-88631836D01*
X136225869Y-88591807D01*
X136199479Y-88560955D01*
X136177835Y-88537621D01*
X136159513Y-88520149D01*
X136143090Y-88506880D01*
X136127141Y-88496156D01*
X136125171Y-88494949D01*
X136071044Y-88468677D01*
X136020050Y-88459258D01*
X135967937Y-88466710D01*
G37*
X135967937Y-88466710D02*
X135910457Y-88491053D01*
X135901454Y-88495969D01*
X135880146Y-88508398D01*
X135861797Y-88521019D01*
X135844260Y-88536264D01*
X135825390Y-88556563D01*
X135803042Y-88584350D01*
X135775070Y-88622055D01*
X135739327Y-88672109D01*
X135712722Y-88709846D01*
X135620572Y-88837667D01*
X135516928Y-88975799D01*
X135404516Y-89120825D01*
X135286062Y-89269326D01*
X135164291Y-89417882D01*
X135041929Y-89563076D01*
X134925635Y-89697033D01*
X134811296Y-89824203D01*
X134685592Y-89959635D01*
X134551210Y-90100657D01*
X134410837Y-90244597D01*
X134267159Y-90388785D01*
X134122862Y-90530547D01*
X133980633Y-90667212D01*
X133843158Y-90796108D01*
X133713124Y-90914564D01*
X133610424Y-91005072D01*
X133517148Y-91084640D01*
X133417153Y-91167871D01*
X133312350Y-91253305D01*
X133204647Y-91339483D01*
X133095956Y-91424948D01*
X132988186Y-91508240D01*
X132883247Y-91587901D01*
X132783050Y-91662473D01*
X132689504Y-91730497D01*
X132604519Y-91790514D01*
X132530006Y-91841066D01*
X132467875Y-91880694D01*
X132449045Y-91891925D01*
X132401100Y-91929929D01*
X132359897Y-91982215D01*
X132329509Y-92043479D01*
X132326800Y-92051132D01*
X132313484Y-92103712D01*
X132313643Y-92149310D01*
X132327751Y-92195832D01*
X132336644Y-92214947D01*
X132356978Y-92248182D01*
X132385087Y-92279791D01*
X132423662Y-92312044D01*
X132475396Y-92347209D01*
X132538089Y-92384752D01*
X132568869Y-92404011D01*
X132612892Y-92433776D01*
X132667849Y-92472350D01*
X132731436Y-92518035D01*
X132801344Y-92569133D01*
X132875268Y-92623947D01*
X132950900Y-92680779D01*
X133025933Y-92737930D01*
X133098062Y-92793703D01*
X133160735Y-92843025D01*
X133361875Y-93005703D01*
X133554054Y-93167071D01*
X133741060Y-93330523D01*
X133926683Y-93499456D01*
X134114712Y-93677266D01*
X134308936Y-93867351D01*
X134357192Y-93915475D01*
X134555622Y-94116951D01*
X134740182Y-94310654D01*
X134913532Y-94499651D01*
X135078334Y-94687007D01*
X135237247Y-94875791D01*
X135392930Y-95069067D01*
X135548045Y-95269903D01*
X135648148Y-95403685D01*
X135708217Y-95484563D01*
X135758126Y-95550921D01*
X135799182Y-95604341D01*
X135832692Y-95646405D01*
X135859960Y-95678695D01*
X135882293Y-95702793D01*
X135900999Y-95720280D01*
X135917382Y-95732738D01*
X135922694Y-95736133D01*
X135960269Y-95749581D01*
X136009514Y-95753524D01*
X136064781Y-95747987D01*
X136113902Y-95735297D01*
X136157304Y-95716801D01*
X136191840Y-95692053D01*
X136222611Y-95656541D01*
X136248643Y-95616175D01*
X136282376Y-95562378D01*
X136327264Y-95495717D01*
X136381635Y-95418369D01*
X136443822Y-95332513D01*
X136512154Y-95240326D01*
X136584961Y-95143987D01*
X136660575Y-95045672D01*
X136737324Y-94947561D01*
X136813539Y-94851830D01*
X136887551Y-94760657D01*
X136957689Y-94676221D01*
X137022285Y-94600699D01*
X137059685Y-94558340D01*
X137332443Y-94260320D01*
X137601529Y-93979174D01*
X137869171Y-93712908D01*
X138137596Y-93459532D01*
X138409032Y-93217052D01*
X138685709Y-92983477D01*
X138969853Y-92756814D01*
X139263694Y-92535071D01*
X139560152Y-92322756D01*
X139610241Y-92285625D01*
X139646444Y-92252910D01*
X139672637Y-92220363D01*
X139692701Y-92183736D01*
X139697828Y-92171982D01*
X139710859Y-92117498D01*
X138749406Y-92117498D01*
X138748479Y-92155674D01*
X138745228Y-92190127D01*
X138738529Y-92223043D01*
X138727261Y-92256612D01*
X138710302Y-92293020D01*
X138686530Y-92334455D01*
X138654824Y-92383105D01*
X138614061Y-92441158D01*
X138563119Y-92510801D01*
X138513731Y-92577070D01*
X138406708Y-92716562D01*
X138295287Y-92854800D01*
X138178228Y-92993077D01*
X138054293Y-93132680D01*
X137922243Y-93274902D01*
X137780838Y-93421031D01*
X137628840Y-93572358D01*
X137465010Y-93730173D01*
X137288109Y-93895765D01*
X137096897Y-94070426D01*
X136970735Y-94183729D01*
X136839837Y-94298293D01*
X136714511Y-94403390D01*
X136595604Y-94498446D01*
X136483964Y-94582884D01*
X136380439Y-94656130D01*
X136285877Y-94717607D01*
X136201126Y-94766742D01*
X136127033Y-94802957D01*
X136064446Y-94825678D01*
X136014214Y-94834330D01*
X136012058Y-94834383D01*
X135992090Y-94832532D01*
X135960491Y-94827404D01*
X135931653Y-94821686D01*
X135885442Y-94809168D01*
X135836507Y-94790413D01*
X135783132Y-94764374D01*
X135723600Y-94730004D01*
X135656196Y-94686253D01*
X135579202Y-94632075D01*
X135490903Y-94566421D01*
X135404237Y-94499688D01*
X135221262Y-94352411D01*
X135031308Y-94190754D01*
X134837236Y-94017479D01*
X134641906Y-93835350D01*
X134448177Y-93647130D01*
X134258912Y-93455582D01*
X134076970Y-93263469D01*
X133905211Y-93073555D01*
X133789793Y-92940128D01*
X133696376Y-92828700D01*
X133615537Y-92729525D01*
X133545976Y-92640778D01*
X133486395Y-92560633D01*
X133435496Y-92487268D01*
X133391979Y-92418856D01*
X133354546Y-92353573D01*
X133321898Y-92289595D01*
X133312417Y-92269462D01*
X133295225Y-92230756D01*
X133285125Y-92201344D01*
X133280564Y-92173282D01*
X133279992Y-92138627D01*
X133281028Y-92108716D01*
X133283414Y-92072107D01*
X133288062Y-92038370D01*
X133296064Y-92005490D01*
X133308509Y-91971456D01*
X133326488Y-91934254D01*
X133351092Y-91891873D01*
X133383412Y-91842298D01*
X133424537Y-91783518D01*
X133475559Y-91713518D01*
X133537568Y-91630288D01*
X133547248Y-91617386D01*
X133651934Y-91480190D01*
X133755446Y-91349365D01*
X133861162Y-91220870D01*
X133972456Y-91090666D01*
X134092704Y-90954710D01*
X134194439Y-90842557D01*
X134241767Y-90791748D01*
X134297915Y-90732919D01*
X134360789Y-90668144D01*
X134428297Y-90599500D01*
X134498343Y-90529063D01*
X134568834Y-90458909D01*
X134637675Y-90391114D01*
X134702774Y-90327754D01*
X134762035Y-90270904D01*
X134813364Y-90222642D01*
X134854669Y-90185042D01*
X134877571Y-90165285D01*
X134909705Y-90138163D01*
X134952174Y-90101588D01*
X135000632Y-90059342D01*
X135050732Y-90015205D01*
X135080178Y-89989026D01*
X135167114Y-89913162D01*
X135265255Y-89830503D01*
X135369410Y-89745297D01*
X135474387Y-89661786D01*
X135574997Y-89584219D01*
X135577194Y-89582556D01*
X135669113Y-89520087D01*
X135762448Y-89469915D01*
X135854630Y-89432935D01*
X135943091Y-89410045D01*
X136025262Y-89402140D01*
X136081519Y-89406636D01*
X136127445Y-89416846D01*
X136171611Y-89432289D01*
X136217768Y-89454880D01*
X136269667Y-89486535D01*
X136331059Y-89529168D01*
X136353163Y-89545325D01*
X136467006Y-89630092D01*
X136573207Y-89710975D01*
X136674029Y-89789905D01*
X136771735Y-89868815D01*
X136868590Y-89949637D01*
X136966855Y-90034303D01*
X137068796Y-90124746D01*
X137176674Y-90222897D01*
X137292755Y-90330689D01*
X137419300Y-90450054D01*
X137474496Y-90502560D01*
X137603734Y-90627772D01*
X137731311Y-90755274D01*
X137856132Y-90883791D01*
X137977101Y-91012046D01*
X138093126Y-91138764D01*
X138203109Y-91262668D01*
X138305957Y-91382483D01*
X138400575Y-91496931D01*
X138485868Y-91604737D01*
X138560740Y-91704625D01*
X138624098Y-91795318D01*
X138674846Y-91875540D01*
X138711889Y-91944015D01*
X138712830Y-91945985D01*
X138730352Y-91984238D01*
X138741207Y-92013927D01*
X138746955Y-92042372D01*
X138749158Y-92076894D01*
X138749406Y-92117498D01*
X139710859Y-92117498D01*
X139711457Y-92114999D01*
X139706479Y-92056756D01*
X139683697Y-91999745D01*
X139643912Y-91946457D01*
X139617210Y-91921412D01*
X139596422Y-91905001D01*
X139562210Y-91879165D01*
X139517284Y-91845900D01*
X139464355Y-91807199D01*
X139406133Y-91765058D01*
X139350885Y-91725436D01*
X139000327Y-91465987D01*
X138659707Y-91195089D01*
X138327603Y-90911424D01*
X138002592Y-90613676D01*
X137683251Y-90300529D01*
X137368158Y-89970664D01*
X137055890Y-89622765D01*
X136963427Y-89515710D01*
X136905868Y-89448337D01*
X136854736Y-89388064D01*
X136808096Y-89332481D01*
X136764011Y-89279177D01*
X136720545Y-89225743D01*
X136675762Y-89169767D01*
X136627725Y-89108841D01*
X136574498Y-89040553D01*
X136514144Y-88962494D01*
X136444728Y-88872253D01*
X136407363Y-88823568D01*
X136347752Y-88746059D01*
X136298582Y-88682701D01*
X136258428Y-88631836D01*
X136225869Y-88591807D01*
X136199479Y-88560955D01*
X136177835Y-88537621D01*
X136159513Y-88520149D01*
X136143090Y-88506880D01*
X136127141Y-88496156D01*
X136125171Y-88494949D01*
X136071044Y-88468677D01*
X136020050Y-88459258D01*
X135967937Y-88466710D01*
G36*
X132300891Y-96594463D02*
G01*
X132891416Y-96597012D01*
X133481942Y-96599561D01*
X133481942Y-97093724D01*
X132399724Y-97098834D01*
X132399724Y-97573062D01*
X133486883Y-97573062D01*
X133486883Y-98086992D01*
X132300891Y-98086992D01*
X132300891Y-98561389D01*
X134168829Y-98561389D01*
X134168829Y-96120222D01*
X132300891Y-96120222D01*
X132300891Y-96594463D01*
G37*
X132300891Y-96594463D02*
X132891416Y-96597012D01*
X133481942Y-96599561D01*
X133481942Y-97093724D01*
X132399724Y-97098834D01*
X132399724Y-97573062D01*
X133486883Y-97573062D01*
X133486883Y-98086992D01*
X132300891Y-98086992D01*
X132300891Y-98561389D01*
X134168829Y-98561389D01*
X134168829Y-96120222D01*
X132300891Y-96120222D01*
X132300891Y-96594463D01*
G36*
X134534510Y-96594619D02*
G01*
X135720502Y-96594619D01*
X135720502Y-97098666D01*
X134633342Y-97098666D01*
X134633342Y-97573062D01*
X135720502Y-97573062D01*
X135720502Y-98086992D01*
X134534510Y-98086992D01*
X134534510Y-98561389D01*
X136402447Y-98561389D01*
X136402447Y-96120222D01*
X134534510Y-96120222D01*
X134534510Y-96594619D01*
G37*
X134534510Y-96594619D02*
X135720502Y-96594619D01*
X135720502Y-97098666D01*
X134633342Y-97098666D01*
X134633342Y-97573062D01*
X135720502Y-97573062D01*
X135720502Y-98086992D01*
X134534510Y-98086992D01*
X134534510Y-98561389D01*
X136402447Y-98561389D01*
X136402447Y-96120222D01*
X134534510Y-96120222D01*
X134534510Y-96594619D01*
G36*
X136778012Y-96594619D02*
G01*
X137954121Y-96594619D01*
X137954121Y-97098666D01*
X136866961Y-97098666D01*
X136866961Y-97573062D01*
X137954121Y-97573062D01*
X137954121Y-98086992D01*
X136778012Y-98086992D01*
X136778012Y-98561389D01*
X138636066Y-98561389D01*
X138636066Y-96120222D01*
X136778012Y-96120222D01*
X136778012Y-96594619D01*
G37*
X136778012Y-96594619D02*
X137954121Y-96594619D01*
X137954121Y-97098666D01*
X136866961Y-97098666D01*
X136866961Y-97573062D01*
X137954121Y-97573062D01*
X137954121Y-98086992D01*
X136778012Y-98086992D01*
X136778012Y-98561389D01*
X138636066Y-98561389D01*
X138636066Y-96120222D01*
X136778012Y-96120222D01*
X136778012Y-96594619D01*
G36*
X138991864Y-98561389D02*
G01*
X139663926Y-98561389D01*
X139663926Y-96120222D01*
X138991864Y-96120222D01*
X138991864Y-98561389D01*
G37*
X138991864Y-98561389D02*
X139663926Y-98561389D01*
X139663926Y-96120222D01*
X138991864Y-96120222D01*
X138991864Y-98561389D01*
G36*
X133477000Y-99282868D02*
G01*
X134030463Y-99282868D01*
X134030463Y-99470650D01*
X133595599Y-99470650D01*
X133595599Y-99707848D01*
X134030463Y-99707848D01*
X134030463Y-99905514D01*
X133477000Y-99905514D01*
X133477000Y-100132829D01*
X134287428Y-100132829D01*
X134287428Y-99045669D01*
X133477000Y-99045669D01*
X133477000Y-99282868D01*
G37*
X133477000Y-99282868D02*
X134030463Y-99282868D01*
X134030463Y-99470650D01*
X133595599Y-99470650D01*
X133595599Y-99707848D01*
X134030463Y-99707848D01*
X134030463Y-99905514D01*
X133477000Y-99905514D01*
X133477000Y-100132829D01*
X134287428Y-100132829D01*
X134287428Y-99045669D01*
X133477000Y-99045669D01*
X133477000Y-99282868D01*
G36*
X134465327Y-99282868D02*
G01*
X134880424Y-99282868D01*
X134880424Y-100132829D01*
X135137389Y-100132829D01*
X135137389Y-99282868D01*
X135552486Y-99282868D01*
X135552486Y-99045669D01*
X134465327Y-99045669D01*
X134465327Y-99282868D01*
G37*
X134465327Y-99282868D02*
X134880424Y-99282868D01*
X134880424Y-100132829D01*
X135137389Y-100132829D01*
X135137389Y-99282868D01*
X135552486Y-99282868D01*
X135552486Y-99045669D01*
X134465327Y-99045669D01*
X134465327Y-99282868D01*
G36*
X135992918Y-99047819D02*
G01*
X135894114Y-99050611D01*
X135723702Y-99406409D01*
X135681803Y-99493889D01*
X135638674Y-99583936D01*
X135595972Y-99673093D01*
X135555350Y-99757906D01*
X135518464Y-99834920D01*
X135486967Y-99900681D01*
X135464534Y-99947518D01*
X135375778Y-100132829D01*
X135666751Y-100132829D01*
X135703429Y-100058704D01*
X135740107Y-99984580D01*
X136264243Y-99984580D01*
X136300921Y-100058704D01*
X136337599Y-100132829D01*
X136484264Y-100132829D01*
X136535202Y-100132361D01*
X136577964Y-100131072D01*
X136609228Y-100129133D01*
X136625672Y-100126717D01*
X136627315Y-100125417D01*
X136622393Y-100115466D01*
X136609458Y-100089357D01*
X136589281Y-100048642D01*
X136562630Y-99994871D01*
X136530274Y-99929595D01*
X136492982Y-99854366D01*
X136451522Y-99770734D01*
X136449745Y-99767148D01*
X136153980Y-99767148D01*
X136001482Y-99767148D01*
X135949102Y-99766695D01*
X135904474Y-99765445D01*
X135870970Y-99763561D01*
X135851959Y-99761208D01*
X135848900Y-99759736D01*
X135852862Y-99748375D01*
X135863707Y-99722783D01*
X135879772Y-99686550D01*
X135899393Y-99643268D01*
X135920908Y-99596529D01*
X135942652Y-99549924D01*
X135962963Y-99507044D01*
X135980178Y-99471481D01*
X135992632Y-99446826D01*
X135998407Y-99436920D01*
X136007244Y-99437815D01*
X136015754Y-99451745D01*
X136022870Y-99468749D01*
X136036393Y-99500117D01*
X136054711Y-99542146D01*
X136076214Y-99591132D01*
X136089554Y-99621370D01*
X136153980Y-99767148D01*
X136449745Y-99767148D01*
X136406664Y-99680251D01*
X136359176Y-99584468D01*
X136357712Y-99581515D01*
X136091723Y-99045026D01*
X135992918Y-99047819D01*
G37*
X135992918Y-99047819D02*
X135894114Y-99050611D01*
X135723702Y-99406409D01*
X135681803Y-99493889D01*
X135638674Y-99583936D01*
X135595972Y-99673093D01*
X135555350Y-99757906D01*
X135518464Y-99834920D01*
X135486967Y-99900681D01*
X135464534Y-99947518D01*
X135375778Y-100132829D01*
X135666751Y-100132829D01*
X135703429Y-100058704D01*
X135740107Y-99984580D01*
X136264243Y-99984580D01*
X136300921Y-100058704D01*
X136337599Y-100132829D01*
X136484264Y-100132829D01*
X136535202Y-100132361D01*
X136577964Y-100131072D01*
X136609228Y-100129133D01*
X136625672Y-100126717D01*
X136627315Y-100125417D01*
X136622393Y-100115466D01*
X136609458Y-100089357D01*
X136589281Y-100048642D01*
X136562630Y-99994871D01*
X136530274Y-99929595D01*
X136492982Y-99854366D01*
X136451522Y-99770734D01*
X136449745Y-99767148D01*
X136153980Y-99767148D01*
X136001482Y-99767148D01*
X135949102Y-99766695D01*
X135904474Y-99765445D01*
X135870970Y-99763561D01*
X135851959Y-99761208D01*
X135848900Y-99759736D01*
X135852862Y-99748375D01*
X135863707Y-99722783D01*
X135879772Y-99686550D01*
X135899393Y-99643268D01*
X135920908Y-99596529D01*
X135942652Y-99549924D01*
X135962963Y-99507044D01*
X135980178Y-99471481D01*
X135992632Y-99446826D01*
X135998407Y-99436920D01*
X136007244Y-99437815D01*
X136015754Y-99451745D01*
X136022870Y-99468749D01*
X136036393Y-99500117D01*
X136054711Y-99542146D01*
X136076214Y-99591132D01*
X136089554Y-99621370D01*
X136153980Y-99767148D01*
X136449745Y-99767148D01*
X136406664Y-99680251D01*
X136359176Y-99584468D01*
X136357712Y-99581515D01*
X136091723Y-99045026D01*
X135992918Y-99047819D01*
G36*
X137547882Y-99353994D02*
G01*
X137393813Y-99662320D01*
X137236632Y-99354195D01*
X137079451Y-99046071D01*
X136817545Y-99045669D01*
X136817545Y-100132829D01*
X137084075Y-100132829D01*
X137086705Y-99864929D01*
X137089335Y-99597028D01*
X137212593Y-99865343D01*
X137335851Y-100133659D01*
X137393490Y-100130773D01*
X137451130Y-100127887D01*
X137571672Y-99863437D01*
X137692214Y-99598986D01*
X137694844Y-99865907D01*
X137697473Y-100132829D01*
X137964004Y-100132829D01*
X137964004Y-99045669D01*
X137701950Y-99045669D01*
X137547882Y-99353994D01*
G37*
X137547882Y-99353994D02*
X137393813Y-99662320D01*
X137236632Y-99354195D01*
X137079451Y-99046071D01*
X136817545Y-99045669D01*
X136817545Y-100132829D01*
X137084075Y-100132829D01*
X137086705Y-99864929D01*
X137089335Y-99597028D01*
X137212593Y-99865343D01*
X137335851Y-100133659D01*
X137393490Y-100130773D01*
X137451130Y-100127887D01*
X137571672Y-99863437D01*
X137692214Y-99598986D01*
X137694844Y-99865907D01*
X137697473Y-100132829D01*
X137964004Y-100132829D01*
X137964004Y-99045669D01*
X137701950Y-99045669D01*
X137547882Y-99353994D01*
G36*
X138211085Y-100132829D02*
G01*
X138468050Y-100132829D01*
X138468050Y-99045669D01*
X138211085Y-99045669D01*
X138211085Y-100132829D01*
G37*
X138211085Y-100132829D02*
X138468050Y-100132829D01*
X138468050Y-99045669D01*
X138211085Y-99045669D01*
X138211085Y-100132829D01*
G36*
X132703266Y-99021443D02*
G01*
X132609962Y-99040843D01*
X132518920Y-99075792D01*
X132434081Y-99124589D01*
X132359385Y-99185531D01*
X132325448Y-99221945D01*
X132301004Y-99250995D01*
X132395420Y-99311406D01*
X132433601Y-99335471D01*
X132465653Y-99354987D01*
X132487962Y-99367799D01*
X132496698Y-99371817D01*
X132507828Y-99366508D01*
X132529684Y-99352739D01*
X132551643Y-99337632D01*
X132618336Y-99299532D01*
X132689645Y-99278104D01*
X132766903Y-99271828D01*
X132811658Y-99273695D01*
X132847209Y-99280557D01*
X132883949Y-99294810D01*
X132900119Y-99302532D01*
X132965880Y-99344676D01*
X133016898Y-99397333D01*
X133053174Y-99457851D01*
X133074710Y-99523577D01*
X133081506Y-99591856D01*
X133073563Y-99660037D01*
X133050882Y-99725467D01*
X133013463Y-99785492D01*
X132961307Y-99837460D01*
X132899949Y-99876050D01*
X132861452Y-99893241D01*
X132828272Y-99902548D01*
X132790615Y-99906180D01*
X132764574Y-99906557D01*
X132692269Y-99901123D01*
X132628991Y-99883317D01*
X132566923Y-99850710D01*
X132550918Y-99840125D01*
X132519528Y-99821121D01*
X132496119Y-99811865D01*
X132486677Y-99812167D01*
X132473274Y-99820294D01*
X132447399Y-99836416D01*
X132413253Y-99857905D01*
X132387845Y-99873993D01*
X132301843Y-99928579D01*
X132332017Y-99966677D01*
X132363884Y-99999853D01*
X132407701Y-100036209D01*
X132457231Y-100071186D01*
X132506236Y-100100226D01*
X132531117Y-100112192D01*
X132598992Y-100135354D01*
X132674850Y-100151488D01*
X132751367Y-100159578D01*
X132821217Y-100158608D01*
X132844471Y-100155656D01*
X132887540Y-100145340D01*
X132939917Y-100128295D01*
X132993652Y-100107432D01*
X133040798Y-100085662D01*
X133052019Y-100079641D01*
X133085320Y-100057583D01*
X133124349Y-100026713D01*
X133161691Y-99992978D01*
X133168542Y-99986171D01*
X133233392Y-99907087D01*
X133281675Y-99819729D01*
X133313396Y-99726530D01*
X133328562Y-99629924D01*
X133327178Y-99532342D01*
X133309250Y-99436218D01*
X133274784Y-99343985D01*
X133223785Y-99258076D01*
X133166620Y-99191018D01*
X133083417Y-99121229D01*
X132991205Y-99068926D01*
X132890919Y-99034538D01*
X132794891Y-99019292D01*
X132703266Y-99021443D01*
G37*
X132703266Y-99021443D02*
X132609962Y-99040843D01*
X132518920Y-99075792D01*
X132434081Y-99124589D01*
X132359385Y-99185531D01*
X132325448Y-99221945D01*
X132301004Y-99250995D01*
X132395420Y-99311406D01*
X132433601Y-99335471D01*
X132465653Y-99354987D01*
X132487962Y-99367799D01*
X132496698Y-99371817D01*
X132507828Y-99366508D01*
X132529684Y-99352739D01*
X132551643Y-99337632D01*
X132618336Y-99299532D01*
X132689645Y-99278104D01*
X132766903Y-99271828D01*
X132811658Y-99273695D01*
X132847209Y-99280557D01*
X132883949Y-99294810D01*
X132900119Y-99302532D01*
X132965880Y-99344676D01*
X133016898Y-99397333D01*
X133053174Y-99457851D01*
X133074710Y-99523577D01*
X133081506Y-99591856D01*
X133073563Y-99660037D01*
X133050882Y-99725467D01*
X133013463Y-99785492D01*
X132961307Y-99837460D01*
X132899949Y-99876050D01*
X132861452Y-99893241D01*
X132828272Y-99902548D01*
X132790615Y-99906180D01*
X132764574Y-99906557D01*
X132692269Y-99901123D01*
X132628991Y-99883317D01*
X132566923Y-99850710D01*
X132550918Y-99840125D01*
X132519528Y-99821121D01*
X132496119Y-99811865D01*
X132486677Y-99812167D01*
X132473274Y-99820294D01*
X132447399Y-99836416D01*
X132413253Y-99857905D01*
X132387845Y-99873993D01*
X132301843Y-99928579D01*
X132332017Y-99966677D01*
X132363884Y-99999853D01*
X132407701Y-100036209D01*
X132457231Y-100071186D01*
X132506236Y-100100226D01*
X132531117Y-100112192D01*
X132598992Y-100135354D01*
X132674850Y-100151488D01*
X132751367Y-100159578D01*
X132821217Y-100158608D01*
X132844471Y-100155656D01*
X132887540Y-100145340D01*
X132939917Y-100128295D01*
X132993652Y-100107432D01*
X133040798Y-100085662D01*
X133052019Y-100079641D01*
X133085320Y-100057583D01*
X133124349Y-100026713D01*
X133161691Y-99992978D01*
X133168542Y-99986171D01*
X133233392Y-99907087D01*
X133281675Y-99819729D01*
X133313396Y-99726530D01*
X133328562Y-99629924D01*
X133327178Y-99532342D01*
X133309250Y-99436218D01*
X133274784Y-99343985D01*
X133223785Y-99258076D01*
X133166620Y-99191018D01*
X133083417Y-99121229D01*
X132991205Y-99068926D01*
X132890919Y-99034538D01*
X132794891Y-99019292D01*
X132703266Y-99021443D01*
G36*
X139048324Y-99021443D02*
G01*
X138955020Y-99040843D01*
X138863978Y-99075792D01*
X138779139Y-99124589D01*
X138704443Y-99185531D01*
X138670507Y-99221945D01*
X138646063Y-99250995D01*
X138740478Y-99311406D01*
X138778660Y-99335471D01*
X138810711Y-99354987D01*
X138833020Y-99367799D01*
X138841756Y-99371817D01*
X138852887Y-99366508D01*
X138874743Y-99352739D01*
X138896702Y-99337632D01*
X138963394Y-99299532D01*
X139034703Y-99278104D01*
X139111962Y-99271828D01*
X139156716Y-99273695D01*
X139192267Y-99280557D01*
X139229008Y-99294810D01*
X139245177Y-99302532D01*
X139310938Y-99344676D01*
X139361956Y-99397333D01*
X139398233Y-99457851D01*
X139419769Y-99523577D01*
X139426565Y-99591856D01*
X139418622Y-99660037D01*
X139395940Y-99725467D01*
X139358521Y-99785492D01*
X139306365Y-99837460D01*
X139245007Y-99876050D01*
X139206510Y-99893241D01*
X139173331Y-99902548D01*
X139135673Y-99906180D01*
X139109633Y-99906557D01*
X139037328Y-99901123D01*
X138974049Y-99883317D01*
X138911982Y-99850710D01*
X138895976Y-99840125D01*
X138864586Y-99821121D01*
X138841177Y-99811865D01*
X138831735Y-99812167D01*
X138818332Y-99820294D01*
X138792457Y-99836416D01*
X138758311Y-99857905D01*
X138732904Y-99873993D01*
X138646901Y-99928579D01*
X138677075Y-99966677D01*
X138708942Y-99999853D01*
X138752760Y-100036209D01*
X138802290Y-100071186D01*
X138851294Y-100100226D01*
X138876175Y-100112192D01*
X138944051Y-100135354D01*
X139019909Y-100151488D01*
X139096425Y-100159578D01*
X139166275Y-100158608D01*
X139189529Y-100155656D01*
X139232599Y-100145340D01*
X139284975Y-100128295D01*
X139338711Y-100107432D01*
X139385856Y-100085662D01*
X139397078Y-100079641D01*
X139430378Y-100057583D01*
X139469407Y-100026713D01*
X139506750Y-99992978D01*
X139513600Y-99986171D01*
X139578450Y-99907087D01*
X139626733Y-99819729D01*
X139658455Y-99726530D01*
X139673621Y-99629924D01*
X139672236Y-99532342D01*
X139654308Y-99436218D01*
X139619842Y-99343985D01*
X139568844Y-99258076D01*
X139511679Y-99191018D01*
X139428475Y-99121229D01*
X139336264Y-99068926D01*
X139235977Y-99034538D01*
X139139949Y-99019292D01*
X139048324Y-99021443D01*
G37*
X139048324Y-99021443D02*
X138955020Y-99040843D01*
X138863978Y-99075792D01*
X138779139Y-99124589D01*
X138704443Y-99185531D01*
X138670507Y-99221945D01*
X138646063Y-99250995D01*
X138740478Y-99311406D01*
X138778660Y-99335471D01*
X138810711Y-99354987D01*
X138833020Y-99367799D01*
X138841756Y-99371817D01*
X138852887Y-99366508D01*
X138874743Y-99352739D01*
X138896702Y-99337632D01*
X138963394Y-99299532D01*
X139034703Y-99278104D01*
X139111962Y-99271828D01*
X139156716Y-99273695D01*
X139192267Y-99280557D01*
X139229008Y-99294810D01*
X139245177Y-99302532D01*
X139310938Y-99344676D01*
X139361956Y-99397333D01*
X139398233Y-99457851D01*
X139419769Y-99523577D01*
X139426565Y-99591856D01*
X139418622Y-99660037D01*
X139395940Y-99725467D01*
X139358521Y-99785492D01*
X139306365Y-99837460D01*
X139245007Y-99876050D01*
X139206510Y-99893241D01*
X139173331Y-99902548D01*
X139135673Y-99906180D01*
X139109633Y-99906557D01*
X139037328Y-99901123D01*
X138974049Y-99883317D01*
X138911982Y-99850710D01*
X138895976Y-99840125D01*
X138864586Y-99821121D01*
X138841177Y-99811865D01*
X138831735Y-99812167D01*
X138818332Y-99820294D01*
X138792457Y-99836416D01*
X138758311Y-99857905D01*
X138732904Y-99873993D01*
X138646901Y-99928579D01*
X138677075Y-99966677D01*
X138708942Y-99999853D01*
X138752760Y-100036209D01*
X138802290Y-100071186D01*
X138851294Y-100100226D01*
X138876175Y-100112192D01*
X138944051Y-100135354D01*
X139019909Y-100151488D01*
X139096425Y-100159578D01*
X139166275Y-100158608D01*
X139189529Y-100155656D01*
X139232599Y-100145340D01*
X139284975Y-100128295D01*
X139338711Y-100107432D01*
X139385856Y-100085662D01*
X139397078Y-100079641D01*
X139430378Y-100057583D01*
X139469407Y-100026713D01*
X139506750Y-99992978D01*
X139513600Y-99986171D01*
X139578450Y-99907087D01*
X139626733Y-99819729D01*
X139658455Y-99726530D01*
X139673621Y-99629924D01*
X139672236Y-99532342D01*
X139654308Y-99436218D01*
X139619842Y-99343985D01*
X139568844Y-99258076D01*
X139511679Y-99191018D01*
X139428475Y-99121229D01*
X139336264Y-99068926D01*
X139235977Y-99034538D01*
X139139949Y-99019292D01*
X139048324Y-99021443D01*
G36*
X168110103Y-90986389D02*
G01*
X168096067Y-91010766D01*
X168091873Y-91065601D01*
X168095227Y-91162519D01*
X168096339Y-91183209D01*
X168099709Y-91298347D01*
X168092141Y-91378760D01*
X168070119Y-91445049D01*
X168042876Y-91496395D01*
X167936964Y-91626681D01*
X167801209Y-91713405D01*
X167644814Y-91752901D01*
X167476981Y-91741502D01*
X167446717Y-91733889D01*
X167365069Y-91704826D01*
X167304930Y-91672395D01*
X167292398Y-91661213D01*
X167249487Y-91625661D01*
X167222835Y-91642767D01*
X167211900Y-91713026D01*
X167211549Y-91735170D01*
X167238641Y-91928740D01*
X167316665Y-92112807D01*
X167440742Y-92276640D01*
X167471335Y-92306670D01*
X167646692Y-92438587D01*
X167831166Y-92515440D01*
X168024709Y-92537218D01*
X168227274Y-92503910D01*
X168258252Y-92494222D01*
X168375224Y-92437495D01*
X168496011Y-92349365D01*
X168606847Y-92243059D01*
X168693964Y-92131805D01*
X168743595Y-92028831D01*
X168743948Y-92027550D01*
X168768840Y-91884499D01*
X168774470Y-91725401D01*
X168761651Y-91571573D01*
X168731191Y-91444334D01*
X168720802Y-91418930D01*
X168644548Y-91297121D01*
X168536927Y-91182442D01*
X168411395Y-91084978D01*
X168281408Y-91014815D01*
X168160422Y-90982039D01*
X168136275Y-90980846D01*
X168110103Y-90986389D01*
G37*
X168110103Y-90986389D02*
X168096067Y-91010766D01*
X168091873Y-91065601D01*
X168095227Y-91162519D01*
X168096339Y-91183209D01*
X168099709Y-91298347D01*
X168092141Y-91378760D01*
X168070119Y-91445049D01*
X168042876Y-91496395D01*
X167936964Y-91626681D01*
X167801209Y-91713405D01*
X167644814Y-91752901D01*
X167476981Y-91741502D01*
X167446717Y-91733889D01*
X167365069Y-91704826D01*
X167304930Y-91672395D01*
X167292398Y-91661213D01*
X167249487Y-91625661D01*
X167222835Y-91642767D01*
X167211900Y-91713026D01*
X167211549Y-91735170D01*
X167238641Y-91928740D01*
X167316665Y-92112807D01*
X167440742Y-92276640D01*
X167471335Y-92306670D01*
X167646692Y-92438587D01*
X167831166Y-92515440D01*
X168024709Y-92537218D01*
X168227274Y-92503910D01*
X168258252Y-92494222D01*
X168375224Y-92437495D01*
X168496011Y-92349365D01*
X168606847Y-92243059D01*
X168693964Y-92131805D01*
X168743595Y-92028831D01*
X168743948Y-92027550D01*
X168768840Y-91884499D01*
X168774470Y-91725401D01*
X168761651Y-91571573D01*
X168731191Y-91444334D01*
X168720802Y-91418930D01*
X168644548Y-91297121D01*
X168536927Y-91182442D01*
X168411395Y-91084978D01*
X168281408Y-91014815D01*
X168160422Y-90982039D01*
X168136275Y-90980846D01*
X168110103Y-90986389D01*
G36*
X167868386Y-88256402D02*
G01*
X167814749Y-88284029D01*
X167771639Y-88317970D01*
X167666148Y-88438065D01*
X167611705Y-88572236D01*
X167608557Y-88711833D01*
X167656947Y-88848208D01*
X167753183Y-88969063D01*
X167792824Y-89012715D01*
X167814731Y-89061749D01*
X167823960Y-89133967D01*
X167825615Y-89223999D01*
X167825615Y-89411266D01*
X167637208Y-89429966D01*
X167270277Y-89491830D01*
X166903392Y-89601944D01*
X166551803Y-89754845D01*
X166265971Y-89921246D01*
X166135110Y-90018225D01*
X165983976Y-90146199D01*
X165824510Y-90293516D01*
X165668655Y-90448521D01*
X165528354Y-90599562D01*
X165415549Y-90734986D01*
X165374847Y-90790771D01*
X165208234Y-91069193D01*
X165066879Y-91375252D01*
X164961319Y-91685269D01*
X164939808Y-91768729D01*
X164906865Y-91912219D01*
X164881917Y-92037314D01*
X164863878Y-92155850D01*
X164851661Y-92279664D01*
X164844178Y-92420596D01*
X164840343Y-92590481D01*
X164839068Y-92801158D01*
X164839022Y-92866286D01*
X164839022Y-93492934D01*
X171175066Y-93492934D01*
X171175066Y-92913703D01*
X171169730Y-92582024D01*
X171152439Y-92294035D01*
X171121267Y-92038509D01*
X171081923Y-91842294D01*
X169275587Y-91842294D01*
X169270829Y-91951302D01*
X169256035Y-92043232D01*
X169229113Y-92137301D01*
X169222270Y-92157537D01*
X169108706Y-92410033D01*
X168955656Y-92623661D01*
X168764359Y-92797118D01*
X168536053Y-92929106D01*
X168456137Y-92962086D01*
X168345847Y-93001788D01*
X168258298Y-93026000D01*
X168173251Y-93037686D01*
X168070467Y-93039807D01*
X167950110Y-93036148D01*
X167814829Y-93029101D01*
X167715846Y-93017565D01*
X167633634Y-92996933D01*
X167548669Y-92962597D01*
X167464259Y-92921492D01*
X167225241Y-92773331D01*
X167030753Y-92592429D01*
X166881780Y-92379916D01*
X166779305Y-92136921D01*
X166778382Y-92133893D01*
X166758703Y-92038515D01*
X166744349Y-91909200D01*
X166737588Y-91767749D01*
X166737346Y-91739510D01*
X166756465Y-91491085D01*
X166817451Y-91271641D01*
X166924815Y-91070054D01*
X167083071Y-90875200D01*
X167091553Y-90866316D01*
X167263497Y-90707646D01*
X167435723Y-90594500D01*
X167619975Y-90522461D01*
X167827997Y-90487115D01*
X168071532Y-90484044D01*
X168103966Y-90485649D01*
X168240633Y-90495452D01*
X168342087Y-90510459D01*
X168428935Y-90535705D01*
X168521789Y-90576227D01*
X168567172Y-90598828D01*
X168781173Y-90736455D01*
X168969049Y-90914543D01*
X169119089Y-91121067D01*
X169170222Y-91218099D01*
X169214153Y-91318381D01*
X169242437Y-91405075D01*
X169259262Y-91497812D01*
X169268819Y-91616225D01*
X169272402Y-91696988D01*
X169275587Y-91842294D01*
X171081923Y-91842294D01*
X171074288Y-91804219D01*
X171009575Y-91579940D01*
X170925205Y-91354444D01*
X170895560Y-91284390D01*
X170800981Y-91083370D01*
X170697820Y-90902285D01*
X170577105Y-90728320D01*
X170429864Y-90548662D01*
X170247124Y-90350498D01*
X170227157Y-90329795D01*
X169930527Y-90062817D01*
X169599771Y-89837448D01*
X169241282Y-89656902D01*
X168861452Y-89524389D01*
X168466676Y-89443121D01*
X168460372Y-89442268D01*
X168188472Y-89405778D01*
X168188472Y-89224544D01*
X168190752Y-89123280D01*
X168202615Y-89056804D01*
X168231598Y-89004120D01*
X168285237Y-88944229D01*
X168291324Y-88937980D01*
X168352778Y-88867858D01*
X168385759Y-88802994D01*
X168401050Y-88718059D01*
X168404704Y-88671638D01*
X168408152Y-88577677D01*
X168397634Y-88514025D01*
X168364838Y-88456493D01*
X168306968Y-88387173D01*
X168241305Y-88317036D01*
X168186256Y-88278475D01*
X168118670Y-88260091D01*
X168031759Y-88251644D01*
X167933399Y-88247475D01*
X167868386Y-88256402D01*
G37*
X167868386Y-88256402D02*
X167814749Y-88284029D01*
X167771639Y-88317970D01*
X167666148Y-88438065D01*
X167611705Y-88572236D01*
X167608557Y-88711833D01*
X167656947Y-88848208D01*
X167753183Y-88969063D01*
X167792824Y-89012715D01*
X167814731Y-89061749D01*
X167823960Y-89133967D01*
X167825615Y-89223999D01*
X167825615Y-89411266D01*
X167637208Y-89429966D01*
X167270277Y-89491830D01*
X166903392Y-89601944D01*
X166551803Y-89754845D01*
X166265971Y-89921246D01*
X166135110Y-90018225D01*
X165983976Y-90146199D01*
X165824510Y-90293516D01*
X165668655Y-90448521D01*
X165528354Y-90599562D01*
X165415549Y-90734986D01*
X165374847Y-90790771D01*
X165208234Y-91069193D01*
X165066879Y-91375252D01*
X164961319Y-91685269D01*
X164939808Y-91768729D01*
X164906865Y-91912219D01*
X164881917Y-92037314D01*
X164863878Y-92155850D01*
X164851661Y-92279664D01*
X164844178Y-92420596D01*
X164840343Y-92590481D01*
X164839068Y-92801158D01*
X164839022Y-92866286D01*
X164839022Y-93492934D01*
X171175066Y-93492934D01*
X171175066Y-92913703D01*
X171169730Y-92582024D01*
X171152439Y-92294035D01*
X171121267Y-92038509D01*
X171081923Y-91842294D01*
X169275587Y-91842294D01*
X169270829Y-91951302D01*
X169256035Y-92043232D01*
X169229113Y-92137301D01*
X169222270Y-92157537D01*
X169108706Y-92410033D01*
X168955656Y-92623661D01*
X168764359Y-92797118D01*
X168536053Y-92929106D01*
X168456137Y-92962086D01*
X168345847Y-93001788D01*
X168258298Y-93026000D01*
X168173251Y-93037686D01*
X168070467Y-93039807D01*
X167950110Y-93036148D01*
X167814829Y-93029101D01*
X167715846Y-93017565D01*
X167633634Y-92996933D01*
X167548669Y-92962597D01*
X167464259Y-92921492D01*
X167225241Y-92773331D01*
X167030753Y-92592429D01*
X166881780Y-92379916D01*
X166779305Y-92136921D01*
X166778382Y-92133893D01*
X166758703Y-92038515D01*
X166744349Y-91909200D01*
X166737588Y-91767749D01*
X166737346Y-91739510D01*
X166756465Y-91491085D01*
X166817451Y-91271641D01*
X166924815Y-91070054D01*
X167083071Y-90875200D01*
X167091553Y-90866316D01*
X167263497Y-90707646D01*
X167435723Y-90594500D01*
X167619975Y-90522461D01*
X167827997Y-90487115D01*
X168071532Y-90484044D01*
X168103966Y-90485649D01*
X168240633Y-90495452D01*
X168342087Y-90510459D01*
X168428935Y-90535705D01*
X168521789Y-90576227D01*
X168567172Y-90598828D01*
X168781173Y-90736455D01*
X168969049Y-90914543D01*
X169119089Y-91121067D01*
X169170222Y-91218099D01*
X169214153Y-91318381D01*
X169242437Y-91405075D01*
X169259262Y-91497812D01*
X169268819Y-91616225D01*
X169272402Y-91696988D01*
X169275587Y-91842294D01*
X171081923Y-91842294D01*
X171074288Y-91804219D01*
X171009575Y-91579940D01*
X170925205Y-91354444D01*
X170895560Y-91284390D01*
X170800981Y-91083370D01*
X170697820Y-90902285D01*
X170577105Y-90728320D01*
X170429864Y-90548662D01*
X170247124Y-90350498D01*
X170227157Y-90329795D01*
X169930527Y-90062817D01*
X169599771Y-89837448D01*
X169241282Y-89656902D01*
X168861452Y-89524389D01*
X168466676Y-89443121D01*
X168460372Y-89442268D01*
X168188472Y-89405778D01*
X168188472Y-89224544D01*
X168190752Y-89123280D01*
X168202615Y-89056804D01*
X168231598Y-89004120D01*
X168285237Y-88944229D01*
X168291324Y-88937980D01*
X168352778Y-88867858D01*
X168385759Y-88802994D01*
X168401050Y-88718059D01*
X168404704Y-88671638D01*
X168408152Y-88577677D01*
X168397634Y-88514025D01*
X168364838Y-88456493D01*
X168306968Y-88387173D01*
X168241305Y-88317036D01*
X168186256Y-88278475D01*
X168118670Y-88260091D01*
X168031759Y-88251644D01*
X167933399Y-88247475D01*
X167868386Y-88256402D01*
G36*
X167669797Y-94218944D02*
G01*
X167374314Y-94220250D01*
X167123426Y-94223344D01*
X166911520Y-94228980D01*
X166732980Y-94237912D01*
X166582194Y-94250892D01*
X166453547Y-94268675D01*
X166341425Y-94292015D01*
X166240213Y-94321665D01*
X166144299Y-94358379D01*
X166048068Y-94402911D01*
X165945905Y-94456014D01*
X165848013Y-94509671D01*
X165684265Y-94618857D01*
X165513094Y-94764620D01*
X165349087Y-94932236D01*
X165206833Y-95106979D01*
X165113201Y-95251396D01*
X165052346Y-95371345D01*
X164988314Y-95514476D01*
X164934543Y-95650676D01*
X164932593Y-95656121D01*
X164853082Y-95879418D01*
X164844741Y-97156396D01*
X164836401Y-98433374D01*
X171179239Y-98433374D01*
X171168004Y-97226176D01*
X171164710Y-96904378D01*
X171160837Y-96632439D01*
X171155665Y-96404396D01*
X171148475Y-96214282D01*
X171138546Y-96056134D01*
X171125158Y-95923986D01*
X171107592Y-95811875D01*
X171085127Y-95713835D01*
X171057043Y-95623902D01*
X171022620Y-95536112D01*
X170981138Y-95444499D01*
X170943545Y-95366808D01*
X170884683Y-95254783D01*
X170822540Y-95156692D01*
X170746904Y-95059086D01*
X170647563Y-94948514D01*
X170547044Y-94844608D01*
X170427390Y-94725442D01*
X170331960Y-94637583D01*
X170247444Y-94571013D01*
X170160533Y-94515716D01*
X170057919Y-94461674D01*
X170002758Y-94434945D01*
X169903314Y-94388107D01*
X169813674Y-94348568D01*
X169728157Y-94315711D01*
X169641085Y-94288919D01*
X169546779Y-94267571D01*
X169439561Y-94251052D01*
X169313752Y-94238742D01*
X169163673Y-94230024D01*
X168983645Y-94224280D01*
X168767990Y-94220892D01*
X168511029Y-94219241D01*
X168207083Y-94218710D01*
X168015490Y-94218671D01*
X167669797Y-94218944D01*
G37*
X167669797Y-94218944D02*
X167374314Y-94220250D01*
X167123426Y-94223344D01*
X166911520Y-94228980D01*
X166732980Y-94237912D01*
X166582194Y-94250892D01*
X166453547Y-94268675D01*
X166341425Y-94292015D01*
X166240213Y-94321665D01*
X166144299Y-94358379D01*
X166048068Y-94402911D01*
X165945905Y-94456014D01*
X165848013Y-94509671D01*
X165684265Y-94618857D01*
X165513094Y-94764620D01*
X165349087Y-94932236D01*
X165206833Y-95106979D01*
X165113201Y-95251396D01*
X165052346Y-95371345D01*
X164988314Y-95514476D01*
X164934543Y-95650676D01*
X164932593Y-95656121D01*
X164853082Y-95879418D01*
X164844741Y-97156396D01*
X164836401Y-98433374D01*
X171179239Y-98433374D01*
X171168004Y-97226176D01*
X171164710Y-96904378D01*
X171160837Y-96632439D01*
X171155665Y-96404396D01*
X171148475Y-96214282D01*
X171138546Y-96056134D01*
X171125158Y-95923986D01*
X171107592Y-95811875D01*
X171085127Y-95713835D01*
X171057043Y-95623902D01*
X171022620Y-95536112D01*
X170981138Y-95444499D01*
X170943545Y-95366808D01*
X170884683Y-95254783D01*
X170822540Y-95156692D01*
X170746904Y-95059086D01*
X170647563Y-94948514D01*
X170547044Y-94844608D01*
X170427390Y-94725442D01*
X170331960Y-94637583D01*
X170247444Y-94571013D01*
X170160533Y-94515716D01*
X170057919Y-94461674D01*
X170002758Y-94434945D01*
X169903314Y-94388107D01*
X169813674Y-94348568D01*
X169728157Y-94315711D01*
X169641085Y-94288919D01*
X169546779Y-94267571D01*
X169439561Y-94251052D01*
X169313752Y-94238742D01*
X169163673Y-94230024D01*
X168983645Y-94224280D01*
X168767990Y-94220892D01*
X168511029Y-94219241D01*
X168207083Y-94218710D01*
X168015490Y-94218671D01*
X167669797Y-94218944D01*
G36*
X164839022Y-99996451D02*
G01*
X171175066Y-99996451D01*
X171175066Y-99047440D01*
X164839022Y-99047440D01*
X164839022Y-99996451D01*
G37*
X164839022Y-99996451D02*
X171175066Y-99996451D01*
X171175066Y-99047440D01*
X164839022Y-99047440D01*
X164839022Y-99996451D01*
D11*
%TO.C,J1*%
X104414500Y-89602000D02*
X104414500Y-102422000D01*
X104414500Y-102422000D02*
X101754500Y-102422000D01*
X101754500Y-102422000D02*
X101754500Y-89602000D01*
X101754500Y-89602000D02*
X104414500Y-89602000D01*
X101754500Y-90552000D02*
X95754500Y-90552000D01*
X95754500Y-90552000D02*
X95754500Y-91312000D01*
X95754500Y-91312000D02*
X101754500Y-91312000D01*
X101754500Y-90612000D02*
X95754500Y-90612000D01*
X101754500Y-90732000D02*
X95754500Y-90732000D01*
X101754500Y-90852000D02*
X95754500Y-90852000D01*
X101754500Y-90972000D02*
X95754500Y-90972000D01*
X101754500Y-91092000D02*
X95754500Y-91092000D01*
X101754500Y-91212000D02*
X95754500Y-91212000D01*
X104744500Y-90552000D02*
X104414500Y-90552000D01*
X104744500Y-91312000D02*
X104414500Y-91312000D01*
X104414500Y-92202000D02*
X101754500Y-92202000D01*
X101754500Y-93092000D02*
X95754500Y-93092000D01*
X95754500Y-93092000D02*
X95754500Y-93852000D01*
X95754500Y-93852000D02*
X101754500Y-93852000D01*
X104811571Y-93092000D02*
X104414500Y-93092000D01*
X104811571Y-93852000D02*
X104414500Y-93852000D01*
X104414500Y-94742000D02*
X101754500Y-94742000D01*
X101754500Y-95632000D02*
X95754500Y-95632000D01*
X95754500Y-95632000D02*
X95754500Y-96392000D01*
X95754500Y-96392000D02*
X101754500Y-96392000D01*
X104811571Y-95632000D02*
X104414500Y-95632000D01*
X104811571Y-96392000D02*
X104414500Y-96392000D01*
X104414500Y-97282000D02*
X101754500Y-97282000D01*
X101754500Y-98172000D02*
X95754500Y-98172000D01*
X95754500Y-98172000D02*
X95754500Y-98932000D01*
X95754500Y-98932000D02*
X101754500Y-98932000D01*
X104811571Y-98172000D02*
X104414500Y-98172000D01*
X104811571Y-98932000D02*
X104414500Y-98932000D01*
X104414500Y-99822000D02*
X101754500Y-99822000D01*
X101754500Y-100712000D02*
X95754500Y-100712000D01*
X95754500Y-100712000D02*
X95754500Y-101472000D01*
X95754500Y-101472000D02*
X101754500Y-101472000D01*
X104811571Y-100712000D02*
X104414500Y-100712000D01*
X104811571Y-101472000D02*
X104414500Y-101472000D01*
X107124500Y-90932000D02*
X107124500Y-89662000D01*
X107124500Y-89662000D02*
X105854500Y-89662000D01*
%TO.C,U1*%
X135390000Y-75940000D02*
X135390000Y-86440000D01*
X104670000Y-75940000D02*
X135390000Y-75940000D01*
X104670000Y-86440000D02*
X104670000Y-75940000D01*
X135390000Y-86440000D02*
X104670000Y-86440000D01*
X135330000Y-78940000D02*
X135330000Y-80190000D01*
X104730000Y-78940000D02*
X135330000Y-78940000D01*
X104730000Y-83440000D02*
X104730000Y-78940000D01*
X135330000Y-83440000D02*
X104730000Y-83440000D01*
X135330000Y-82190000D02*
X135330000Y-83440000D01*
X135330000Y-80190000D02*
G75*
G03*
X135330000Y-82190000I0J-1000000D01*
G01*
%TO.C,C4*%
X134920000Y-72000000D02*
G75*
G03*
X134920000Y-72000000I-2120000J0D01*
G01*
X132800000Y-74080000D02*
X132800000Y-69920000D01*
X132840000Y-74080000D02*
X132840000Y-69920000D01*
X132880000Y-74079000D02*
X132880000Y-69921000D01*
X132920000Y-74077000D02*
X132920000Y-69923000D01*
X132960000Y-74074000D02*
X132960000Y-69926000D01*
X133000000Y-74071000D02*
X133000000Y-72840000D01*
X133000000Y-71160000D02*
X133000000Y-69929000D01*
X133040000Y-74067000D02*
X133040000Y-72840000D01*
X133040000Y-71160000D02*
X133040000Y-69933000D01*
X133080000Y-74062000D02*
X133080000Y-72840000D01*
X133080000Y-71160000D02*
X133080000Y-69938000D01*
X133120000Y-74056000D02*
X133120000Y-72840000D01*
X133120000Y-71160000D02*
X133120000Y-69944000D01*
X133160000Y-74050000D02*
X133160000Y-72840000D01*
X133160000Y-71160000D02*
X133160000Y-69950000D01*
X133200000Y-74042000D02*
X133200000Y-72840000D01*
X133200000Y-71160000D02*
X133200000Y-69958000D01*
X133240000Y-74034000D02*
X133240000Y-72840000D01*
X133240000Y-71160000D02*
X133240000Y-69966000D01*
X133280000Y-74025000D02*
X133280000Y-72840000D01*
X133280000Y-71160000D02*
X133280000Y-69975000D01*
X133320000Y-74016000D02*
X133320000Y-72840000D01*
X133320000Y-71160000D02*
X133320000Y-69984000D01*
X133360000Y-74005000D02*
X133360000Y-72840000D01*
X133360000Y-71160000D02*
X133360000Y-69995000D01*
X133400000Y-73994000D02*
X133400000Y-72840000D01*
X133400000Y-71160000D02*
X133400000Y-70006000D01*
X133440000Y-73982000D02*
X133440000Y-72840000D01*
X133440000Y-71160000D02*
X133440000Y-70018000D01*
X133480000Y-73968000D02*
X133480000Y-72840000D01*
X133480000Y-71160000D02*
X133480000Y-70032000D01*
X133521000Y-73954000D02*
X133521000Y-72840000D01*
X133521000Y-71160000D02*
X133521000Y-70046000D01*
X133561000Y-73940000D02*
X133561000Y-72840000D01*
X133561000Y-71160000D02*
X133561000Y-70060000D01*
X133601000Y-73924000D02*
X133601000Y-72840000D01*
X133601000Y-71160000D02*
X133601000Y-70076000D01*
X133641000Y-73907000D02*
X133641000Y-72840000D01*
X133641000Y-71160000D02*
X133641000Y-70093000D01*
X133681000Y-73889000D02*
X133681000Y-72840000D01*
X133681000Y-71160000D02*
X133681000Y-70111000D01*
X133721000Y-73870000D02*
X133721000Y-72840000D01*
X133721000Y-71160000D02*
X133721000Y-70130000D01*
X133761000Y-73851000D02*
X133761000Y-72840000D01*
X133761000Y-71160000D02*
X133761000Y-70149000D01*
X133801000Y-73830000D02*
X133801000Y-72840000D01*
X133801000Y-71160000D02*
X133801000Y-70170000D01*
X133841000Y-73808000D02*
X133841000Y-72840000D01*
X133841000Y-71160000D02*
X133841000Y-70192000D01*
X133881000Y-73785000D02*
X133881000Y-72840000D01*
X133881000Y-71160000D02*
X133881000Y-70215000D01*
X133921000Y-73760000D02*
X133921000Y-72840000D01*
X133921000Y-71160000D02*
X133921000Y-70240000D01*
X133961000Y-73735000D02*
X133961000Y-72840000D01*
X133961000Y-71160000D02*
X133961000Y-70265000D01*
X134001000Y-73708000D02*
X134001000Y-72840000D01*
X134001000Y-71160000D02*
X134001000Y-70292000D01*
X134041000Y-73680000D02*
X134041000Y-72840000D01*
X134041000Y-71160000D02*
X134041000Y-70320000D01*
X134081000Y-73650000D02*
X134081000Y-72840000D01*
X134081000Y-71160000D02*
X134081000Y-70350000D01*
X134121000Y-73619000D02*
X134121000Y-72840000D01*
X134121000Y-71160000D02*
X134121000Y-70381000D01*
X134161000Y-73587000D02*
X134161000Y-72840000D01*
X134161000Y-71160000D02*
X134161000Y-70413000D01*
X134201000Y-73552000D02*
X134201000Y-72840000D01*
X134201000Y-71160000D02*
X134201000Y-70448000D01*
X134241000Y-73516000D02*
X134241000Y-72840000D01*
X134241000Y-71160000D02*
X134241000Y-70484000D01*
X134281000Y-73478000D02*
X134281000Y-72840000D01*
X134281000Y-71160000D02*
X134281000Y-70522000D01*
X134321000Y-73438000D02*
X134321000Y-72840000D01*
X134321000Y-71160000D02*
X134321000Y-70562000D01*
X134361000Y-73396000D02*
X134361000Y-72840000D01*
X134361000Y-71160000D02*
X134361000Y-70604000D01*
X134401000Y-73351000D02*
X134401000Y-72840000D01*
X134401000Y-71160000D02*
X134401000Y-70649000D01*
X134441000Y-73304000D02*
X134441000Y-72840000D01*
X134441000Y-71160000D02*
X134441000Y-70696000D01*
X134481000Y-73254000D02*
X134481000Y-72840000D01*
X134481000Y-71160000D02*
X134481000Y-70746000D01*
X134521000Y-73200000D02*
X134521000Y-72840000D01*
X134521000Y-71160000D02*
X134521000Y-70800000D01*
X134561000Y-73142000D02*
X134561000Y-72840000D01*
X134561000Y-71160000D02*
X134561000Y-70858000D01*
X134601000Y-73080000D02*
X134601000Y-72840000D01*
X134601000Y-71160000D02*
X134601000Y-70920000D01*
X134641000Y-73013000D02*
X134641000Y-70987000D01*
X134681000Y-72940000D02*
X134681000Y-71060000D01*
X134721000Y-72859000D02*
X134721000Y-71141000D01*
X134761000Y-72768000D02*
X134761000Y-71232000D01*
X134801000Y-72664000D02*
X134801000Y-71336000D01*
X134841000Y-72537000D02*
X134841000Y-71463000D01*
X134881000Y-72370000D02*
X134881000Y-71630000D01*
X130530199Y-73195000D02*
X130930199Y-73195000D01*
X130730199Y-73395000D02*
X130730199Y-72995000D01*
%TO.C,C1*%
X122730000Y-73070000D02*
X127270000Y-73070000D01*
X122730000Y-70930000D02*
X127270000Y-70930000D01*
X122730000Y-73070000D02*
X122730000Y-73055000D01*
X122730000Y-70945000D02*
X122730000Y-70930000D01*
X127270000Y-73070000D02*
X127270000Y-73055000D01*
X127270000Y-70945000D02*
X127270000Y-70930000D01*
%TO.C,R1*%
X110395000Y-73370000D02*
X110395000Y-70630000D01*
X110395000Y-70630000D02*
X116935000Y-70630000D01*
X116935000Y-70630000D02*
X116935000Y-73370000D01*
X116935000Y-73370000D02*
X110395000Y-73370000D01*
X109625000Y-72000000D02*
X110395000Y-72000000D01*
X117705000Y-72000000D02*
X116935000Y-72000000D01*
%TO.C,U6*%
X199330000Y-114190000D02*
X199330000Y-115440000D01*
X199330000Y-115440000D02*
X168730000Y-115440000D01*
X168730000Y-115440000D02*
X168730000Y-110940000D01*
X168730000Y-110940000D02*
X199330000Y-110940000D01*
X199330000Y-110940000D02*
X199330000Y-112190000D01*
X199390000Y-118440000D02*
X168670000Y-118440000D01*
X168670000Y-118440000D02*
X168670000Y-107940000D01*
X168670000Y-107940000D02*
X199390000Y-107940000D01*
X199390000Y-107940000D02*
X199390000Y-118440000D01*
X199330000Y-112190000D02*
G75*
G03*
X199330000Y-114190000I0J-1000000D01*
G01*
%TO.C,U5*%
X167330000Y-114190000D02*
X167330000Y-115440000D01*
X167330000Y-115440000D02*
X136730000Y-115440000D01*
X136730000Y-115440000D02*
X136730000Y-110940000D01*
X136730000Y-110940000D02*
X167330000Y-110940000D01*
X167330000Y-110940000D02*
X167330000Y-112190000D01*
X167390000Y-118440000D02*
X136670000Y-118440000D01*
X136670000Y-118440000D02*
X136670000Y-107940000D01*
X136670000Y-107940000D02*
X167390000Y-107940000D01*
X167390000Y-107940000D02*
X167390000Y-118440000D01*
X167330000Y-112190000D02*
G75*
G03*
X167330000Y-114190000I0J-1000000D01*
G01*
%TO.C,U4*%
X135390000Y-107940000D02*
X135390000Y-118440000D01*
X104670000Y-107940000D02*
X135390000Y-107940000D01*
X104670000Y-118440000D02*
X104670000Y-107940000D01*
X135390000Y-118440000D02*
X104670000Y-118440000D01*
X135330000Y-110940000D02*
X135330000Y-112190000D01*
X104730000Y-110940000D02*
X135330000Y-110940000D01*
X104730000Y-115440000D02*
X104730000Y-110940000D01*
X135330000Y-115440000D02*
X104730000Y-115440000D01*
X135330000Y-114190000D02*
X135330000Y-115440000D01*
X135330000Y-112190000D02*
G75*
G03*
X135330000Y-114190000I0J-1000000D01*
G01*
%TO.C,U3*%
X199330000Y-82190000D02*
X199330000Y-83440000D01*
X199330000Y-83440000D02*
X168730000Y-83440000D01*
X168730000Y-83440000D02*
X168730000Y-78940000D01*
X168730000Y-78940000D02*
X199330000Y-78940000D01*
X199330000Y-78940000D02*
X199330000Y-80190000D01*
X199390000Y-86440000D02*
X168670000Y-86440000D01*
X168670000Y-86440000D02*
X168670000Y-75940000D01*
X168670000Y-75940000D02*
X199390000Y-75940000D01*
X199390000Y-75940000D02*
X199390000Y-86440000D01*
X199330000Y-80190000D02*
G75*
G03*
X199330000Y-82190000I0J-1000000D01*
G01*
%TO.C,U2*%
X167330000Y-82190000D02*
X167330000Y-83440000D01*
X167330000Y-83440000D02*
X136730000Y-83440000D01*
X136730000Y-83440000D02*
X136730000Y-78940000D01*
X136730000Y-78940000D02*
X167330000Y-78940000D01*
X167330000Y-78940000D02*
X167330000Y-80190000D01*
X167390000Y-86440000D02*
X136670000Y-86440000D01*
X136670000Y-86440000D02*
X136670000Y-75940000D01*
X136670000Y-75940000D02*
X167390000Y-75940000D01*
X167390000Y-75940000D02*
X167390000Y-86440000D01*
X167330000Y-80190000D02*
G75*
G03*
X167330000Y-82190000I0J-1000000D01*
G01*
%TO.C,R6*%
X174395000Y-105370000D02*
X174395000Y-102630000D01*
X174395000Y-102630000D02*
X180935000Y-102630000D01*
X180935000Y-102630000D02*
X180935000Y-105370000D01*
X180935000Y-105370000D02*
X174395000Y-105370000D01*
X173625000Y-104000000D02*
X174395000Y-104000000D01*
X181705000Y-104000000D02*
X180935000Y-104000000D01*
%TO.C,R5*%
X142395000Y-105370000D02*
X142395000Y-102630000D01*
X142395000Y-102630000D02*
X148935000Y-102630000D01*
X148935000Y-102630000D02*
X148935000Y-105370000D01*
X148935000Y-105370000D02*
X142395000Y-105370000D01*
X141625000Y-104000000D02*
X142395000Y-104000000D01*
X149705000Y-104000000D02*
X148935000Y-104000000D01*
%TO.C,R4*%
X110395000Y-105370000D02*
X110395000Y-102630000D01*
X110395000Y-102630000D02*
X116935000Y-102630000D01*
X116935000Y-102630000D02*
X116935000Y-105370000D01*
X116935000Y-105370000D02*
X110395000Y-105370000D01*
X109625000Y-104000000D02*
X110395000Y-104000000D01*
X117705000Y-104000000D02*
X116935000Y-104000000D01*
%TO.C,R3*%
X174395000Y-73370000D02*
X174395000Y-70630000D01*
X174395000Y-70630000D02*
X180935000Y-70630000D01*
X180935000Y-70630000D02*
X180935000Y-73370000D01*
X180935000Y-73370000D02*
X174395000Y-73370000D01*
X173625000Y-72000000D02*
X174395000Y-72000000D01*
X181705000Y-72000000D02*
X180935000Y-72000000D01*
%TO.C,R2*%
X142395000Y-73370000D02*
X142395000Y-70630000D01*
X142395000Y-70630000D02*
X148935000Y-70630000D01*
X148935000Y-70630000D02*
X148935000Y-73370000D01*
X148935000Y-73370000D02*
X142395000Y-73370000D01*
X141625000Y-72000000D02*
X142395000Y-72000000D01*
X149705000Y-72000000D02*
X148935000Y-72000000D01*
%TO.C,C12*%
X198920000Y-104000000D02*
G75*
G03*
X198920000Y-104000000I-2120000J0D01*
G01*
X196800000Y-106080000D02*
X196800000Y-101920000D01*
X196840000Y-106080000D02*
X196840000Y-101920000D01*
X196880000Y-106079000D02*
X196880000Y-101921000D01*
X196920000Y-106077000D02*
X196920000Y-101923000D01*
X196960000Y-106074000D02*
X196960000Y-101926000D01*
X197000000Y-106071000D02*
X197000000Y-104840000D01*
X197000000Y-103160000D02*
X197000000Y-101929000D01*
X197040000Y-106067000D02*
X197040000Y-104840000D01*
X197040000Y-103160000D02*
X197040000Y-101933000D01*
X197080000Y-106062000D02*
X197080000Y-104840000D01*
X197080000Y-103160000D02*
X197080000Y-101938000D01*
X197120000Y-106056000D02*
X197120000Y-104840000D01*
X197120000Y-103160000D02*
X197120000Y-101944000D01*
X197160000Y-106050000D02*
X197160000Y-104840000D01*
X197160000Y-103160000D02*
X197160000Y-101950000D01*
X197200000Y-106042000D02*
X197200000Y-104840000D01*
X197200000Y-103160000D02*
X197200000Y-101958000D01*
X197240000Y-106034000D02*
X197240000Y-104840000D01*
X197240000Y-103160000D02*
X197240000Y-101966000D01*
X197280000Y-106025000D02*
X197280000Y-104840000D01*
X197280000Y-103160000D02*
X197280000Y-101975000D01*
X197320000Y-106016000D02*
X197320000Y-104840000D01*
X197320000Y-103160000D02*
X197320000Y-101984000D01*
X197360000Y-106005000D02*
X197360000Y-104840000D01*
X197360000Y-103160000D02*
X197360000Y-101995000D01*
X197400000Y-105994000D02*
X197400000Y-104840000D01*
X197400000Y-103160000D02*
X197400000Y-102006000D01*
X197440000Y-105982000D02*
X197440000Y-104840000D01*
X197440000Y-103160000D02*
X197440000Y-102018000D01*
X197480000Y-105968000D02*
X197480000Y-104840000D01*
X197480000Y-103160000D02*
X197480000Y-102032000D01*
X197521000Y-105954000D02*
X197521000Y-104840000D01*
X197521000Y-103160000D02*
X197521000Y-102046000D01*
X197561000Y-105940000D02*
X197561000Y-104840000D01*
X197561000Y-103160000D02*
X197561000Y-102060000D01*
X197601000Y-105924000D02*
X197601000Y-104840000D01*
X197601000Y-103160000D02*
X197601000Y-102076000D01*
X197641000Y-105907000D02*
X197641000Y-104840000D01*
X197641000Y-103160000D02*
X197641000Y-102093000D01*
X197681000Y-105889000D02*
X197681000Y-104840000D01*
X197681000Y-103160000D02*
X197681000Y-102111000D01*
X197721000Y-105870000D02*
X197721000Y-104840000D01*
X197721000Y-103160000D02*
X197721000Y-102130000D01*
X197761000Y-105851000D02*
X197761000Y-104840000D01*
X197761000Y-103160000D02*
X197761000Y-102149000D01*
X197801000Y-105830000D02*
X197801000Y-104840000D01*
X197801000Y-103160000D02*
X197801000Y-102170000D01*
X197841000Y-105808000D02*
X197841000Y-104840000D01*
X197841000Y-103160000D02*
X197841000Y-102192000D01*
X197881000Y-105785000D02*
X197881000Y-104840000D01*
X197881000Y-103160000D02*
X197881000Y-102215000D01*
X197921000Y-105760000D02*
X197921000Y-104840000D01*
X197921000Y-103160000D02*
X197921000Y-102240000D01*
X197961000Y-105735000D02*
X197961000Y-104840000D01*
X197961000Y-103160000D02*
X197961000Y-102265000D01*
X198001000Y-105708000D02*
X198001000Y-104840000D01*
X198001000Y-103160000D02*
X198001000Y-102292000D01*
X198041000Y-105680000D02*
X198041000Y-104840000D01*
X198041000Y-103160000D02*
X198041000Y-102320000D01*
X198081000Y-105650000D02*
X198081000Y-104840000D01*
X198081000Y-103160000D02*
X198081000Y-102350000D01*
X198121000Y-105619000D02*
X198121000Y-104840000D01*
X198121000Y-103160000D02*
X198121000Y-102381000D01*
X198161000Y-105587000D02*
X198161000Y-104840000D01*
X198161000Y-103160000D02*
X198161000Y-102413000D01*
X198201000Y-105552000D02*
X198201000Y-104840000D01*
X198201000Y-103160000D02*
X198201000Y-102448000D01*
X198241000Y-105516000D02*
X198241000Y-104840000D01*
X198241000Y-103160000D02*
X198241000Y-102484000D01*
X198281000Y-105478000D02*
X198281000Y-104840000D01*
X198281000Y-103160000D02*
X198281000Y-102522000D01*
X198321000Y-105438000D02*
X198321000Y-104840000D01*
X198321000Y-103160000D02*
X198321000Y-102562000D01*
X198361000Y-105396000D02*
X198361000Y-104840000D01*
X198361000Y-103160000D02*
X198361000Y-102604000D01*
X198401000Y-105351000D02*
X198401000Y-104840000D01*
X198401000Y-103160000D02*
X198401000Y-102649000D01*
X198441000Y-105304000D02*
X198441000Y-104840000D01*
X198441000Y-103160000D02*
X198441000Y-102696000D01*
X198481000Y-105254000D02*
X198481000Y-104840000D01*
X198481000Y-103160000D02*
X198481000Y-102746000D01*
X198521000Y-105200000D02*
X198521000Y-104840000D01*
X198521000Y-103160000D02*
X198521000Y-102800000D01*
X198561000Y-105142000D02*
X198561000Y-104840000D01*
X198561000Y-103160000D02*
X198561000Y-102858000D01*
X198601000Y-105080000D02*
X198601000Y-104840000D01*
X198601000Y-103160000D02*
X198601000Y-102920000D01*
X198641000Y-105013000D02*
X198641000Y-102987000D01*
X198681000Y-104940000D02*
X198681000Y-103060000D01*
X198721000Y-104859000D02*
X198721000Y-103141000D01*
X198761000Y-104768000D02*
X198761000Y-103232000D01*
X198801000Y-104664000D02*
X198801000Y-103336000D01*
X198841000Y-104537000D02*
X198841000Y-103463000D01*
X198881000Y-104370000D02*
X198881000Y-103630000D01*
X194530199Y-105195000D02*
X194930199Y-105195000D01*
X194730199Y-105395000D02*
X194730199Y-104995000D01*
%TO.C,C11*%
X166920000Y-104000000D02*
G75*
G03*
X166920000Y-104000000I-2120000J0D01*
G01*
X164800000Y-106080000D02*
X164800000Y-101920000D01*
X164840000Y-106080000D02*
X164840000Y-101920000D01*
X164880000Y-106079000D02*
X164880000Y-101921000D01*
X164920000Y-106077000D02*
X164920000Y-101923000D01*
X164960000Y-106074000D02*
X164960000Y-101926000D01*
X165000000Y-106071000D02*
X165000000Y-104840000D01*
X165000000Y-103160000D02*
X165000000Y-101929000D01*
X165040000Y-106067000D02*
X165040000Y-104840000D01*
X165040000Y-103160000D02*
X165040000Y-101933000D01*
X165080000Y-106062000D02*
X165080000Y-104840000D01*
X165080000Y-103160000D02*
X165080000Y-101938000D01*
X165120000Y-106056000D02*
X165120000Y-104840000D01*
X165120000Y-103160000D02*
X165120000Y-101944000D01*
X165160000Y-106050000D02*
X165160000Y-104840000D01*
X165160000Y-103160000D02*
X165160000Y-101950000D01*
X165200000Y-106042000D02*
X165200000Y-104840000D01*
X165200000Y-103160000D02*
X165200000Y-101958000D01*
X165240000Y-106034000D02*
X165240000Y-104840000D01*
X165240000Y-103160000D02*
X165240000Y-101966000D01*
X165280000Y-106025000D02*
X165280000Y-104840000D01*
X165280000Y-103160000D02*
X165280000Y-101975000D01*
X165320000Y-106016000D02*
X165320000Y-104840000D01*
X165320000Y-103160000D02*
X165320000Y-101984000D01*
X165360000Y-106005000D02*
X165360000Y-104840000D01*
X165360000Y-103160000D02*
X165360000Y-101995000D01*
X165400000Y-105994000D02*
X165400000Y-104840000D01*
X165400000Y-103160000D02*
X165400000Y-102006000D01*
X165440000Y-105982000D02*
X165440000Y-104840000D01*
X165440000Y-103160000D02*
X165440000Y-102018000D01*
X165480000Y-105968000D02*
X165480000Y-104840000D01*
X165480000Y-103160000D02*
X165480000Y-102032000D01*
X165521000Y-105954000D02*
X165521000Y-104840000D01*
X165521000Y-103160000D02*
X165521000Y-102046000D01*
X165561000Y-105940000D02*
X165561000Y-104840000D01*
X165561000Y-103160000D02*
X165561000Y-102060000D01*
X165601000Y-105924000D02*
X165601000Y-104840000D01*
X165601000Y-103160000D02*
X165601000Y-102076000D01*
X165641000Y-105907000D02*
X165641000Y-104840000D01*
X165641000Y-103160000D02*
X165641000Y-102093000D01*
X165681000Y-105889000D02*
X165681000Y-104840000D01*
X165681000Y-103160000D02*
X165681000Y-102111000D01*
X165721000Y-105870000D02*
X165721000Y-104840000D01*
X165721000Y-103160000D02*
X165721000Y-102130000D01*
X165761000Y-105851000D02*
X165761000Y-104840000D01*
X165761000Y-103160000D02*
X165761000Y-102149000D01*
X165801000Y-105830000D02*
X165801000Y-104840000D01*
X165801000Y-103160000D02*
X165801000Y-102170000D01*
X165841000Y-105808000D02*
X165841000Y-104840000D01*
X165841000Y-103160000D02*
X165841000Y-102192000D01*
X165881000Y-105785000D02*
X165881000Y-104840000D01*
X165881000Y-103160000D02*
X165881000Y-102215000D01*
X165921000Y-105760000D02*
X165921000Y-104840000D01*
X165921000Y-103160000D02*
X165921000Y-102240000D01*
X165961000Y-105735000D02*
X165961000Y-104840000D01*
X165961000Y-103160000D02*
X165961000Y-102265000D01*
X166001000Y-105708000D02*
X166001000Y-104840000D01*
X166001000Y-103160000D02*
X166001000Y-102292000D01*
X166041000Y-105680000D02*
X166041000Y-104840000D01*
X166041000Y-103160000D02*
X166041000Y-102320000D01*
X166081000Y-105650000D02*
X166081000Y-104840000D01*
X166081000Y-103160000D02*
X166081000Y-102350000D01*
X166121000Y-105619000D02*
X166121000Y-104840000D01*
X166121000Y-103160000D02*
X166121000Y-102381000D01*
X166161000Y-105587000D02*
X166161000Y-104840000D01*
X166161000Y-103160000D02*
X166161000Y-102413000D01*
X166201000Y-105552000D02*
X166201000Y-104840000D01*
X166201000Y-103160000D02*
X166201000Y-102448000D01*
X166241000Y-105516000D02*
X166241000Y-104840000D01*
X166241000Y-103160000D02*
X166241000Y-102484000D01*
X166281000Y-105478000D02*
X166281000Y-104840000D01*
X166281000Y-103160000D02*
X166281000Y-102522000D01*
X166321000Y-105438000D02*
X166321000Y-104840000D01*
X166321000Y-103160000D02*
X166321000Y-102562000D01*
X166361000Y-105396000D02*
X166361000Y-104840000D01*
X166361000Y-103160000D02*
X166361000Y-102604000D01*
X166401000Y-105351000D02*
X166401000Y-104840000D01*
X166401000Y-103160000D02*
X166401000Y-102649000D01*
X166441000Y-105304000D02*
X166441000Y-104840000D01*
X166441000Y-103160000D02*
X166441000Y-102696000D01*
X166481000Y-105254000D02*
X166481000Y-104840000D01*
X166481000Y-103160000D02*
X166481000Y-102746000D01*
X166521000Y-105200000D02*
X166521000Y-104840000D01*
X166521000Y-103160000D02*
X166521000Y-102800000D01*
X166561000Y-105142000D02*
X166561000Y-104840000D01*
X166561000Y-103160000D02*
X166561000Y-102858000D01*
X166601000Y-105080000D02*
X166601000Y-104840000D01*
X166601000Y-103160000D02*
X166601000Y-102920000D01*
X166641000Y-105013000D02*
X166641000Y-102987000D01*
X166681000Y-104940000D02*
X166681000Y-103060000D01*
X166721000Y-104859000D02*
X166721000Y-103141000D01*
X166761000Y-104768000D02*
X166761000Y-103232000D01*
X166801000Y-104664000D02*
X166801000Y-103336000D01*
X166841000Y-104537000D02*
X166841000Y-103463000D01*
X166881000Y-104370000D02*
X166881000Y-103630000D01*
X162530199Y-105195000D02*
X162930199Y-105195000D01*
X162730199Y-105395000D02*
X162730199Y-104995000D01*
%TO.C,C10*%
X134920000Y-104000000D02*
G75*
G03*
X134920000Y-104000000I-2120000J0D01*
G01*
X132800000Y-106080000D02*
X132800000Y-101920000D01*
X132840000Y-106080000D02*
X132840000Y-101920000D01*
X132880000Y-106079000D02*
X132880000Y-101921000D01*
X132920000Y-106077000D02*
X132920000Y-101923000D01*
X132960000Y-106074000D02*
X132960000Y-101926000D01*
X133000000Y-106071000D02*
X133000000Y-104840000D01*
X133000000Y-103160000D02*
X133000000Y-101929000D01*
X133040000Y-106067000D02*
X133040000Y-104840000D01*
X133040000Y-103160000D02*
X133040000Y-101933000D01*
X133080000Y-106062000D02*
X133080000Y-104840000D01*
X133080000Y-103160000D02*
X133080000Y-101938000D01*
X133120000Y-106056000D02*
X133120000Y-104840000D01*
X133120000Y-103160000D02*
X133120000Y-101944000D01*
X133160000Y-106050000D02*
X133160000Y-104840000D01*
X133160000Y-103160000D02*
X133160000Y-101950000D01*
X133200000Y-106042000D02*
X133200000Y-104840000D01*
X133200000Y-103160000D02*
X133200000Y-101958000D01*
X133240000Y-106034000D02*
X133240000Y-104840000D01*
X133240000Y-103160000D02*
X133240000Y-101966000D01*
X133280000Y-106025000D02*
X133280000Y-104840000D01*
X133280000Y-103160000D02*
X133280000Y-101975000D01*
X133320000Y-106016000D02*
X133320000Y-104840000D01*
X133320000Y-103160000D02*
X133320000Y-101984000D01*
X133360000Y-106005000D02*
X133360000Y-104840000D01*
X133360000Y-103160000D02*
X133360000Y-101995000D01*
X133400000Y-105994000D02*
X133400000Y-104840000D01*
X133400000Y-103160000D02*
X133400000Y-102006000D01*
X133440000Y-105982000D02*
X133440000Y-104840000D01*
X133440000Y-103160000D02*
X133440000Y-102018000D01*
X133480000Y-105968000D02*
X133480000Y-104840000D01*
X133480000Y-103160000D02*
X133480000Y-102032000D01*
X133521000Y-105954000D02*
X133521000Y-104840000D01*
X133521000Y-103160000D02*
X133521000Y-102046000D01*
X133561000Y-105940000D02*
X133561000Y-104840000D01*
X133561000Y-103160000D02*
X133561000Y-102060000D01*
X133601000Y-105924000D02*
X133601000Y-104840000D01*
X133601000Y-103160000D02*
X133601000Y-102076000D01*
X133641000Y-105907000D02*
X133641000Y-104840000D01*
X133641000Y-103160000D02*
X133641000Y-102093000D01*
X133681000Y-105889000D02*
X133681000Y-104840000D01*
X133681000Y-103160000D02*
X133681000Y-102111000D01*
X133721000Y-105870000D02*
X133721000Y-104840000D01*
X133721000Y-103160000D02*
X133721000Y-102130000D01*
X133761000Y-105851000D02*
X133761000Y-104840000D01*
X133761000Y-103160000D02*
X133761000Y-102149000D01*
X133801000Y-105830000D02*
X133801000Y-104840000D01*
X133801000Y-103160000D02*
X133801000Y-102170000D01*
X133841000Y-105808000D02*
X133841000Y-104840000D01*
X133841000Y-103160000D02*
X133841000Y-102192000D01*
X133881000Y-105785000D02*
X133881000Y-104840000D01*
X133881000Y-103160000D02*
X133881000Y-102215000D01*
X133921000Y-105760000D02*
X133921000Y-104840000D01*
X133921000Y-103160000D02*
X133921000Y-102240000D01*
X133961000Y-105735000D02*
X133961000Y-104840000D01*
X133961000Y-103160000D02*
X133961000Y-102265000D01*
X134001000Y-105708000D02*
X134001000Y-104840000D01*
X134001000Y-103160000D02*
X134001000Y-102292000D01*
X134041000Y-105680000D02*
X134041000Y-104840000D01*
X134041000Y-103160000D02*
X134041000Y-102320000D01*
X134081000Y-105650000D02*
X134081000Y-104840000D01*
X134081000Y-103160000D02*
X134081000Y-102350000D01*
X134121000Y-105619000D02*
X134121000Y-104840000D01*
X134121000Y-103160000D02*
X134121000Y-102381000D01*
X134161000Y-105587000D02*
X134161000Y-104840000D01*
X134161000Y-103160000D02*
X134161000Y-102413000D01*
X134201000Y-105552000D02*
X134201000Y-104840000D01*
X134201000Y-103160000D02*
X134201000Y-102448000D01*
X134241000Y-105516000D02*
X134241000Y-104840000D01*
X134241000Y-103160000D02*
X134241000Y-102484000D01*
X134281000Y-105478000D02*
X134281000Y-104840000D01*
X134281000Y-103160000D02*
X134281000Y-102522000D01*
X134321000Y-105438000D02*
X134321000Y-104840000D01*
X134321000Y-103160000D02*
X134321000Y-102562000D01*
X134361000Y-105396000D02*
X134361000Y-104840000D01*
X134361000Y-103160000D02*
X134361000Y-102604000D01*
X134401000Y-105351000D02*
X134401000Y-104840000D01*
X134401000Y-103160000D02*
X134401000Y-102649000D01*
X134441000Y-105304000D02*
X134441000Y-104840000D01*
X134441000Y-103160000D02*
X134441000Y-102696000D01*
X134481000Y-105254000D02*
X134481000Y-104840000D01*
X134481000Y-103160000D02*
X134481000Y-102746000D01*
X134521000Y-105200000D02*
X134521000Y-104840000D01*
X134521000Y-103160000D02*
X134521000Y-102800000D01*
X134561000Y-105142000D02*
X134561000Y-104840000D01*
X134561000Y-103160000D02*
X134561000Y-102858000D01*
X134601000Y-105080000D02*
X134601000Y-104840000D01*
X134601000Y-103160000D02*
X134601000Y-102920000D01*
X134641000Y-105013000D02*
X134641000Y-102987000D01*
X134681000Y-104940000D02*
X134681000Y-103060000D01*
X134721000Y-104859000D02*
X134721000Y-103141000D01*
X134761000Y-104768000D02*
X134761000Y-103232000D01*
X134801000Y-104664000D02*
X134801000Y-103336000D01*
X134841000Y-104537000D02*
X134841000Y-103463000D01*
X134881000Y-104370000D02*
X134881000Y-103630000D01*
X130530199Y-105195000D02*
X130930199Y-105195000D01*
X130730199Y-105395000D02*
X130730199Y-104995000D01*
%TO.C,C9*%
X186730000Y-105070000D02*
X191270000Y-105070000D01*
X186730000Y-102930000D02*
X191270000Y-102930000D01*
X186730000Y-105070000D02*
X186730000Y-105055000D01*
X186730000Y-102945000D02*
X186730000Y-102930000D01*
X191270000Y-105070000D02*
X191270000Y-105055000D01*
X191270000Y-102945000D02*
X191270000Y-102930000D01*
%TO.C,C8*%
X154730000Y-105070000D02*
X159270000Y-105070000D01*
X154730000Y-102930000D02*
X159270000Y-102930000D01*
X154730000Y-105070000D02*
X154730000Y-105055000D01*
X154730000Y-102945000D02*
X154730000Y-102930000D01*
X159270000Y-105070000D02*
X159270000Y-105055000D01*
X159270000Y-102945000D02*
X159270000Y-102930000D01*
%TO.C,C7*%
X122730000Y-105070000D02*
X127270000Y-105070000D01*
X122730000Y-102930000D02*
X127270000Y-102930000D01*
X122730000Y-105070000D02*
X122730000Y-105055000D01*
X122730000Y-102945000D02*
X122730000Y-102930000D01*
X127270000Y-105070000D02*
X127270000Y-105055000D01*
X127270000Y-102945000D02*
X127270000Y-102930000D01*
%TO.C,C6*%
X198920000Y-72000000D02*
G75*
G03*
X198920000Y-72000000I-2120000J0D01*
G01*
X196800000Y-74080000D02*
X196800000Y-69920000D01*
X196840000Y-74080000D02*
X196840000Y-69920000D01*
X196880000Y-74079000D02*
X196880000Y-69921000D01*
X196920000Y-74077000D02*
X196920000Y-69923000D01*
X196960000Y-74074000D02*
X196960000Y-69926000D01*
X197000000Y-74071000D02*
X197000000Y-72840000D01*
X197000000Y-71160000D02*
X197000000Y-69929000D01*
X197040000Y-74067000D02*
X197040000Y-72840000D01*
X197040000Y-71160000D02*
X197040000Y-69933000D01*
X197080000Y-74062000D02*
X197080000Y-72840000D01*
X197080000Y-71160000D02*
X197080000Y-69938000D01*
X197120000Y-74056000D02*
X197120000Y-72840000D01*
X197120000Y-71160000D02*
X197120000Y-69944000D01*
X197160000Y-74050000D02*
X197160000Y-72840000D01*
X197160000Y-71160000D02*
X197160000Y-69950000D01*
X197200000Y-74042000D02*
X197200000Y-72840000D01*
X197200000Y-71160000D02*
X197200000Y-69958000D01*
X197240000Y-74034000D02*
X197240000Y-72840000D01*
X197240000Y-71160000D02*
X197240000Y-69966000D01*
X197280000Y-74025000D02*
X197280000Y-72840000D01*
X197280000Y-71160000D02*
X197280000Y-69975000D01*
X197320000Y-74016000D02*
X197320000Y-72840000D01*
X197320000Y-71160000D02*
X197320000Y-69984000D01*
X197360000Y-74005000D02*
X197360000Y-72840000D01*
X197360000Y-71160000D02*
X197360000Y-69995000D01*
X197400000Y-73994000D02*
X197400000Y-72840000D01*
X197400000Y-71160000D02*
X197400000Y-70006000D01*
X197440000Y-73982000D02*
X197440000Y-72840000D01*
X197440000Y-71160000D02*
X197440000Y-70018000D01*
X197480000Y-73968000D02*
X197480000Y-72840000D01*
X197480000Y-71160000D02*
X197480000Y-70032000D01*
X197521000Y-73954000D02*
X197521000Y-72840000D01*
X197521000Y-71160000D02*
X197521000Y-70046000D01*
X197561000Y-73940000D02*
X197561000Y-72840000D01*
X197561000Y-71160000D02*
X197561000Y-70060000D01*
X197601000Y-73924000D02*
X197601000Y-72840000D01*
X197601000Y-71160000D02*
X197601000Y-70076000D01*
X197641000Y-73907000D02*
X197641000Y-72840000D01*
X197641000Y-71160000D02*
X197641000Y-70093000D01*
X197681000Y-73889000D02*
X197681000Y-72840000D01*
X197681000Y-71160000D02*
X197681000Y-70111000D01*
X197721000Y-73870000D02*
X197721000Y-72840000D01*
X197721000Y-71160000D02*
X197721000Y-70130000D01*
X197761000Y-73851000D02*
X197761000Y-72840000D01*
X197761000Y-71160000D02*
X197761000Y-70149000D01*
X197801000Y-73830000D02*
X197801000Y-72840000D01*
X197801000Y-71160000D02*
X197801000Y-70170000D01*
X197841000Y-73808000D02*
X197841000Y-72840000D01*
X197841000Y-71160000D02*
X197841000Y-70192000D01*
X197881000Y-73785000D02*
X197881000Y-72840000D01*
X197881000Y-71160000D02*
X197881000Y-70215000D01*
X197921000Y-73760000D02*
X197921000Y-72840000D01*
X197921000Y-71160000D02*
X197921000Y-70240000D01*
X197961000Y-73735000D02*
X197961000Y-72840000D01*
X197961000Y-71160000D02*
X197961000Y-70265000D01*
X198001000Y-73708000D02*
X198001000Y-72840000D01*
X198001000Y-71160000D02*
X198001000Y-70292000D01*
X198041000Y-73680000D02*
X198041000Y-72840000D01*
X198041000Y-71160000D02*
X198041000Y-70320000D01*
X198081000Y-73650000D02*
X198081000Y-72840000D01*
X198081000Y-71160000D02*
X198081000Y-70350000D01*
X198121000Y-73619000D02*
X198121000Y-72840000D01*
X198121000Y-71160000D02*
X198121000Y-70381000D01*
X198161000Y-73587000D02*
X198161000Y-72840000D01*
X198161000Y-71160000D02*
X198161000Y-70413000D01*
X198201000Y-73552000D02*
X198201000Y-72840000D01*
X198201000Y-71160000D02*
X198201000Y-70448000D01*
X198241000Y-73516000D02*
X198241000Y-72840000D01*
X198241000Y-71160000D02*
X198241000Y-70484000D01*
X198281000Y-73478000D02*
X198281000Y-72840000D01*
X198281000Y-71160000D02*
X198281000Y-70522000D01*
X198321000Y-73438000D02*
X198321000Y-72840000D01*
X198321000Y-71160000D02*
X198321000Y-70562000D01*
X198361000Y-73396000D02*
X198361000Y-72840000D01*
X198361000Y-71160000D02*
X198361000Y-70604000D01*
X198401000Y-73351000D02*
X198401000Y-72840000D01*
X198401000Y-71160000D02*
X198401000Y-70649000D01*
X198441000Y-73304000D02*
X198441000Y-72840000D01*
X198441000Y-71160000D02*
X198441000Y-70696000D01*
X198481000Y-73254000D02*
X198481000Y-72840000D01*
X198481000Y-71160000D02*
X198481000Y-70746000D01*
X198521000Y-73200000D02*
X198521000Y-72840000D01*
X198521000Y-71160000D02*
X198521000Y-70800000D01*
X198561000Y-73142000D02*
X198561000Y-72840000D01*
X198561000Y-71160000D02*
X198561000Y-70858000D01*
X198601000Y-73080000D02*
X198601000Y-72840000D01*
X198601000Y-71160000D02*
X198601000Y-70920000D01*
X198641000Y-73013000D02*
X198641000Y-70987000D01*
X198681000Y-72940000D02*
X198681000Y-71060000D01*
X198721000Y-72859000D02*
X198721000Y-71141000D01*
X198761000Y-72768000D02*
X198761000Y-71232000D01*
X198801000Y-72664000D02*
X198801000Y-71336000D01*
X198841000Y-72537000D02*
X198841000Y-71463000D01*
X198881000Y-72370000D02*
X198881000Y-71630000D01*
X194530199Y-73195000D02*
X194930199Y-73195000D01*
X194730199Y-73395000D02*
X194730199Y-72995000D01*
%TO.C,C5*%
X166920000Y-72000000D02*
G75*
G03*
X166920000Y-72000000I-2120000J0D01*
G01*
X164800000Y-74080000D02*
X164800000Y-69920000D01*
X164840000Y-74080000D02*
X164840000Y-69920000D01*
X164880000Y-74079000D02*
X164880000Y-69921000D01*
X164920000Y-74077000D02*
X164920000Y-69923000D01*
X164960000Y-74074000D02*
X164960000Y-69926000D01*
X165000000Y-74071000D02*
X165000000Y-72840000D01*
X165000000Y-71160000D02*
X165000000Y-69929000D01*
X165040000Y-74067000D02*
X165040000Y-72840000D01*
X165040000Y-71160000D02*
X165040000Y-69933000D01*
X165080000Y-74062000D02*
X165080000Y-72840000D01*
X165080000Y-71160000D02*
X165080000Y-69938000D01*
X165120000Y-74056000D02*
X165120000Y-72840000D01*
X165120000Y-71160000D02*
X165120000Y-69944000D01*
X165160000Y-74050000D02*
X165160000Y-72840000D01*
X165160000Y-71160000D02*
X165160000Y-69950000D01*
X165200000Y-74042000D02*
X165200000Y-72840000D01*
X165200000Y-71160000D02*
X165200000Y-69958000D01*
X165240000Y-74034000D02*
X165240000Y-72840000D01*
X165240000Y-71160000D02*
X165240000Y-69966000D01*
X165280000Y-74025000D02*
X165280000Y-72840000D01*
X165280000Y-71160000D02*
X165280000Y-69975000D01*
X165320000Y-74016000D02*
X165320000Y-72840000D01*
X165320000Y-71160000D02*
X165320000Y-69984000D01*
X165360000Y-74005000D02*
X165360000Y-72840000D01*
X165360000Y-71160000D02*
X165360000Y-69995000D01*
X165400000Y-73994000D02*
X165400000Y-72840000D01*
X165400000Y-71160000D02*
X165400000Y-70006000D01*
X165440000Y-73982000D02*
X165440000Y-72840000D01*
X165440000Y-71160000D02*
X165440000Y-70018000D01*
X165480000Y-73968000D02*
X165480000Y-72840000D01*
X165480000Y-71160000D02*
X165480000Y-70032000D01*
X165521000Y-73954000D02*
X165521000Y-72840000D01*
X165521000Y-71160000D02*
X165521000Y-70046000D01*
X165561000Y-73940000D02*
X165561000Y-72840000D01*
X165561000Y-71160000D02*
X165561000Y-70060000D01*
X165601000Y-73924000D02*
X165601000Y-72840000D01*
X165601000Y-71160000D02*
X165601000Y-70076000D01*
X165641000Y-73907000D02*
X165641000Y-72840000D01*
X165641000Y-71160000D02*
X165641000Y-70093000D01*
X165681000Y-73889000D02*
X165681000Y-72840000D01*
X165681000Y-71160000D02*
X165681000Y-70111000D01*
X165721000Y-73870000D02*
X165721000Y-72840000D01*
X165721000Y-71160000D02*
X165721000Y-70130000D01*
X165761000Y-73851000D02*
X165761000Y-72840000D01*
X165761000Y-71160000D02*
X165761000Y-70149000D01*
X165801000Y-73830000D02*
X165801000Y-72840000D01*
X165801000Y-71160000D02*
X165801000Y-70170000D01*
X165841000Y-73808000D02*
X165841000Y-72840000D01*
X165841000Y-71160000D02*
X165841000Y-70192000D01*
X165881000Y-73785000D02*
X165881000Y-72840000D01*
X165881000Y-71160000D02*
X165881000Y-70215000D01*
X165921000Y-73760000D02*
X165921000Y-72840000D01*
X165921000Y-71160000D02*
X165921000Y-70240000D01*
X165961000Y-73735000D02*
X165961000Y-72840000D01*
X165961000Y-71160000D02*
X165961000Y-70265000D01*
X166001000Y-73708000D02*
X166001000Y-72840000D01*
X166001000Y-71160000D02*
X166001000Y-70292000D01*
X166041000Y-73680000D02*
X166041000Y-72840000D01*
X166041000Y-71160000D02*
X166041000Y-70320000D01*
X166081000Y-73650000D02*
X166081000Y-72840000D01*
X166081000Y-71160000D02*
X166081000Y-70350000D01*
X166121000Y-73619000D02*
X166121000Y-72840000D01*
X166121000Y-71160000D02*
X166121000Y-70381000D01*
X166161000Y-73587000D02*
X166161000Y-72840000D01*
X166161000Y-71160000D02*
X166161000Y-70413000D01*
X166201000Y-73552000D02*
X166201000Y-72840000D01*
X166201000Y-71160000D02*
X166201000Y-70448000D01*
X166241000Y-73516000D02*
X166241000Y-72840000D01*
X166241000Y-71160000D02*
X166241000Y-70484000D01*
X166281000Y-73478000D02*
X166281000Y-72840000D01*
X166281000Y-71160000D02*
X166281000Y-70522000D01*
X166321000Y-73438000D02*
X166321000Y-72840000D01*
X166321000Y-71160000D02*
X166321000Y-70562000D01*
X166361000Y-73396000D02*
X166361000Y-72840000D01*
X166361000Y-71160000D02*
X166361000Y-70604000D01*
X166401000Y-73351000D02*
X166401000Y-72840000D01*
X166401000Y-71160000D02*
X166401000Y-70649000D01*
X166441000Y-73304000D02*
X166441000Y-72840000D01*
X166441000Y-71160000D02*
X166441000Y-70696000D01*
X166481000Y-73254000D02*
X166481000Y-72840000D01*
X166481000Y-71160000D02*
X166481000Y-70746000D01*
X166521000Y-73200000D02*
X166521000Y-72840000D01*
X166521000Y-71160000D02*
X166521000Y-70800000D01*
X166561000Y-73142000D02*
X166561000Y-72840000D01*
X166561000Y-71160000D02*
X166561000Y-70858000D01*
X166601000Y-73080000D02*
X166601000Y-72840000D01*
X166601000Y-71160000D02*
X166601000Y-70920000D01*
X166641000Y-73013000D02*
X166641000Y-70987000D01*
X166681000Y-72940000D02*
X166681000Y-71060000D01*
X166721000Y-72859000D02*
X166721000Y-71141000D01*
X166761000Y-72768000D02*
X166761000Y-71232000D01*
X166801000Y-72664000D02*
X166801000Y-71336000D01*
X166841000Y-72537000D02*
X166841000Y-71463000D01*
X166881000Y-72370000D02*
X166881000Y-71630000D01*
X162530199Y-73195000D02*
X162930199Y-73195000D01*
X162730199Y-73395000D02*
X162730199Y-72995000D01*
%TO.C,C3*%
X186730000Y-73070000D02*
X191270000Y-73070000D01*
X186730000Y-70930000D02*
X191270000Y-70930000D01*
X186730000Y-73070000D02*
X186730000Y-73055000D01*
X186730000Y-70945000D02*
X186730000Y-70930000D01*
X191270000Y-73070000D02*
X191270000Y-73055000D01*
X191270000Y-70945000D02*
X191270000Y-70930000D01*
%TO.C,C2*%
X154730000Y-73070000D02*
X159270000Y-73070000D01*
X154730000Y-70930000D02*
X159270000Y-70930000D01*
X154730000Y-73070000D02*
X154730000Y-73055000D01*
X154730000Y-70945000D02*
X154730000Y-70930000D01*
X159270000Y-73070000D02*
X159270000Y-73055000D01*
X159270000Y-70945000D02*
X159270000Y-70930000D01*
%TO.C,J1*%
D12*
X101802833Y-88114380D02*
X101802833Y-88828666D01*
X101850452Y-88971523D01*
X101945690Y-89066761D01*
X102088547Y-89114380D01*
X102183785Y-89114380D01*
X100802833Y-89114380D02*
X101374261Y-89114380D01*
X101088547Y-89114380D02*
X101088547Y-88114380D01*
X101183785Y-88257238D01*
X101279023Y-88352476D01*
X101374261Y-88400095D01*
%TO.C,U1*%
X132944380Y-80428095D02*
X133753904Y-80428095D01*
X133849142Y-80475714D01*
X133896761Y-80523333D01*
X133944380Y-80618571D01*
X133944380Y-80809047D01*
X133896761Y-80904285D01*
X133849142Y-80951904D01*
X133753904Y-80999523D01*
X132944380Y-80999523D01*
X133944380Y-81999523D02*
X133944380Y-81428095D01*
X133944380Y-81713809D02*
X132944380Y-81713809D01*
X133087238Y-81618571D01*
X133182476Y-81523333D01*
X133230095Y-81428095D01*
%TO.C,C4*%
X132966666Y-75607142D02*
X133014285Y-75654761D01*
X133157142Y-75702380D01*
X133252380Y-75702380D01*
X133395238Y-75654761D01*
X133490476Y-75559523D01*
X133538095Y-75464285D01*
X133585714Y-75273809D01*
X133585714Y-75130952D01*
X133538095Y-74940476D01*
X133490476Y-74845238D01*
X133395238Y-74750000D01*
X133252380Y-74702380D01*
X133157142Y-74702380D01*
X133014285Y-74750000D01*
X132966666Y-74797619D01*
X132109523Y-75035714D02*
X132109523Y-75702380D01*
X132347619Y-74654761D02*
X132585714Y-75369047D01*
X131966666Y-75369047D01*
%TO.C,C1*%
X125166666Y-74557142D02*
X125214285Y-74604761D01*
X125357142Y-74652380D01*
X125452380Y-74652380D01*
X125595238Y-74604761D01*
X125690476Y-74509523D01*
X125738095Y-74414285D01*
X125785714Y-74223809D01*
X125785714Y-74080952D01*
X125738095Y-73890476D01*
X125690476Y-73795238D01*
X125595238Y-73700000D01*
X125452380Y-73652380D01*
X125357142Y-73652380D01*
X125214285Y-73700000D01*
X125166666Y-73747619D01*
X124214285Y-74652380D02*
X124785714Y-74652380D01*
X124500000Y-74652380D02*
X124500000Y-73652380D01*
X124595238Y-73795238D01*
X124690476Y-73890476D01*
X124785714Y-73938095D01*
%TO.C,R1*%
X113831666Y-74822380D02*
X114165000Y-74346190D01*
X114403095Y-74822380D02*
X114403095Y-73822380D01*
X114022142Y-73822380D01*
X113926904Y-73870000D01*
X113879285Y-73917619D01*
X113831666Y-74012857D01*
X113831666Y-74155714D01*
X113879285Y-74250952D01*
X113926904Y-74298571D01*
X114022142Y-74346190D01*
X114403095Y-74346190D01*
X112879285Y-74822380D02*
X113450714Y-74822380D01*
X113165000Y-74822380D02*
X113165000Y-73822380D01*
X113260238Y-73965238D01*
X113355476Y-74060476D01*
X113450714Y-74108095D01*
%TO.C,U6*%
X196753880Y-112555095D02*
X197563404Y-112555095D01*
X197658642Y-112602714D01*
X197706261Y-112650333D01*
X197753880Y-112745571D01*
X197753880Y-112936047D01*
X197706261Y-113031285D01*
X197658642Y-113078904D01*
X197563404Y-113126523D01*
X196753880Y-113126523D01*
X196753880Y-114031285D02*
X196753880Y-113840809D01*
X196801500Y-113745571D01*
X196849119Y-113697952D01*
X196991976Y-113602714D01*
X197182452Y-113555095D01*
X197563404Y-113555095D01*
X197658642Y-113602714D01*
X197706261Y-113650333D01*
X197753880Y-113745571D01*
X197753880Y-113936047D01*
X197706261Y-114031285D01*
X197658642Y-114078904D01*
X197563404Y-114126523D01*
X197325309Y-114126523D01*
X197230071Y-114078904D01*
X197182452Y-114031285D01*
X197134833Y-113936047D01*
X197134833Y-113745571D01*
X197182452Y-113650333D01*
X197230071Y-113602714D01*
X197325309Y-113555095D01*
%TO.C,U5*%
X164880880Y-112428095D02*
X165690404Y-112428095D01*
X165785642Y-112475714D01*
X165833261Y-112523333D01*
X165880880Y-112618571D01*
X165880880Y-112809047D01*
X165833261Y-112904285D01*
X165785642Y-112951904D01*
X165690404Y-112999523D01*
X164880880Y-112999523D01*
X164880880Y-113951904D02*
X164880880Y-113475714D01*
X165357071Y-113428095D01*
X165309452Y-113475714D01*
X165261833Y-113570952D01*
X165261833Y-113809047D01*
X165309452Y-113904285D01*
X165357071Y-113951904D01*
X165452309Y-113999523D01*
X165690404Y-113999523D01*
X165785642Y-113951904D01*
X165833261Y-113904285D01*
X165880880Y-113809047D01*
X165880880Y-113570952D01*
X165833261Y-113475714D01*
X165785642Y-113428095D01*
%TO.C,U4*%
X132817380Y-112428095D02*
X133626904Y-112428095D01*
X133722142Y-112475714D01*
X133769761Y-112523333D01*
X133817380Y-112618571D01*
X133817380Y-112809047D01*
X133769761Y-112904285D01*
X133722142Y-112951904D01*
X133626904Y-112999523D01*
X132817380Y-112999523D01*
X133150714Y-113904285D02*
X133817380Y-113904285D01*
X132769761Y-113666190D02*
X133484047Y-113428095D01*
X133484047Y-114047142D01*
%TO.C,U3*%
X196953380Y-80428095D02*
X197762904Y-80428095D01*
X197858142Y-80475714D01*
X197905761Y-80523333D01*
X197953380Y-80618571D01*
X197953380Y-80809047D01*
X197905761Y-80904285D01*
X197858142Y-80951904D01*
X197762904Y-80999523D01*
X196953380Y-80999523D01*
X196953380Y-81380476D02*
X196953380Y-81999523D01*
X197334333Y-81666190D01*
X197334333Y-81809047D01*
X197381952Y-81904285D01*
X197429571Y-81951904D01*
X197524809Y-81999523D01*
X197762904Y-81999523D01*
X197858142Y-81951904D01*
X197905761Y-81904285D01*
X197953380Y-81809047D01*
X197953380Y-81523333D01*
X197905761Y-81428095D01*
X197858142Y-81380476D01*
%TO.C,U2*%
X164933380Y-80518095D02*
X165742904Y-80518095D01*
X165838142Y-80565714D01*
X165885761Y-80613333D01*
X165933380Y-80708571D01*
X165933380Y-80899047D01*
X165885761Y-80994285D01*
X165838142Y-81041904D01*
X165742904Y-81089523D01*
X164933380Y-81089523D01*
X165028619Y-81518095D02*
X164981000Y-81565714D01*
X164933380Y-81660952D01*
X164933380Y-81899047D01*
X164981000Y-81994285D01*
X165028619Y-82041904D01*
X165123857Y-82089523D01*
X165219095Y-82089523D01*
X165361952Y-82041904D01*
X165933380Y-81470476D01*
X165933380Y-82089523D01*
%TO.C,R6*%
X177831666Y-106822380D02*
X178165000Y-106346190D01*
X178403095Y-106822380D02*
X178403095Y-105822380D01*
X178022142Y-105822380D01*
X177926904Y-105870000D01*
X177879285Y-105917619D01*
X177831666Y-106012857D01*
X177831666Y-106155714D01*
X177879285Y-106250952D01*
X177926904Y-106298571D01*
X178022142Y-106346190D01*
X178403095Y-106346190D01*
X176974523Y-105822380D02*
X177165000Y-105822380D01*
X177260238Y-105870000D01*
X177307857Y-105917619D01*
X177403095Y-106060476D01*
X177450714Y-106250952D01*
X177450714Y-106631904D01*
X177403095Y-106727142D01*
X177355476Y-106774761D01*
X177260238Y-106822380D01*
X177069761Y-106822380D01*
X176974523Y-106774761D01*
X176926904Y-106727142D01*
X176879285Y-106631904D01*
X176879285Y-106393809D01*
X176926904Y-106298571D01*
X176974523Y-106250952D01*
X177069761Y-106203333D01*
X177260238Y-106203333D01*
X177355476Y-106250952D01*
X177403095Y-106298571D01*
X177450714Y-106393809D01*
%TO.C,R5*%
X145831666Y-106822380D02*
X146165000Y-106346190D01*
X146403095Y-106822380D02*
X146403095Y-105822380D01*
X146022142Y-105822380D01*
X145926904Y-105870000D01*
X145879285Y-105917619D01*
X145831666Y-106012857D01*
X145831666Y-106155714D01*
X145879285Y-106250952D01*
X145926904Y-106298571D01*
X146022142Y-106346190D01*
X146403095Y-106346190D01*
X144926904Y-105822380D02*
X145403095Y-105822380D01*
X145450714Y-106298571D01*
X145403095Y-106250952D01*
X145307857Y-106203333D01*
X145069761Y-106203333D01*
X144974523Y-106250952D01*
X144926904Y-106298571D01*
X144879285Y-106393809D01*
X144879285Y-106631904D01*
X144926904Y-106727142D01*
X144974523Y-106774761D01*
X145069761Y-106822380D01*
X145307857Y-106822380D01*
X145403095Y-106774761D01*
X145450714Y-106727142D01*
%TO.C,R4*%
X113831666Y-106822380D02*
X114165000Y-106346190D01*
X114403095Y-106822380D02*
X114403095Y-105822380D01*
X114022142Y-105822380D01*
X113926904Y-105870000D01*
X113879285Y-105917619D01*
X113831666Y-106012857D01*
X113831666Y-106155714D01*
X113879285Y-106250952D01*
X113926904Y-106298571D01*
X114022142Y-106346190D01*
X114403095Y-106346190D01*
X112974523Y-106155714D02*
X112974523Y-106822380D01*
X113212619Y-105774761D02*
X113450714Y-106489047D01*
X112831666Y-106489047D01*
%TO.C,R3*%
X177831666Y-74822380D02*
X178165000Y-74346190D01*
X178403095Y-74822380D02*
X178403095Y-73822380D01*
X178022142Y-73822380D01*
X177926904Y-73870000D01*
X177879285Y-73917619D01*
X177831666Y-74012857D01*
X177831666Y-74155714D01*
X177879285Y-74250952D01*
X177926904Y-74298571D01*
X178022142Y-74346190D01*
X178403095Y-74346190D01*
X177498333Y-73822380D02*
X176879285Y-73822380D01*
X177212619Y-74203333D01*
X177069761Y-74203333D01*
X176974523Y-74250952D01*
X176926904Y-74298571D01*
X176879285Y-74393809D01*
X176879285Y-74631904D01*
X176926904Y-74727142D01*
X176974523Y-74774761D01*
X177069761Y-74822380D01*
X177355476Y-74822380D01*
X177450714Y-74774761D01*
X177498333Y-74727142D01*
%TO.C,R2*%
X145831666Y-74822380D02*
X146165000Y-74346190D01*
X146403095Y-74822380D02*
X146403095Y-73822380D01*
X146022142Y-73822380D01*
X145926904Y-73870000D01*
X145879285Y-73917619D01*
X145831666Y-74012857D01*
X145831666Y-74155714D01*
X145879285Y-74250952D01*
X145926904Y-74298571D01*
X146022142Y-74346190D01*
X146403095Y-74346190D01*
X145450714Y-73917619D02*
X145403095Y-73870000D01*
X145307857Y-73822380D01*
X145069761Y-73822380D01*
X144974523Y-73870000D01*
X144926904Y-73917619D01*
X144879285Y-74012857D01*
X144879285Y-74108095D01*
X144926904Y-74250952D01*
X145498333Y-74822380D01*
X144879285Y-74822380D01*
%TO.C,C12*%
X197442857Y-107607142D02*
X197490476Y-107654761D01*
X197633333Y-107702380D01*
X197728571Y-107702380D01*
X197871428Y-107654761D01*
X197966666Y-107559523D01*
X198014285Y-107464285D01*
X198061904Y-107273809D01*
X198061904Y-107130952D01*
X198014285Y-106940476D01*
X197966666Y-106845238D01*
X197871428Y-106750000D01*
X197728571Y-106702380D01*
X197633333Y-106702380D01*
X197490476Y-106750000D01*
X197442857Y-106797619D01*
X196490476Y-107702380D02*
X197061904Y-107702380D01*
X196776190Y-107702380D02*
X196776190Y-106702380D01*
X196871428Y-106845238D01*
X196966666Y-106940476D01*
X197061904Y-106988095D01*
X196109523Y-106797619D02*
X196061904Y-106750000D01*
X195966666Y-106702380D01*
X195728571Y-106702380D01*
X195633333Y-106750000D01*
X195585714Y-106797619D01*
X195538095Y-106892857D01*
X195538095Y-106988095D01*
X195585714Y-107130952D01*
X196157142Y-107702380D01*
X195538095Y-107702380D01*
%TO.C,C11*%
X165442857Y-107607142D02*
X165490476Y-107654761D01*
X165633333Y-107702380D01*
X165728571Y-107702380D01*
X165871428Y-107654761D01*
X165966666Y-107559523D01*
X166014285Y-107464285D01*
X166061904Y-107273809D01*
X166061904Y-107130952D01*
X166014285Y-106940476D01*
X165966666Y-106845238D01*
X165871428Y-106750000D01*
X165728571Y-106702380D01*
X165633333Y-106702380D01*
X165490476Y-106750000D01*
X165442857Y-106797619D01*
X164490476Y-107702380D02*
X165061904Y-107702380D01*
X164776190Y-107702380D02*
X164776190Y-106702380D01*
X164871428Y-106845238D01*
X164966666Y-106940476D01*
X165061904Y-106988095D01*
X163538095Y-107702380D02*
X164109523Y-107702380D01*
X163823809Y-107702380D02*
X163823809Y-106702380D01*
X163919047Y-106845238D01*
X164014285Y-106940476D01*
X164109523Y-106988095D01*
%TO.C,C10*%
X133442857Y-107607142D02*
X133490476Y-107654761D01*
X133633333Y-107702380D01*
X133728571Y-107702380D01*
X133871428Y-107654761D01*
X133966666Y-107559523D01*
X134014285Y-107464285D01*
X134061904Y-107273809D01*
X134061904Y-107130952D01*
X134014285Y-106940476D01*
X133966666Y-106845238D01*
X133871428Y-106750000D01*
X133728571Y-106702380D01*
X133633333Y-106702380D01*
X133490476Y-106750000D01*
X133442857Y-106797619D01*
X132490476Y-107702380D02*
X133061904Y-107702380D01*
X132776190Y-107702380D02*
X132776190Y-106702380D01*
X132871428Y-106845238D01*
X132966666Y-106940476D01*
X133061904Y-106988095D01*
X131871428Y-106702380D02*
X131776190Y-106702380D01*
X131680952Y-106750000D01*
X131633333Y-106797619D01*
X131585714Y-106892857D01*
X131538095Y-107083333D01*
X131538095Y-107321428D01*
X131585714Y-107511904D01*
X131633333Y-107607142D01*
X131680952Y-107654761D01*
X131776190Y-107702380D01*
X131871428Y-107702380D01*
X131966666Y-107654761D01*
X132014285Y-107607142D01*
X132061904Y-107511904D01*
X132109523Y-107321428D01*
X132109523Y-107083333D01*
X132061904Y-106892857D01*
X132014285Y-106797619D01*
X131966666Y-106750000D01*
X131871428Y-106702380D01*
%TO.C,C9*%
X189166666Y-106557142D02*
X189214285Y-106604761D01*
X189357142Y-106652380D01*
X189452380Y-106652380D01*
X189595238Y-106604761D01*
X189690476Y-106509523D01*
X189738095Y-106414285D01*
X189785714Y-106223809D01*
X189785714Y-106080952D01*
X189738095Y-105890476D01*
X189690476Y-105795238D01*
X189595238Y-105700000D01*
X189452380Y-105652380D01*
X189357142Y-105652380D01*
X189214285Y-105700000D01*
X189166666Y-105747619D01*
X188690476Y-106652380D02*
X188500000Y-106652380D01*
X188404761Y-106604761D01*
X188357142Y-106557142D01*
X188261904Y-106414285D01*
X188214285Y-106223809D01*
X188214285Y-105842857D01*
X188261904Y-105747619D01*
X188309523Y-105700000D01*
X188404761Y-105652380D01*
X188595238Y-105652380D01*
X188690476Y-105700000D01*
X188738095Y-105747619D01*
X188785714Y-105842857D01*
X188785714Y-106080952D01*
X188738095Y-106176190D01*
X188690476Y-106223809D01*
X188595238Y-106271428D01*
X188404761Y-106271428D01*
X188309523Y-106223809D01*
X188261904Y-106176190D01*
X188214285Y-106080952D01*
%TO.C,C8*%
X157166666Y-106557142D02*
X157214285Y-106604761D01*
X157357142Y-106652380D01*
X157452380Y-106652380D01*
X157595238Y-106604761D01*
X157690476Y-106509523D01*
X157738095Y-106414285D01*
X157785714Y-106223809D01*
X157785714Y-106080952D01*
X157738095Y-105890476D01*
X157690476Y-105795238D01*
X157595238Y-105700000D01*
X157452380Y-105652380D01*
X157357142Y-105652380D01*
X157214285Y-105700000D01*
X157166666Y-105747619D01*
X156595238Y-106080952D02*
X156690476Y-106033333D01*
X156738095Y-105985714D01*
X156785714Y-105890476D01*
X156785714Y-105842857D01*
X156738095Y-105747619D01*
X156690476Y-105700000D01*
X156595238Y-105652380D01*
X156404761Y-105652380D01*
X156309523Y-105700000D01*
X156261904Y-105747619D01*
X156214285Y-105842857D01*
X156214285Y-105890476D01*
X156261904Y-105985714D01*
X156309523Y-106033333D01*
X156404761Y-106080952D01*
X156595238Y-106080952D01*
X156690476Y-106128571D01*
X156738095Y-106176190D01*
X156785714Y-106271428D01*
X156785714Y-106461904D01*
X156738095Y-106557142D01*
X156690476Y-106604761D01*
X156595238Y-106652380D01*
X156404761Y-106652380D01*
X156309523Y-106604761D01*
X156261904Y-106557142D01*
X156214285Y-106461904D01*
X156214285Y-106271428D01*
X156261904Y-106176190D01*
X156309523Y-106128571D01*
X156404761Y-106080952D01*
%TO.C,C7*%
X125166666Y-106557142D02*
X125214285Y-106604761D01*
X125357142Y-106652380D01*
X125452380Y-106652380D01*
X125595238Y-106604761D01*
X125690476Y-106509523D01*
X125738095Y-106414285D01*
X125785714Y-106223809D01*
X125785714Y-106080952D01*
X125738095Y-105890476D01*
X125690476Y-105795238D01*
X125595238Y-105700000D01*
X125452380Y-105652380D01*
X125357142Y-105652380D01*
X125214285Y-105700000D01*
X125166666Y-105747619D01*
X124833333Y-105652380D02*
X124166666Y-105652380D01*
X124595238Y-106652380D01*
%TO.C,C6*%
X196966666Y-75607142D02*
X197014285Y-75654761D01*
X197157142Y-75702380D01*
X197252380Y-75702380D01*
X197395238Y-75654761D01*
X197490476Y-75559523D01*
X197538095Y-75464285D01*
X197585714Y-75273809D01*
X197585714Y-75130952D01*
X197538095Y-74940476D01*
X197490476Y-74845238D01*
X197395238Y-74750000D01*
X197252380Y-74702380D01*
X197157142Y-74702380D01*
X197014285Y-74750000D01*
X196966666Y-74797619D01*
X196109523Y-74702380D02*
X196300000Y-74702380D01*
X196395238Y-74750000D01*
X196442857Y-74797619D01*
X196538095Y-74940476D01*
X196585714Y-75130952D01*
X196585714Y-75511904D01*
X196538095Y-75607142D01*
X196490476Y-75654761D01*
X196395238Y-75702380D01*
X196204761Y-75702380D01*
X196109523Y-75654761D01*
X196061904Y-75607142D01*
X196014285Y-75511904D01*
X196014285Y-75273809D01*
X196061904Y-75178571D01*
X196109523Y-75130952D01*
X196204761Y-75083333D01*
X196395238Y-75083333D01*
X196490476Y-75130952D01*
X196538095Y-75178571D01*
X196585714Y-75273809D01*
%TO.C,C5*%
X164966666Y-75607142D02*
X165014285Y-75654761D01*
X165157142Y-75702380D01*
X165252380Y-75702380D01*
X165395238Y-75654761D01*
X165490476Y-75559523D01*
X165538095Y-75464285D01*
X165585714Y-75273809D01*
X165585714Y-75130952D01*
X165538095Y-74940476D01*
X165490476Y-74845238D01*
X165395238Y-74750000D01*
X165252380Y-74702380D01*
X165157142Y-74702380D01*
X165014285Y-74750000D01*
X164966666Y-74797619D01*
X164061904Y-74702380D02*
X164538095Y-74702380D01*
X164585714Y-75178571D01*
X164538095Y-75130952D01*
X164442857Y-75083333D01*
X164204761Y-75083333D01*
X164109523Y-75130952D01*
X164061904Y-75178571D01*
X164014285Y-75273809D01*
X164014285Y-75511904D01*
X164061904Y-75607142D01*
X164109523Y-75654761D01*
X164204761Y-75702380D01*
X164442857Y-75702380D01*
X164538095Y-75654761D01*
X164585714Y-75607142D01*
%TO.C,C3*%
X189166666Y-74557142D02*
X189214285Y-74604761D01*
X189357142Y-74652380D01*
X189452380Y-74652380D01*
X189595238Y-74604761D01*
X189690476Y-74509523D01*
X189738095Y-74414285D01*
X189785714Y-74223809D01*
X189785714Y-74080952D01*
X189738095Y-73890476D01*
X189690476Y-73795238D01*
X189595238Y-73700000D01*
X189452380Y-73652380D01*
X189357142Y-73652380D01*
X189214285Y-73700000D01*
X189166666Y-73747619D01*
X188833333Y-73652380D02*
X188214285Y-73652380D01*
X188547619Y-74033333D01*
X188404761Y-74033333D01*
X188309523Y-74080952D01*
X188261904Y-74128571D01*
X188214285Y-74223809D01*
X188214285Y-74461904D01*
X188261904Y-74557142D01*
X188309523Y-74604761D01*
X188404761Y-74652380D01*
X188690476Y-74652380D01*
X188785714Y-74604761D01*
X188833333Y-74557142D01*
%TO.C,C2*%
X157166666Y-74557142D02*
X157214285Y-74604761D01*
X157357142Y-74652380D01*
X157452380Y-74652380D01*
X157595238Y-74604761D01*
X157690476Y-74509523D01*
X157738095Y-74414285D01*
X157785714Y-74223809D01*
X157785714Y-74080952D01*
X157738095Y-73890476D01*
X157690476Y-73795238D01*
X157595238Y-73700000D01*
X157452380Y-73652380D01*
X157357142Y-73652380D01*
X157214285Y-73700000D01*
X157166666Y-73747619D01*
X156785714Y-73747619D02*
X156738095Y-73700000D01*
X156642857Y-73652380D01*
X156404761Y-73652380D01*
X156309523Y-73700000D01*
X156261904Y-73747619D01*
X156214285Y-73842857D01*
X156214285Y-73938095D01*
X156261904Y-74080952D01*
X156833333Y-74652380D01*
X156214285Y-74652380D01*
%TD*%
M02*
