%TF.GenerationSoftware,KiCad,Pcbnew,5.1.10-88a1d61d58~88~ubuntu20.04.1*%
%TF.CreationDate,2021-05-02T13:02:05-03:00*%
%TF.ProjectId,D3_Face,44335f46-6163-4652-9e6b-696361645f70,v01*%
%TF.SameCoordinates,Original*%
%TF.FileFunction,Soldermask,Top*%
%TF.FilePolarity,Negative*%
%FSLAX46Y46*%
G04 Gerber Fmt 4.6, Leading zero omitted, Abs format (unit mm)*
G04 Created by KiCad (PCBNEW 5.1.10-88a1d61d58~88~ubuntu20.04.1) date 2021-05-02 13:02:05*
%MOMM*%
%LPD*%
G01*
G04 APERTURE LIST*
%ADD10C,4.600000*%
%ADD11O,1.800000X1.800000*%
%ADD12O,1.700000X2.500000*%
%ADD13C,1.624000*%
%ADD14C,1.300000*%
%ADD15C,1.700000*%
%ADD16O,1.700000X1.700000*%
G04 APERTURE END LIST*
D10*
%TO.C,REF\u002A\u002A*%
X106500000Y-65500000D03*
%TD*%
%TO.C,REF\u002A\u002A*%
X197500000Y-65500000D03*
%TD*%
%TO.C,REF\u002A\u002A*%
X197500000Y-126500000D03*
%TD*%
%TO.C,REF\u002A\u002A*%
X106500000Y-126500000D03*
%TD*%
D11*
%TO.C,J1*%
X105854500Y-101092000D03*
X105854500Y-98552000D03*
X105854500Y-96012000D03*
X105854500Y-93472000D03*
G36*
G01*
X106754500Y-90082000D02*
X106754500Y-91782000D01*
G75*
G02*
X106704500Y-91832000I-50000J0D01*
G01*
X105004500Y-91832000D01*
G75*
G02*
X104954500Y-91782000I0J50000D01*
G01*
X104954500Y-90082000D01*
G75*
G02*
X105004500Y-90032000I50000J0D01*
G01*
X106704500Y-90032000D01*
G75*
G02*
X106754500Y-90082000I0J-50000D01*
G01*
G37*
%TD*%
%TO.C,U1*%
G36*
G01*
X134800000Y-86250000D02*
X133200000Y-86250000D01*
G75*
G02*
X133150000Y-86200000I0J50000D01*
G01*
X133150000Y-83800000D01*
G75*
G02*
X133200000Y-83750000I50000J0D01*
G01*
X134800000Y-83750000D01*
G75*
G02*
X134850000Y-83800000I0J-50000D01*
G01*
X134850000Y-86200000D01*
G75*
G02*
X134800000Y-86250000I-50000J0D01*
G01*
G37*
D12*
X106060000Y-77380000D03*
X131460000Y-85000000D03*
X108600000Y-77380000D03*
X128920000Y-85000000D03*
X111140000Y-77380000D03*
X126380000Y-85000000D03*
X113680000Y-77380000D03*
X123840000Y-85000000D03*
X116220000Y-77380000D03*
X121300000Y-85000000D03*
X118760000Y-77380000D03*
X118760000Y-85000000D03*
X121300000Y-77380000D03*
X116220000Y-85000000D03*
X123840000Y-77380000D03*
X113680000Y-85000000D03*
X126380000Y-77380000D03*
X111140000Y-85000000D03*
X128920000Y-77380000D03*
X108600000Y-85000000D03*
X131460000Y-77380000D03*
X106060000Y-85000000D03*
X134000000Y-77380000D03*
%TD*%
D13*
%TO.C,LED1*%
X128890000Y-92000000D03*
X126350000Y-92000000D03*
X123810000Y-92000000D03*
X121270000Y-92000000D03*
X118730000Y-92000000D03*
X116190000Y-92000000D03*
X113650000Y-92000000D03*
X111110000Y-92000000D03*
X128890000Y-68000000D03*
X126350000Y-68000000D03*
X123810000Y-68000000D03*
X121270000Y-68000000D03*
X118730000Y-68000000D03*
X116190000Y-68000000D03*
X113650000Y-68000000D03*
X111110000Y-68000000D03*
%TD*%
D14*
%TO.C,C4*%
X133800000Y-72000000D03*
G36*
G01*
X131150000Y-72600000D02*
X131150000Y-71400000D01*
G75*
G02*
X131200000Y-71350000I50000J0D01*
G01*
X132400000Y-71350000D01*
G75*
G02*
X132450000Y-71400000I0J-50000D01*
G01*
X132450000Y-72600000D01*
G75*
G02*
X132400000Y-72650000I-50000J0D01*
G01*
X131200000Y-72650000D01*
G75*
G02*
X131150000Y-72600000I0J50000D01*
G01*
G37*
%TD*%
D15*
%TO.C,C1*%
X127500000Y-72000000D03*
X122500000Y-72000000D03*
%TD*%
D16*
%TO.C,R1*%
X118745000Y-72000000D03*
D15*
X108585000Y-72000000D03*
%TD*%
D13*
%TO.C,LED4*%
X128890000Y-124000000D03*
X126350000Y-124000000D03*
X123810000Y-124000000D03*
X121270000Y-124000000D03*
X118730000Y-124000000D03*
X116190000Y-124000000D03*
X113650000Y-124000000D03*
X111110000Y-124000000D03*
X128890000Y-100000000D03*
X126350000Y-100000000D03*
X123810000Y-100000000D03*
X121270000Y-100000000D03*
X118730000Y-100000000D03*
X116190000Y-100000000D03*
X113650000Y-100000000D03*
X111110000Y-100000000D03*
%TD*%
D12*
%TO.C,U6*%
X198000000Y-109380000D03*
X170060000Y-117000000D03*
X195460000Y-109380000D03*
X172600000Y-117000000D03*
X192920000Y-109380000D03*
X175140000Y-117000000D03*
X190380000Y-109380000D03*
X177680000Y-117000000D03*
X187840000Y-109380000D03*
X180220000Y-117000000D03*
X185300000Y-109380000D03*
X182760000Y-117000000D03*
X182760000Y-109380000D03*
X185300000Y-117000000D03*
X180220000Y-109380000D03*
X187840000Y-117000000D03*
X177680000Y-109380000D03*
X190380000Y-117000000D03*
X175140000Y-109380000D03*
X192920000Y-117000000D03*
X172600000Y-109380000D03*
X195460000Y-117000000D03*
X170060000Y-109380000D03*
G36*
G01*
X198800000Y-118250000D02*
X197200000Y-118250000D01*
G75*
G02*
X197150000Y-118200000I0J50000D01*
G01*
X197150000Y-115800000D01*
G75*
G02*
X197200000Y-115750000I50000J0D01*
G01*
X198800000Y-115750000D01*
G75*
G02*
X198850000Y-115800000I0J-50000D01*
G01*
X198850000Y-118200000D01*
G75*
G02*
X198800000Y-118250000I-50000J0D01*
G01*
G37*
%TD*%
%TO.C,U5*%
X166000000Y-109380000D03*
X138060000Y-117000000D03*
X163460000Y-109380000D03*
X140600000Y-117000000D03*
X160920000Y-109380000D03*
X143140000Y-117000000D03*
X158380000Y-109380000D03*
X145680000Y-117000000D03*
X155840000Y-109380000D03*
X148220000Y-117000000D03*
X153300000Y-109380000D03*
X150760000Y-117000000D03*
X150760000Y-109380000D03*
X153300000Y-117000000D03*
X148220000Y-109380000D03*
X155840000Y-117000000D03*
X145680000Y-109380000D03*
X158380000Y-117000000D03*
X143140000Y-109380000D03*
X160920000Y-117000000D03*
X140600000Y-109380000D03*
X163460000Y-117000000D03*
X138060000Y-109380000D03*
G36*
G01*
X166800000Y-118250000D02*
X165200000Y-118250000D01*
G75*
G02*
X165150000Y-118200000I0J50000D01*
G01*
X165150000Y-115800000D01*
G75*
G02*
X165200000Y-115750000I50000J0D01*
G01*
X166800000Y-115750000D01*
G75*
G02*
X166850000Y-115800000I0J-50000D01*
G01*
X166850000Y-118200000D01*
G75*
G02*
X166800000Y-118250000I-50000J0D01*
G01*
G37*
%TD*%
%TO.C,U4*%
G36*
G01*
X134800000Y-118250000D02*
X133200000Y-118250000D01*
G75*
G02*
X133150000Y-118200000I0J50000D01*
G01*
X133150000Y-115800000D01*
G75*
G02*
X133200000Y-115750000I50000J0D01*
G01*
X134800000Y-115750000D01*
G75*
G02*
X134850000Y-115800000I0J-50000D01*
G01*
X134850000Y-118200000D01*
G75*
G02*
X134800000Y-118250000I-50000J0D01*
G01*
G37*
X106060000Y-109380000D03*
X131460000Y-117000000D03*
X108600000Y-109380000D03*
X128920000Y-117000000D03*
X111140000Y-109380000D03*
X126380000Y-117000000D03*
X113680000Y-109380000D03*
X123840000Y-117000000D03*
X116220000Y-109380000D03*
X121300000Y-117000000D03*
X118760000Y-109380000D03*
X118760000Y-117000000D03*
X121300000Y-109380000D03*
X116220000Y-117000000D03*
X123840000Y-109380000D03*
X113680000Y-117000000D03*
X126380000Y-109380000D03*
X111140000Y-117000000D03*
X128920000Y-109380000D03*
X108600000Y-117000000D03*
X131460000Y-109380000D03*
X106060000Y-117000000D03*
X134000000Y-109380000D03*
%TD*%
%TO.C,U3*%
X198000000Y-77380000D03*
X170060000Y-85000000D03*
X195460000Y-77380000D03*
X172600000Y-85000000D03*
X192920000Y-77380000D03*
X175140000Y-85000000D03*
X190380000Y-77380000D03*
X177680000Y-85000000D03*
X187840000Y-77380000D03*
X180220000Y-85000000D03*
X185300000Y-77380000D03*
X182760000Y-85000000D03*
X182760000Y-77380000D03*
X185300000Y-85000000D03*
X180220000Y-77380000D03*
X187840000Y-85000000D03*
X177680000Y-77380000D03*
X190380000Y-85000000D03*
X175140000Y-77380000D03*
X192920000Y-85000000D03*
X172600000Y-77380000D03*
X195460000Y-85000000D03*
X170060000Y-77380000D03*
G36*
G01*
X198800000Y-86250000D02*
X197200000Y-86250000D01*
G75*
G02*
X197150000Y-86200000I0J50000D01*
G01*
X197150000Y-83800000D01*
G75*
G02*
X197200000Y-83750000I50000J0D01*
G01*
X198800000Y-83750000D01*
G75*
G02*
X198850000Y-83800000I0J-50000D01*
G01*
X198850000Y-86200000D01*
G75*
G02*
X198800000Y-86250000I-50000J0D01*
G01*
G37*
%TD*%
%TO.C,U2*%
X166000000Y-77380000D03*
X138060000Y-85000000D03*
X163460000Y-77380000D03*
X140600000Y-85000000D03*
X160920000Y-77380000D03*
X143140000Y-85000000D03*
X158380000Y-77380000D03*
X145680000Y-85000000D03*
X155840000Y-77380000D03*
X148220000Y-85000000D03*
X153300000Y-77380000D03*
X150760000Y-85000000D03*
X150760000Y-77380000D03*
X153300000Y-85000000D03*
X148220000Y-77380000D03*
X155840000Y-85000000D03*
X145680000Y-77380000D03*
X158380000Y-85000000D03*
X143140000Y-77380000D03*
X160920000Y-85000000D03*
X140600000Y-77380000D03*
X163460000Y-85000000D03*
X138060000Y-77380000D03*
G36*
G01*
X166800000Y-86250000D02*
X165200000Y-86250000D01*
G75*
G02*
X165150000Y-86200000I0J50000D01*
G01*
X165150000Y-83800000D01*
G75*
G02*
X165200000Y-83750000I50000J0D01*
G01*
X166800000Y-83750000D01*
G75*
G02*
X166850000Y-83800000I0J-50000D01*
G01*
X166850000Y-86200000D01*
G75*
G02*
X166800000Y-86250000I-50000J0D01*
G01*
G37*
%TD*%
D16*
%TO.C,R6*%
X182745000Y-104000000D03*
D15*
X172585000Y-104000000D03*
%TD*%
D16*
%TO.C,R5*%
X150745000Y-104000000D03*
D15*
X140585000Y-104000000D03*
%TD*%
D16*
%TO.C,R4*%
X118745000Y-104000000D03*
D15*
X108585000Y-104000000D03*
%TD*%
D16*
%TO.C,R3*%
X182745000Y-72000000D03*
D15*
X172585000Y-72000000D03*
%TD*%
D16*
%TO.C,R2*%
X150745000Y-72000000D03*
D15*
X140585000Y-72000000D03*
%TD*%
D13*
%TO.C,LED6*%
X192890000Y-124000000D03*
X190350000Y-124000000D03*
X187810000Y-124000000D03*
X185270000Y-124000000D03*
X182730000Y-124000000D03*
X180190000Y-124000000D03*
X177650000Y-124000000D03*
X175110000Y-124000000D03*
X192890000Y-100000000D03*
X190350000Y-100000000D03*
X187810000Y-100000000D03*
X185270000Y-100000000D03*
X182730000Y-100000000D03*
X180190000Y-100000000D03*
X177650000Y-100000000D03*
X175110000Y-100000000D03*
%TD*%
%TO.C,LED5*%
X160890000Y-124000000D03*
X158350000Y-124000000D03*
X155810000Y-124000000D03*
X153270000Y-124000000D03*
X150730000Y-124000000D03*
X148190000Y-124000000D03*
X145650000Y-124000000D03*
X143110000Y-124000000D03*
X160890000Y-100000000D03*
X158350000Y-100000000D03*
X155810000Y-100000000D03*
X153270000Y-100000000D03*
X150730000Y-100000000D03*
X148190000Y-100000000D03*
X145650000Y-100000000D03*
X143110000Y-100000000D03*
%TD*%
%TO.C,LED3*%
X192890000Y-92000000D03*
X190350000Y-92000000D03*
X187810000Y-92000000D03*
X185270000Y-92000000D03*
X182730000Y-92000000D03*
X180190000Y-92000000D03*
X177650000Y-92000000D03*
X175110000Y-92000000D03*
X192890000Y-68000000D03*
X190350000Y-68000000D03*
X187810000Y-68000000D03*
X185270000Y-68000000D03*
X182730000Y-68000000D03*
X180190000Y-68000000D03*
X177650000Y-68000000D03*
X175110000Y-68000000D03*
%TD*%
%TO.C,LED2*%
X160890000Y-92000000D03*
X158350000Y-92000000D03*
X155810000Y-92000000D03*
X153270000Y-92000000D03*
X150730000Y-92000000D03*
X148190000Y-92000000D03*
X145650000Y-92000000D03*
X143110000Y-92000000D03*
X160890000Y-68000000D03*
X158350000Y-68000000D03*
X155810000Y-68000000D03*
X153270000Y-68000000D03*
X150730000Y-68000000D03*
X148190000Y-68000000D03*
X145650000Y-68000000D03*
X143110000Y-68000000D03*
%TD*%
D14*
%TO.C,C12*%
X197800000Y-104000000D03*
G36*
G01*
X195150000Y-104600000D02*
X195150000Y-103400000D01*
G75*
G02*
X195200000Y-103350000I50000J0D01*
G01*
X196400000Y-103350000D01*
G75*
G02*
X196450000Y-103400000I0J-50000D01*
G01*
X196450000Y-104600000D01*
G75*
G02*
X196400000Y-104650000I-50000J0D01*
G01*
X195200000Y-104650000D01*
G75*
G02*
X195150000Y-104600000I0J50000D01*
G01*
G37*
%TD*%
%TO.C,C11*%
X165800000Y-104000000D03*
G36*
G01*
X163150000Y-104600000D02*
X163150000Y-103400000D01*
G75*
G02*
X163200000Y-103350000I50000J0D01*
G01*
X164400000Y-103350000D01*
G75*
G02*
X164450000Y-103400000I0J-50000D01*
G01*
X164450000Y-104600000D01*
G75*
G02*
X164400000Y-104650000I-50000J0D01*
G01*
X163200000Y-104650000D01*
G75*
G02*
X163150000Y-104600000I0J50000D01*
G01*
G37*
%TD*%
%TO.C,C10*%
X133800000Y-104000000D03*
G36*
G01*
X131150000Y-104600000D02*
X131150000Y-103400000D01*
G75*
G02*
X131200000Y-103350000I50000J0D01*
G01*
X132400000Y-103350000D01*
G75*
G02*
X132450000Y-103400000I0J-50000D01*
G01*
X132450000Y-104600000D01*
G75*
G02*
X132400000Y-104650000I-50000J0D01*
G01*
X131200000Y-104650000D01*
G75*
G02*
X131150000Y-104600000I0J50000D01*
G01*
G37*
%TD*%
D15*
%TO.C,C9*%
X191500000Y-104000000D03*
X186500000Y-104000000D03*
%TD*%
%TO.C,C8*%
X159500000Y-104000000D03*
X154500000Y-104000000D03*
%TD*%
%TO.C,C7*%
X127500000Y-104000000D03*
X122500000Y-104000000D03*
%TD*%
D14*
%TO.C,C6*%
X197800000Y-72000000D03*
G36*
G01*
X195150000Y-72600000D02*
X195150000Y-71400000D01*
G75*
G02*
X195200000Y-71350000I50000J0D01*
G01*
X196400000Y-71350000D01*
G75*
G02*
X196450000Y-71400000I0J-50000D01*
G01*
X196450000Y-72600000D01*
G75*
G02*
X196400000Y-72650000I-50000J0D01*
G01*
X195200000Y-72650000D01*
G75*
G02*
X195150000Y-72600000I0J50000D01*
G01*
G37*
%TD*%
%TO.C,C5*%
X165800000Y-72000000D03*
G36*
G01*
X163150000Y-72600000D02*
X163150000Y-71400000D01*
G75*
G02*
X163200000Y-71350000I50000J0D01*
G01*
X164400000Y-71350000D01*
G75*
G02*
X164450000Y-71400000I0J-50000D01*
G01*
X164450000Y-72600000D01*
G75*
G02*
X164400000Y-72650000I-50000J0D01*
G01*
X163200000Y-72650000D01*
G75*
G02*
X163150000Y-72600000I0J50000D01*
G01*
G37*
%TD*%
D15*
%TO.C,C3*%
X191500000Y-72000000D03*
X186500000Y-72000000D03*
%TD*%
%TO.C,C2*%
X159500000Y-72000000D03*
X154500000Y-72000000D03*
%TD*%
M02*
