M48
; DRILL file {KiCad 5.1.10-88a1d61d58~88~ubuntu20.04.1} date Sun May  2 12:58:38 2021
; FORMAT={-:-/ absolute / inch / decimal}
; #@! TF.CreationDate,2021-05-02T12:58:38-03:00
; #@! TF.GenerationSoftware,Kicad,Pcbnew,5.1.10-88a1d61d58~88~ubuntu20.04.1
; #@! TF.FileFunction,Plated,1,2,PTH
FMAT,2
INCH
T1C0.0295
T2C0.0300
T3C0.0315
T4C0.0374
T5C0.0394
T6C0.0400
T7C0.0512
T8C0.1772
%
G90
G05
T1
X2.23Y-1.735
X2.23Y-1.985
X2.23Y-2.395
X2.23Y-2.645
X2.28Y-1.735
X2.28Y-1.985
X2.28Y-2.395
X2.28Y-2.645
X2.33Y-1.735
X2.33Y-1.985
X2.33Y-2.395
X2.33Y-2.645
T2
X3.3475Y-2.23
X3.3475Y-2.33
X3.3475Y-2.43
X3.3475Y-2.53
X3.3475Y-2.63
X3.3475Y-2.73
X3.3475Y-2.83
X3.3475Y-2.93
X3.35Y-1.5275
X3.35Y-1.6275
X3.35Y-1.7275
X3.35Y-1.8275
T3
X0.6975Y-0.9825
X0.6975Y-1.3825
X0.86Y-0.9825
X0.86Y-1.3825
X0.9075Y-1.6225
X0.9075Y-1.78
X1.3075Y-1.6225
X1.3075Y-1.78
X2.475Y-1.695
X2.475Y-1.855
X2.475Y-2.015
X2.475Y-2.345
X2.475Y-2.505
X2.475Y-2.665
X2.875Y-1.695
X2.875Y-1.855
X2.875Y-2.015
X2.875Y-2.345
X2.875Y-2.505
X2.875Y-2.665
T4
X2.7079Y-0.3025
X2.8063Y-0.3025
X2.9047Y-0.3025
X3.0031Y-0.3025
X3.1016Y-0.3025
X3.2Y-0.3025
X3.4404Y-0.305
X3.5388Y-0.305
X3.6372Y-0.305
X3.7356Y-0.305
X3.8341Y-0.305
X3.9325Y-0.305
T5
X0.2925Y-1.9975
X0.2925Y-2.6725
X0.3631Y-1.615
X0.38Y-0.8825
X0.38Y-0.9825
X0.38Y-1.0825
X0.56Y-1.615
X1.8475Y-1.9975
X1.8475Y-2.6725
X3.04Y-3.14
X3.09Y-1.745
X3.09Y-1.845
X3.09Y-1.945
X3.1Y-2.405
X3.1Y-2.505
X3.1Y-2.605
X3.14Y-3.14
X3.24Y-3.14
X3.34Y-3.14
X3.435Y-0.565
X3.435Y-0.755
X3.44Y-3.14
X3.535Y-0.565
X3.535Y-0.755
X3.535Y-1.05
X3.54Y-3.14
X3.635Y-0.565
X3.635Y-0.755
X3.635Y-1.05
X3.735Y-0.565
X3.735Y-0.755
X3.735Y-1.05
X3.835Y-0.565
X3.835Y-0.755
X3.835Y-1.05
X3.935Y-0.565
X3.935Y-0.755
X3.935Y-1.05
X4.035Y-0.565
X4.035Y-0.755
X4.135Y-2.23
X4.135Y-2.33
X4.135Y-2.43
X4.135Y-2.53
X4.14Y-2.765
X4.14Y-2.865
T6
X1.156Y-0.7225
X1.158Y-1.3225
X1.258Y-0.7225
X1.258Y-1.3225
X1.358Y-0.7225
X1.358Y-1.3225
X1.458Y-0.7225
X1.458Y-1.3225
X1.558Y-0.7225
X1.558Y-1.3225
X1.658Y-0.7225
X1.658Y-1.3225
X1.758Y-0.7225
X1.758Y-1.3225
X1.858Y-0.7225
X1.858Y-1.3225
X1.958Y-0.7225
X1.958Y-1.3225
X2.058Y-0.7225
X2.058Y-1.3225
X2.158Y-0.7225
X2.158Y-1.3225
X2.258Y-0.7225
X2.258Y-1.3225
X2.358Y-0.7225
X2.358Y-1.3225
X2.458Y-0.7225
X2.458Y-1.3225
X2.558Y-0.7225
X2.558Y-1.3225
X2.658Y-0.7225
X2.658Y-1.3225
X2.758Y-0.7225
X2.758Y-1.3225
X2.858Y-0.7225
X2.858Y-1.3225
X2.958Y-0.7225
X2.958Y-1.3225
X3.058Y-0.7225
X3.058Y-1.3225
T7
X0.605Y-3.0375
X0.7021Y-0.2323
X0.8019Y-3.0375
X0.899Y-0.2323
X1.0981Y-0.2323
X1.295Y-0.2323
X1.6181Y-0.2323
X1.755Y-3.0225
X1.815Y-0.2323
X1.9519Y-3.0225
X2.0141Y-0.2323
X2.211Y-0.2323
X2.37Y-3.0225
X2.5669Y-3.0225
T8
X1.135Y-3.0425
X1.4185Y-3.0425
T0
M30
