%TF.GenerationSoftware,KiCad,Pcbnew,5.1.10-88a1d61d58~88~ubuntu20.04.1*%
%TF.CreationDate,2021-05-02T12:58:33-03:00*%
%TF.ProjectId,D3_Board,44335f42-6f61-4726-942e-6b696361645f,rev?*%
%TF.SameCoordinates,Original*%
%TF.FileFunction,Legend,Bot*%
%TF.FilePolarity,Positive*%
%FSLAX46Y46*%
G04 Gerber Fmt 4.6, Leading zero omitted, Abs format (unit mm)*
G04 Created by KiCad (PCBNEW 5.1.10-88a1d61d58~88~ubuntu20.04.1) date 2021-05-02 12:58:33*
%MOMM*%
%LPD*%
G01*
G04 APERTURE LIST*
%ADD10C,0.125000*%
%ADD11C,0.010000*%
G04 APERTURE END LIST*
D10*
X110600095Y-42580690D02*
X110600095Y-42080690D01*
X110481047Y-42080690D01*
X110409619Y-42104500D01*
X110362000Y-42152119D01*
X110338190Y-42199738D01*
X110314380Y-42294976D01*
X110314380Y-42366404D01*
X110338190Y-42461642D01*
X110362000Y-42509261D01*
X110409619Y-42556880D01*
X110481047Y-42580690D01*
X110600095Y-42580690D01*
X109909619Y-42556880D02*
X109957238Y-42580690D01*
X110052476Y-42580690D01*
X110100095Y-42556880D01*
X110123904Y-42509261D01*
X110123904Y-42318785D01*
X110100095Y-42271166D01*
X110052476Y-42247357D01*
X109957238Y-42247357D01*
X109909619Y-42271166D01*
X109885809Y-42318785D01*
X109885809Y-42366404D01*
X110123904Y-42414023D01*
X109719142Y-42247357D02*
X109600095Y-42580690D01*
X109481047Y-42247357D01*
X109100095Y-42556880D02*
X109147714Y-42580690D01*
X109242952Y-42580690D01*
X109290571Y-42556880D01*
X109314380Y-42509261D01*
X109314380Y-42318785D01*
X109290571Y-42271166D01*
X109242952Y-42247357D01*
X109147714Y-42247357D01*
X109100095Y-42271166D01*
X109076285Y-42318785D01*
X109076285Y-42366404D01*
X109314380Y-42414023D01*
X108790571Y-42580690D02*
X108838190Y-42556880D01*
X108862000Y-42509261D01*
X108862000Y-42080690D01*
X108528666Y-42580690D02*
X108576285Y-42556880D01*
X108600095Y-42533071D01*
X108623904Y-42485452D01*
X108623904Y-42342595D01*
X108600095Y-42294976D01*
X108576285Y-42271166D01*
X108528666Y-42247357D01*
X108457238Y-42247357D01*
X108409619Y-42271166D01*
X108385809Y-42294976D01*
X108362000Y-42342595D01*
X108362000Y-42485452D01*
X108385809Y-42533071D01*
X108409619Y-42556880D01*
X108457238Y-42580690D01*
X108528666Y-42580690D01*
X108147714Y-42247357D02*
X108147714Y-42747357D01*
X108147714Y-42271166D02*
X108100095Y-42247357D01*
X108004857Y-42247357D01*
X107957238Y-42271166D01*
X107933428Y-42294976D01*
X107909619Y-42342595D01*
X107909619Y-42485452D01*
X107933428Y-42533071D01*
X107957238Y-42556880D01*
X108004857Y-42580690D01*
X108100095Y-42580690D01*
X108147714Y-42556880D01*
X107504857Y-42556880D02*
X107552476Y-42580690D01*
X107647714Y-42580690D01*
X107695333Y-42556880D01*
X107719142Y-42509261D01*
X107719142Y-42318785D01*
X107695333Y-42271166D01*
X107647714Y-42247357D01*
X107552476Y-42247357D01*
X107504857Y-42271166D01*
X107481047Y-42318785D01*
X107481047Y-42366404D01*
X107719142Y-42414023D01*
X107052476Y-42580690D02*
X107052476Y-42080690D01*
X107052476Y-42556880D02*
X107100095Y-42580690D01*
X107195333Y-42580690D01*
X107242952Y-42556880D01*
X107266761Y-42533071D01*
X107290571Y-42485452D01*
X107290571Y-42342595D01*
X107266761Y-42294976D01*
X107242952Y-42271166D01*
X107195333Y-42247357D01*
X107100095Y-42247357D01*
X107052476Y-42271166D01*
X106433428Y-42580690D02*
X106433428Y-42080690D01*
X106433428Y-42271166D02*
X106385809Y-42247357D01*
X106290571Y-42247357D01*
X106242952Y-42271166D01*
X106219142Y-42294976D01*
X106195333Y-42342595D01*
X106195333Y-42485452D01*
X106219142Y-42533071D01*
X106242952Y-42556880D01*
X106290571Y-42580690D01*
X106385809Y-42580690D01*
X106433428Y-42556880D01*
X106028666Y-42247357D02*
X105909619Y-42580690D01*
X105790571Y-42247357D02*
X105909619Y-42580690D01*
X105957238Y-42699738D01*
X105981047Y-42723547D01*
X106028666Y-42747357D01*
X104933428Y-42580690D02*
X105100095Y-42342595D01*
X105219142Y-42580690D02*
X105219142Y-42080690D01*
X105028666Y-42080690D01*
X104981047Y-42104500D01*
X104957238Y-42128309D01*
X104933428Y-42175928D01*
X104933428Y-42247357D01*
X104957238Y-42294976D01*
X104981047Y-42318785D01*
X105028666Y-42342595D01*
X105219142Y-42342595D01*
X104742952Y-42437833D02*
X104504857Y-42437833D01*
X104790571Y-42580690D02*
X104623904Y-42080690D01*
X104457238Y-42580690D01*
X104314380Y-42556880D02*
X104242952Y-42580690D01*
X104123904Y-42580690D01*
X104076285Y-42556880D01*
X104052476Y-42533071D01*
X104028666Y-42485452D01*
X104028666Y-42437833D01*
X104052476Y-42390214D01*
X104076285Y-42366404D01*
X104123904Y-42342595D01*
X104219142Y-42318785D01*
X104266761Y-42294976D01*
X104290571Y-42271166D01*
X104314380Y-42223547D01*
X104314380Y-42175928D01*
X104290571Y-42128309D01*
X104266761Y-42104500D01*
X104219142Y-42080690D01*
X104100095Y-42080690D01*
X104028666Y-42104500D01*
X103147714Y-42533071D02*
X103171523Y-42556880D01*
X103242952Y-42580690D01*
X103290571Y-42580690D01*
X103362000Y-42556880D01*
X103409619Y-42509261D01*
X103433428Y-42461642D01*
X103457238Y-42366404D01*
X103457238Y-42294976D01*
X103433428Y-42199738D01*
X103409619Y-42152119D01*
X103362000Y-42104500D01*
X103290571Y-42080690D01*
X103242952Y-42080690D01*
X103171523Y-42104500D01*
X103147714Y-42128309D01*
X102933428Y-42580690D02*
X102933428Y-42080690D01*
X102695333Y-42580690D02*
X102695333Y-42080690D01*
X102528666Y-42437833D01*
X102362000Y-42080690D01*
X102362000Y-42580690D01*
X102147714Y-42437833D02*
X101909619Y-42437833D01*
X102195333Y-42580690D02*
X102028666Y-42080690D01*
X101862000Y-42580690D01*
X101766761Y-42080690D02*
X101481047Y-42080690D01*
X101623904Y-42580690D02*
X101623904Y-42080690D01*
X101314380Y-42318785D02*
X101147714Y-42318785D01*
X101076285Y-42580690D02*
X101314380Y-42580690D01*
X101314380Y-42080690D01*
X101076285Y-42080690D01*
X100576285Y-42533071D02*
X100600095Y-42556880D01*
X100671523Y-42580690D01*
X100719142Y-42580690D01*
X100790571Y-42556880D01*
X100838190Y-42509261D01*
X100862000Y-42461642D01*
X100885809Y-42366404D01*
X100885809Y-42294976D01*
X100862000Y-42199738D01*
X100838190Y-42152119D01*
X100790571Y-42104500D01*
X100719142Y-42080690D01*
X100671523Y-42080690D01*
X100600095Y-42104500D01*
X100576285Y-42128309D01*
X100004857Y-42556880D02*
X99933428Y-42580690D01*
X99814380Y-42580690D01*
X99766761Y-42556880D01*
X99742952Y-42533071D01*
X99719142Y-42485452D01*
X99719142Y-42437833D01*
X99742952Y-42390214D01*
X99766761Y-42366404D01*
X99814380Y-42342595D01*
X99909619Y-42318785D01*
X99957238Y-42294976D01*
X99981047Y-42271166D01*
X100004857Y-42223547D01*
X100004857Y-42175928D01*
X99981047Y-42128309D01*
X99957238Y-42104500D01*
X99909619Y-42080690D01*
X99790571Y-42080690D01*
X99719142Y-42104500D01*
X99576285Y-42247357D02*
X99385809Y-42247357D01*
X99504857Y-42080690D02*
X99504857Y-42509261D01*
X99481047Y-42556880D01*
X99433428Y-42580690D01*
X99385809Y-42580690D01*
X99004857Y-42247357D02*
X99004857Y-42580690D01*
X99219142Y-42247357D02*
X99219142Y-42509261D01*
X99195333Y-42556880D01*
X99147714Y-42580690D01*
X99076285Y-42580690D01*
X99028666Y-42556880D01*
X99004857Y-42533071D01*
X98552476Y-42580690D02*
X98552476Y-42080690D01*
X98552476Y-42556880D02*
X98600095Y-42580690D01*
X98695333Y-42580690D01*
X98742952Y-42556880D01*
X98766761Y-42533071D01*
X98790571Y-42485452D01*
X98790571Y-42342595D01*
X98766761Y-42294976D01*
X98742952Y-42271166D01*
X98695333Y-42247357D01*
X98600095Y-42247357D01*
X98552476Y-42271166D01*
X98123904Y-42556880D02*
X98171523Y-42580690D01*
X98266761Y-42580690D01*
X98314380Y-42556880D01*
X98338190Y-42509261D01*
X98338190Y-42318785D01*
X98314380Y-42271166D01*
X98266761Y-42247357D01*
X98171523Y-42247357D01*
X98123904Y-42271166D01*
X98100095Y-42318785D01*
X98100095Y-42366404D01*
X98338190Y-42414023D01*
X97885809Y-42247357D02*
X97885809Y-42580690D01*
X97885809Y-42294976D02*
X97862000Y-42271166D01*
X97814380Y-42247357D01*
X97742952Y-42247357D01*
X97695333Y-42271166D01*
X97671523Y-42318785D01*
X97671523Y-42580690D01*
X97504857Y-42247357D02*
X97314380Y-42247357D01*
X97433428Y-42080690D02*
X97433428Y-42509261D01*
X97409619Y-42556880D01*
X97362000Y-42580690D01*
X97314380Y-42580690D01*
X96481047Y-42533071D02*
X96504857Y-42556880D01*
X96576285Y-42580690D01*
X96623904Y-42580690D01*
X96695333Y-42556880D01*
X96742952Y-42509261D01*
X96766761Y-42461642D01*
X96790571Y-42366404D01*
X96790571Y-42294976D01*
X96766761Y-42199738D01*
X96742952Y-42152119D01*
X96695333Y-42104500D01*
X96623904Y-42080690D01*
X96576285Y-42080690D01*
X96504857Y-42104500D01*
X96481047Y-42128309D01*
X96266761Y-42580690D02*
X96266761Y-42080690D01*
X96052476Y-42580690D02*
X96052476Y-42318785D01*
X96076285Y-42271166D01*
X96123904Y-42247357D01*
X96195333Y-42247357D01*
X96242952Y-42271166D01*
X96266761Y-42294976D01*
X95600095Y-42580690D02*
X95600095Y-42318785D01*
X95623904Y-42271166D01*
X95671523Y-42247357D01*
X95766761Y-42247357D01*
X95814380Y-42271166D01*
X95600095Y-42556880D02*
X95647714Y-42580690D01*
X95766761Y-42580690D01*
X95814380Y-42556880D01*
X95838190Y-42509261D01*
X95838190Y-42461642D01*
X95814380Y-42414023D01*
X95766761Y-42390214D01*
X95647714Y-42390214D01*
X95600095Y-42366404D01*
X95362000Y-42247357D02*
X95362000Y-42747357D01*
X95362000Y-42271166D02*
X95314380Y-42247357D01*
X95219142Y-42247357D01*
X95171523Y-42271166D01*
X95147714Y-42294976D01*
X95123904Y-42342595D01*
X95123904Y-42485452D01*
X95147714Y-42533071D01*
X95171523Y-42556880D01*
X95219142Y-42580690D01*
X95314380Y-42580690D01*
X95362000Y-42556880D01*
X94981047Y-42247357D02*
X94790571Y-42247357D01*
X94909619Y-42080690D02*
X94909619Y-42509261D01*
X94885809Y-42556880D01*
X94838190Y-42580690D01*
X94790571Y-42580690D01*
X94433428Y-42556880D02*
X94481047Y-42580690D01*
X94576285Y-42580690D01*
X94623904Y-42556880D01*
X94647714Y-42509261D01*
X94647714Y-42318785D01*
X94623904Y-42271166D01*
X94576285Y-42247357D01*
X94481047Y-42247357D01*
X94433428Y-42271166D01*
X94409619Y-42318785D01*
X94409619Y-42366404D01*
X94647714Y-42414023D01*
X94195333Y-42580690D02*
X94195333Y-42247357D01*
X94195333Y-42342595D02*
X94171523Y-42294976D01*
X94147714Y-42271166D01*
X94100095Y-42247357D01*
X94052476Y-42247357D01*
D11*
%TO.C,G\u002A\u002A\u002A*%
G36*
X106609276Y-30975123D02*
G01*
X106548252Y-30990195D01*
X106546576Y-30990829D01*
X106503538Y-31009666D01*
X106455356Y-31035530D01*
X106400725Y-31069351D01*
X106338341Y-31112058D01*
X106266902Y-31164582D01*
X106185102Y-31227852D01*
X106091638Y-31302799D01*
X105985205Y-31390352D01*
X105978288Y-31396101D01*
X105662474Y-31667730D01*
X105363595Y-31943175D01*
X105082231Y-32221842D01*
X104818964Y-32503138D01*
X104574375Y-32786469D01*
X104384824Y-33024244D01*
X104308620Y-33125414D01*
X104246151Y-33212373D01*
X104197416Y-33285120D01*
X104162415Y-33343657D01*
X104141147Y-33387986D01*
X104139129Y-33393444D01*
X104123446Y-33459727D01*
X104118536Y-33533719D01*
X104124602Y-33603685D01*
X104136746Y-33640648D01*
X104162655Y-33690854D01*
X104202393Y-33754394D01*
X104256025Y-33831360D01*
X104323616Y-33921844D01*
X104405228Y-34025938D01*
X104500927Y-34143734D01*
X104505779Y-34149618D01*
X104546205Y-34198828D01*
X104582652Y-34243621D01*
X104613120Y-34281505D01*
X104635609Y-34309985D01*
X104648117Y-34326569D01*
X104649701Y-34328985D01*
X104660874Y-34343481D01*
X104684482Y-34370339D01*
X104718972Y-34407959D01*
X104762787Y-34454740D01*
X104814374Y-34509081D01*
X104872178Y-34569380D01*
X104934642Y-34634039D01*
X105000213Y-34701454D01*
X105067335Y-34770026D01*
X105134454Y-34838154D01*
X105200015Y-34904237D01*
X105262462Y-34966675D01*
X105320241Y-35023866D01*
X105371797Y-35074209D01*
X105398748Y-35100130D01*
X105541873Y-35235150D01*
X105674863Y-35357061D01*
X105800184Y-35467985D01*
X105920298Y-35570044D01*
X106037671Y-35665361D01*
X106154765Y-35756058D01*
X106196740Y-35787552D01*
X106240840Y-35820581D01*
X106287781Y-35856074D01*
X106329801Y-35888152D01*
X106343969Y-35899079D01*
X106384767Y-35927928D01*
X106434079Y-35958839D01*
X106482345Y-35985875D01*
X106490099Y-35989829D01*
X106532666Y-36010190D01*
X106565867Y-36022786D01*
X106597467Y-36029712D01*
X106635229Y-36033065D01*
X106653173Y-36033852D01*
X106711879Y-36033393D01*
X106756254Y-36027370D01*
X106769878Y-36023229D01*
X106802328Y-36009803D01*
X106833039Y-35994576D01*
X106865656Y-35975283D01*
X106903826Y-35949654D01*
X106951194Y-35915421D01*
X106991197Y-35885562D01*
X107197717Y-35726414D01*
X107396785Y-35565038D01*
X107401067Y-35561380D01*
X107152916Y-35561380D01*
X107147218Y-35570765D01*
X107132457Y-35563797D01*
X107107477Y-35540584D01*
X107106486Y-35539563D01*
X107096979Y-35529172D01*
X107089014Y-35518095D01*
X107082298Y-35504369D01*
X107076539Y-35486028D01*
X107071445Y-35461107D01*
X107066724Y-35427642D01*
X107062084Y-35383668D01*
X107057232Y-35327220D01*
X107051877Y-35256334D01*
X107045726Y-35169043D01*
X107040864Y-35098204D01*
X107035757Y-35024278D01*
X107029606Y-34936539D01*
X107022830Y-34840886D01*
X107015847Y-34743219D01*
X107009077Y-34649436D01*
X107005048Y-34594158D01*
X106999509Y-34515841D01*
X106994420Y-34438853D01*
X106990000Y-34366884D01*
X106986465Y-34303627D01*
X106984034Y-34252775D01*
X106982932Y-34218594D01*
X106981569Y-34132796D01*
X106633760Y-34132796D01*
X106627230Y-34577590D01*
X106625824Y-34677540D01*
X106624521Y-34778102D01*
X106623356Y-34876113D01*
X106622361Y-34968411D01*
X106621570Y-35051835D01*
X106621015Y-35123222D01*
X106620731Y-35179411D01*
X106620700Y-35198660D01*
X106620700Y-35374936D01*
X106534222Y-35375688D01*
X106482241Y-35377739D01*
X106426162Y-35382437D01*
X106377382Y-35388806D01*
X106373619Y-35389449D01*
X106331289Y-35396105D01*
X106291012Y-35401150D01*
X106261374Y-35403508D01*
X106260940Y-35403521D01*
X106222385Y-35404586D01*
X106228737Y-35278574D01*
X106232221Y-35217407D01*
X106236663Y-35150843D01*
X106241420Y-35088021D01*
X106244818Y-35048788D01*
X106250264Y-34988739D01*
X106256953Y-34911693D01*
X106264661Y-34820368D01*
X106273162Y-34717480D01*
X106282233Y-34605744D01*
X106291649Y-34487876D01*
X106299621Y-34386609D01*
X106306189Y-34303612D01*
X106311634Y-34238290D01*
X106316265Y-34188604D01*
X106320395Y-34152515D01*
X106324333Y-34127982D01*
X106328390Y-34112968D01*
X106332877Y-34105432D01*
X106338106Y-34103335D01*
X106342673Y-34104097D01*
X106358049Y-34106635D01*
X106389022Y-34110341D01*
X106431489Y-34114767D01*
X106481347Y-34119468D01*
X106496277Y-34120791D01*
X106633760Y-34132796D01*
X106981569Y-34132796D01*
X106981440Y-34124703D01*
X107007614Y-34121672D01*
X107023516Y-34121440D01*
X107032200Y-34128712D01*
X107037080Y-34148266D01*
X107039400Y-34166147D01*
X107042791Y-34199292D01*
X107046628Y-34243500D01*
X107050166Y-34290106D01*
X107050686Y-34297660D01*
X107054121Y-34345391D01*
X107058610Y-34403483D01*
X107063422Y-34462612D01*
X107065785Y-34490383D01*
X107069702Y-34536615D01*
X107074674Y-34596850D01*
X107080236Y-34665386D01*
X107085924Y-34736516D01*
X107090284Y-34791823D01*
X107095755Y-34860898D01*
X107101504Y-34931972D01*
X107107061Y-34999341D01*
X107111955Y-35057300D01*
X107115098Y-35093263D01*
X107119506Y-35145372D01*
X107124543Y-35209499D01*
X107129621Y-35277933D01*
X107134154Y-35342964D01*
X107134637Y-35350228D01*
X107138553Y-35405628D01*
X107142644Y-35456969D01*
X107146506Y-35499609D01*
X107149738Y-35528908D01*
X107150710Y-35535539D01*
X107152916Y-35561380D01*
X107401067Y-35561380D01*
X107591827Y-35398431D01*
X107786265Y-35223591D01*
X107983523Y-35037518D01*
X108187025Y-34837209D01*
X108187198Y-34837035D01*
X108274325Y-34748682D01*
X108362962Y-34657031D01*
X108451181Y-34564187D01*
X108537055Y-34472253D01*
X108618654Y-34383333D01*
X108694050Y-34299531D01*
X108761315Y-34222951D01*
X108818521Y-34155696D01*
X108863740Y-34099871D01*
X108868444Y-34093813D01*
X108895153Y-34059717D01*
X108929776Y-34016224D01*
X108967639Y-33969178D01*
X109000681Y-33928552D01*
X109065401Y-33846505D01*
X109120842Y-33770134D01*
X109165539Y-33701624D01*
X109198029Y-33643160D01*
X109210310Y-33615714D01*
X109226143Y-33552924D01*
X109228576Y-33492317D01*
X108283560Y-33492317D01*
X108279093Y-33542419D01*
X108264194Y-33587130D01*
X108236614Y-33630785D01*
X108194106Y-33677719D01*
X108180736Y-33690611D01*
X108113198Y-33745364D01*
X108029790Y-33796719D01*
X107929562Y-33845137D01*
X107811560Y-33891076D01*
X107674832Y-33934993D01*
X107670456Y-33936277D01*
X107427915Y-33997556D01*
X107183527Y-34040188D01*
X106939753Y-34063747D01*
X106932023Y-34064180D01*
X106876208Y-34065990D01*
X106805620Y-34066393D01*
X106724896Y-34065532D01*
X106638674Y-34063549D01*
X106551592Y-34060590D01*
X106468288Y-34056797D01*
X106393399Y-34052314D01*
X106331564Y-34047284D01*
X106309377Y-34044898D01*
X106147790Y-34022557D01*
X105994339Y-33994606D01*
X105839828Y-33959219D01*
X105725661Y-33928918D01*
X105677819Y-33913042D01*
X105619671Y-33889940D01*
X105557653Y-33862528D01*
X105498199Y-33833720D01*
X105447746Y-33806431D01*
X105426883Y-33793598D01*
X105356021Y-33739255D01*
X105301539Y-33680683D01*
X105264036Y-33619285D01*
X105244115Y-33556461D01*
X105242376Y-33493615D01*
X105259421Y-33432147D01*
X105266001Y-33418467D01*
X105297599Y-33371921D01*
X105344026Y-33322560D01*
X105401412Y-33273974D01*
X105465888Y-33229756D01*
X105475511Y-33223971D01*
X105509687Y-33202962D01*
X105536217Y-33185078D01*
X105551275Y-33172975D01*
X105553307Y-33169939D01*
X105548718Y-33164336D01*
X105533163Y-33157645D01*
X105503961Y-33148967D01*
X105458432Y-33137402D01*
X105450762Y-33135540D01*
X105434066Y-33129363D01*
X105434571Y-33122668D01*
X105453010Y-33115036D01*
X105490116Y-33106046D01*
X105508833Y-33102270D01*
X105564418Y-33091039D01*
X105622048Y-33078473D01*
X105685640Y-33063650D01*
X105759114Y-33045649D01*
X105846388Y-33023547D01*
X105879455Y-33015049D01*
X105951963Y-32996420D01*
X106007477Y-32982425D01*
X106048132Y-32972722D01*
X106076064Y-32966970D01*
X106093407Y-32964825D01*
X106102299Y-32965946D01*
X106104873Y-32969991D01*
X106103266Y-32976617D01*
X106102161Y-32979361D01*
X106096194Y-32995207D01*
X106085205Y-33025750D01*
X106070611Y-33067001D01*
X106053832Y-33114969D01*
X106048698Y-33129744D01*
X106002996Y-33261478D01*
X105968405Y-33256391D01*
X105941395Y-33251719D01*
X105903151Y-33244254D01*
X105861715Y-33235569D01*
X105859689Y-33235127D01*
X105821541Y-33227195D01*
X105795581Y-33223965D01*
X105774719Y-33225776D01*
X105751865Y-33232965D01*
X105731206Y-33241246D01*
X105652955Y-33277879D01*
X105586342Y-33318304D01*
X105533787Y-33360759D01*
X105497709Y-33403483D01*
X105490130Y-33416741D01*
X105470579Y-33474189D01*
X105470345Y-33529560D01*
X105489066Y-33582610D01*
X105526378Y-33633091D01*
X105581917Y-33680759D01*
X105655321Y-33725366D01*
X105746224Y-33766668D01*
X105854265Y-33804418D01*
X105979078Y-33838370D01*
X106120301Y-33868278D01*
X106171012Y-33877316D01*
X106350670Y-33901256D01*
X106535846Y-33913333D01*
X106722989Y-33913789D01*
X106908549Y-33902865D01*
X107088976Y-33880804D01*
X107260721Y-33847847D01*
X107420233Y-33804237D01*
X107465164Y-33789115D01*
X107484685Y-33781350D01*
X107004559Y-33781350D01*
X107004221Y-33798621D01*
X107002871Y-33807641D01*
X107002746Y-33807988D01*
X106989352Y-33819946D01*
X106973686Y-33823263D01*
X106950487Y-33823263D01*
X106933254Y-33583594D01*
X106927393Y-33503107D01*
X106920968Y-33416616D01*
X106914438Y-33330187D01*
X106908263Y-33249887D01*
X106902901Y-33181780D01*
X106901785Y-33167901D01*
X106897018Y-33106296D01*
X106892839Y-33047224D01*
X106889543Y-32995281D01*
X106887427Y-32955060D01*
X106887026Y-32942682D01*
X106648021Y-32942682D01*
X106647591Y-33034708D01*
X106646693Y-33144419D01*
X106645467Y-33261705D01*
X106644225Y-33364494D01*
X106642892Y-33461824D01*
X106641504Y-33551814D01*
X106640098Y-33632581D01*
X106638709Y-33702243D01*
X106637375Y-33758918D01*
X106636132Y-33800722D01*
X106635017Y-33825773D01*
X106634423Y-33831982D01*
X106629551Y-33855525D01*
X106494172Y-33848495D01*
X106444280Y-33845459D01*
X106401606Y-33842021D01*
X106369974Y-33838552D01*
X106353210Y-33835424D01*
X106351709Y-33834668D01*
X106349723Y-33822713D01*
X106349546Y-33795173D01*
X106351092Y-33756142D01*
X106354278Y-33709711D01*
X106354300Y-33709439D01*
X106366156Y-33561658D01*
X106377153Y-33419235D01*
X106387037Y-33285644D01*
X106395550Y-33164361D01*
X106402436Y-33058860D01*
X106403140Y-33047426D01*
X106407221Y-32989082D01*
X106411928Y-32935220D01*
X106416830Y-32889984D01*
X106421491Y-32857518D01*
X106424313Y-32844819D01*
X106439555Y-32814883D01*
X106465644Y-32779978D01*
X106497113Y-32746297D01*
X106528493Y-32720028D01*
X106541634Y-32712014D01*
X106578274Y-32697625D01*
X106611130Y-32692369D01*
X106634774Y-32696837D01*
X106640249Y-32701249D01*
X106642828Y-32709911D01*
X106644880Y-32729759D01*
X106646415Y-32761878D01*
X106647444Y-32807349D01*
X106647976Y-32867256D01*
X106648021Y-32942682D01*
X106887026Y-32942682D01*
X106886797Y-32935644D01*
X106884217Y-32897506D01*
X106878455Y-32862007D01*
X106874202Y-32846723D01*
X106850365Y-32804903D01*
X106811754Y-32764545D01*
X106763117Y-32730201D01*
X106740440Y-32718479D01*
X106711312Y-32703153D01*
X106699864Y-32691468D01*
X106706638Y-32682506D01*
X106732176Y-32675352D01*
X106769110Y-32670001D01*
X106820737Y-32671007D01*
X106866241Y-32685356D01*
X106901047Y-32711157D01*
X106914221Y-32730018D01*
X106921631Y-32753376D01*
X106928680Y-32794422D01*
X106935458Y-32853821D01*
X106942054Y-32932238D01*
X106942853Y-32943171D01*
X106948495Y-33019938D01*
X106955105Y-33107439D01*
X106962001Y-33196771D01*
X106968499Y-33279027D01*
X106970946Y-33309333D01*
X106980241Y-33424394D01*
X106987886Y-33521195D01*
X106993973Y-33601166D01*
X106998592Y-33665737D01*
X107001836Y-33716338D01*
X107003794Y-33754399D01*
X107004559Y-33781350D01*
X107484685Y-33781350D01*
X107551797Y-33754655D01*
X107620616Y-33718054D01*
X107673570Y-33677690D01*
X107712603Y-33631939D01*
X107739664Y-33579179D01*
X107748387Y-33552949D01*
X107748319Y-33519836D01*
X107733024Y-33480201D01*
X107704799Y-33436669D01*
X107665942Y-33391863D01*
X107618750Y-33348406D01*
X107565520Y-33308924D01*
X107508548Y-33276039D01*
X107504013Y-33273827D01*
X107464915Y-33257003D01*
X107413220Y-33237543D01*
X107355462Y-33217781D01*
X107298174Y-33200051D01*
X107294412Y-33198964D01*
X107245891Y-33184796D01*
X107204521Y-33172298D01*
X107173851Y-33162574D01*
X107157429Y-33156728D01*
X107155712Y-33155810D01*
X107153392Y-33153053D01*
X107154431Y-33149645D01*
X107161548Y-33143599D01*
X107177461Y-33132928D01*
X107204889Y-33115645D01*
X107243346Y-33091751D01*
X107291718Y-33061333D01*
X107346734Y-33026142D01*
X107398636Y-32992434D01*
X107412839Y-32983085D01*
X107498324Y-32926566D01*
X107554073Y-32935308D01*
X107613117Y-32948857D01*
X107684143Y-32972075D01*
X107763051Y-33003137D01*
X107845744Y-33040215D01*
X107928121Y-33081483D01*
X108006086Y-33125116D01*
X108068599Y-33164565D01*
X108146321Y-33225280D01*
X108207488Y-33290918D01*
X108251262Y-33360200D01*
X108276806Y-33431849D01*
X108283560Y-33492317D01*
X109228576Y-33492317D01*
X109228965Y-33482631D01*
X109219116Y-33411906D01*
X109197440Y-33348866D01*
X109175763Y-33310256D01*
X109141711Y-33258652D01*
X109096418Y-33195489D01*
X109041019Y-33122199D01*
X108976651Y-33040219D01*
X108904447Y-32950981D01*
X108825543Y-32855920D01*
X108741074Y-32756470D01*
X108731438Y-32745370D01*
X107052232Y-32745370D01*
X107043203Y-32785973D01*
X107025482Y-32816410D01*
X107000781Y-32832985D01*
X106987637Y-32834936D01*
X106980349Y-32826145D01*
X106973481Y-32803948D01*
X106971193Y-32791483D01*
X106955418Y-32736720D01*
X106924551Y-32690712D01*
X106885405Y-32656136D01*
X106837718Y-32625227D01*
X106784432Y-32597350D01*
X106732231Y-32575610D01*
X106687801Y-32563116D01*
X106683825Y-32562462D01*
X106624559Y-32563200D01*
X106567597Y-32583173D01*
X106513508Y-32621928D01*
X106462864Y-32679010D01*
X106416232Y-32753965D01*
X106398206Y-32790184D01*
X106378118Y-32832347D01*
X106363542Y-32859639D01*
X106351992Y-32875263D01*
X106340981Y-32882423D01*
X106328022Y-32884322D01*
X106325096Y-32884352D01*
X106294503Y-32875801D01*
X106274611Y-32857176D01*
X106260701Y-32830886D01*
X106258498Y-32799716D01*
X106268383Y-32760326D01*
X106290737Y-32709380D01*
X106291723Y-32707400D01*
X106336088Y-32638274D01*
X106394808Y-32576326D01*
X106464277Y-32523648D01*
X106540891Y-32482330D01*
X106621043Y-32454461D01*
X106701128Y-32442132D01*
X106747662Y-32443065D01*
X106821739Y-32458149D01*
X106890200Y-32487629D01*
X106950219Y-32529127D01*
X106998969Y-32580263D01*
X107033624Y-32638657D01*
X107050859Y-32698300D01*
X107052232Y-32745370D01*
X108731438Y-32745370D01*
X108652176Y-32654066D01*
X108606842Y-32602679D01*
X108560276Y-32551439D01*
X108501672Y-32488954D01*
X108433314Y-32417513D01*
X108428677Y-32412736D01*
X107075281Y-32412736D01*
X107072038Y-32436621D01*
X107061535Y-32445724D01*
X107042777Y-32439698D01*
X107014771Y-32418196D01*
X106976520Y-32380869D01*
X106972697Y-32376884D01*
X106915057Y-32322055D01*
X106862193Y-32284180D01*
X106811417Y-32261912D01*
X106760039Y-32253903D01*
X106729807Y-32255165D01*
X106694191Y-32261706D01*
X106646650Y-32274362D01*
X106591724Y-32291500D01*
X106533952Y-32311489D01*
X106477876Y-32332699D01*
X106428037Y-32353498D01*
X106388973Y-32372255D01*
X106367875Y-32385189D01*
X106350652Y-32400236D01*
X106335161Y-32419048D01*
X106319434Y-32445024D01*
X106301503Y-32481563D01*
X106279399Y-32532063D01*
X106270321Y-32553646D01*
X106256645Y-32577227D01*
X106245463Y-32582031D01*
X106239850Y-32568932D01*
X106241557Y-32545467D01*
X106257921Y-32499389D01*
X106289638Y-32448963D01*
X106333627Y-32396972D01*
X106386803Y-32346199D01*
X106446083Y-32299424D01*
X106508386Y-32259430D01*
X106570629Y-32228999D01*
X106605864Y-32216718D01*
X106657691Y-32206336D01*
X106719040Y-32200980D01*
X106781926Y-32200815D01*
X106838361Y-32206007D01*
X106864395Y-32211375D01*
X106908992Y-32229186D01*
X106954522Y-32257209D01*
X106997407Y-32292027D01*
X107034065Y-32330221D01*
X107060917Y-32368373D01*
X107074383Y-32403064D01*
X107075281Y-32412736D01*
X108428677Y-32412736D01*
X108357488Y-32339407D01*
X108276480Y-32256927D01*
X108192576Y-32172362D01*
X108185645Y-32165443D01*
X106587874Y-32165443D01*
X106587339Y-32169879D01*
X106574785Y-32175128D01*
X106550172Y-32181642D01*
X106520975Y-32187671D01*
X106495481Y-32191387D01*
X106487583Y-32183047D01*
X106478089Y-32159772D01*
X106468843Y-32126091D01*
X106468780Y-32125811D01*
X106456372Y-32070486D01*
X106448549Y-32030776D01*
X106445598Y-32003003D01*
X106447806Y-31983488D01*
X106455460Y-31968554D01*
X106468847Y-31954521D01*
X106483111Y-31942129D01*
X106511333Y-31918988D01*
X106528696Y-31908443D01*
X106538645Y-31909444D01*
X106544624Y-31920944D01*
X106545304Y-31923204D01*
X106551868Y-31949683D01*
X106559545Y-31986343D01*
X106567570Y-32028700D01*
X106575179Y-32072273D01*
X106581609Y-32112576D01*
X106586095Y-32145127D01*
X106587874Y-32165443D01*
X108185645Y-32165443D01*
X108108061Y-32088003D01*
X108025220Y-32006140D01*
X107986364Y-31968173D01*
X106670117Y-31968173D01*
X106669163Y-32033602D01*
X106666303Y-32079412D01*
X106661538Y-32105582D01*
X106658492Y-32111246D01*
X106643316Y-32117600D01*
X106629914Y-32104456D01*
X106618233Y-32071737D01*
X106611812Y-32041470D01*
X106600809Y-31979335D01*
X106593357Y-31933742D01*
X106589457Y-31901789D01*
X106589106Y-31880573D01*
X106592304Y-31867192D01*
X106599050Y-31858743D01*
X106609343Y-31852324D01*
X106611747Y-31851070D01*
X106634177Y-31840181D01*
X106649972Y-31836098D01*
X106660294Y-31841154D01*
X106666308Y-31857682D01*
X106669174Y-31888012D01*
X106670056Y-31934479D01*
X106670117Y-31968173D01*
X107986364Y-31968173D01*
X107946339Y-31929064D01*
X107936446Y-31919529D01*
X106985022Y-31919529D01*
X106984780Y-31938152D01*
X106983538Y-31941697D01*
X106975084Y-31937031D01*
X106955595Y-31920586D01*
X106927772Y-31894795D01*
X106894315Y-31862093D01*
X106885985Y-31853728D01*
X106827297Y-31797384D01*
X106777149Y-31756742D01*
X106732981Y-31731146D01*
X106692231Y-31719943D01*
X106652337Y-31722480D01*
X106610739Y-31738103D01*
X106564873Y-31766160D01*
X106559003Y-31770301D01*
X106492429Y-31823686D01*
X106437788Y-31881982D01*
X106394006Y-31942971D01*
X106375054Y-31970066D01*
X106359233Y-31988842D01*
X106350914Y-31994858D01*
X106346327Y-31985843D01*
X106346336Y-31961279D01*
X106348198Y-31943783D01*
X106355083Y-31906372D01*
X106364613Y-31871126D01*
X106368936Y-31859291D01*
X106391913Y-31814753D01*
X106426586Y-31761093D01*
X106469956Y-31702414D01*
X106519028Y-31642820D01*
X106559997Y-31597642D01*
X106642602Y-31510695D01*
X106647946Y-31302910D01*
X106649750Y-31241615D01*
X106651766Y-31187949D01*
X106653852Y-31144706D01*
X106655869Y-31114681D01*
X106657672Y-31100669D01*
X106658215Y-31100052D01*
X106660505Y-31111171D01*
X106663444Y-31138371D01*
X106666706Y-31177992D01*
X106669970Y-31226372D01*
X106671126Y-31246007D01*
X106675006Y-31303264D01*
X106679932Y-31359468D01*
X106685316Y-31408718D01*
X106690572Y-31445116D01*
X106691405Y-31449575D01*
X106697797Y-31478385D01*
X106705780Y-31500906D01*
X106718327Y-31521813D01*
X106738411Y-31545779D01*
X106769005Y-31577476D01*
X106779428Y-31587941D01*
X106826388Y-31638690D01*
X106871222Y-31693974D01*
X106911544Y-31750216D01*
X106944968Y-31803839D01*
X106969109Y-31851267D01*
X106981581Y-31888922D01*
X106982056Y-31891747D01*
X106985022Y-31919529D01*
X107936446Y-31919529D01*
X107873705Y-31859065D01*
X107809602Y-31798433D01*
X107756316Y-31749458D01*
X107747393Y-31741473D01*
X107656443Y-31661680D01*
X107561327Y-31580351D01*
X107463841Y-31498885D01*
X107365787Y-31418683D01*
X107268963Y-31341148D01*
X107175167Y-31267678D01*
X107086200Y-31199676D01*
X107003860Y-31138543D01*
X106929946Y-31085679D01*
X106866258Y-31042485D01*
X106814594Y-31010363D01*
X106793657Y-30998800D01*
X106739127Y-30979656D01*
X106675284Y-30971687D01*
X106609276Y-30975123D01*
G37*
X106609276Y-30975123D02*
X106548252Y-30990195D01*
X106546576Y-30990829D01*
X106503538Y-31009666D01*
X106455356Y-31035530D01*
X106400725Y-31069351D01*
X106338341Y-31112058D01*
X106266902Y-31164582D01*
X106185102Y-31227852D01*
X106091638Y-31302799D01*
X105985205Y-31390352D01*
X105978288Y-31396101D01*
X105662474Y-31667730D01*
X105363595Y-31943175D01*
X105082231Y-32221842D01*
X104818964Y-32503138D01*
X104574375Y-32786469D01*
X104384824Y-33024244D01*
X104308620Y-33125414D01*
X104246151Y-33212373D01*
X104197416Y-33285120D01*
X104162415Y-33343657D01*
X104141147Y-33387986D01*
X104139129Y-33393444D01*
X104123446Y-33459727D01*
X104118536Y-33533719D01*
X104124602Y-33603685D01*
X104136746Y-33640648D01*
X104162655Y-33690854D01*
X104202393Y-33754394D01*
X104256025Y-33831360D01*
X104323616Y-33921844D01*
X104405228Y-34025938D01*
X104500927Y-34143734D01*
X104505779Y-34149618D01*
X104546205Y-34198828D01*
X104582652Y-34243621D01*
X104613120Y-34281505D01*
X104635609Y-34309985D01*
X104648117Y-34326569D01*
X104649701Y-34328985D01*
X104660874Y-34343481D01*
X104684482Y-34370339D01*
X104718972Y-34407959D01*
X104762787Y-34454740D01*
X104814374Y-34509081D01*
X104872178Y-34569380D01*
X104934642Y-34634039D01*
X105000213Y-34701454D01*
X105067335Y-34770026D01*
X105134454Y-34838154D01*
X105200015Y-34904237D01*
X105262462Y-34966675D01*
X105320241Y-35023866D01*
X105371797Y-35074209D01*
X105398748Y-35100130D01*
X105541873Y-35235150D01*
X105674863Y-35357061D01*
X105800184Y-35467985D01*
X105920298Y-35570044D01*
X106037671Y-35665361D01*
X106154765Y-35756058D01*
X106196740Y-35787552D01*
X106240840Y-35820581D01*
X106287781Y-35856074D01*
X106329801Y-35888152D01*
X106343969Y-35899079D01*
X106384767Y-35927928D01*
X106434079Y-35958839D01*
X106482345Y-35985875D01*
X106490099Y-35989829D01*
X106532666Y-36010190D01*
X106565867Y-36022786D01*
X106597467Y-36029712D01*
X106635229Y-36033065D01*
X106653173Y-36033852D01*
X106711879Y-36033393D01*
X106756254Y-36027370D01*
X106769878Y-36023229D01*
X106802328Y-36009803D01*
X106833039Y-35994576D01*
X106865656Y-35975283D01*
X106903826Y-35949654D01*
X106951194Y-35915421D01*
X106991197Y-35885562D01*
X107197717Y-35726414D01*
X107396785Y-35565038D01*
X107401067Y-35561380D01*
X107152916Y-35561380D01*
X107147218Y-35570765D01*
X107132457Y-35563797D01*
X107107477Y-35540584D01*
X107106486Y-35539563D01*
X107096979Y-35529172D01*
X107089014Y-35518095D01*
X107082298Y-35504369D01*
X107076539Y-35486028D01*
X107071445Y-35461107D01*
X107066724Y-35427642D01*
X107062084Y-35383668D01*
X107057232Y-35327220D01*
X107051877Y-35256334D01*
X107045726Y-35169043D01*
X107040864Y-35098204D01*
X107035757Y-35024278D01*
X107029606Y-34936539D01*
X107022830Y-34840886D01*
X107015847Y-34743219D01*
X107009077Y-34649436D01*
X107005048Y-34594158D01*
X106999509Y-34515841D01*
X106994420Y-34438853D01*
X106990000Y-34366884D01*
X106986465Y-34303627D01*
X106984034Y-34252775D01*
X106982932Y-34218594D01*
X106981569Y-34132796D01*
X106633760Y-34132796D01*
X106627230Y-34577590D01*
X106625824Y-34677540D01*
X106624521Y-34778102D01*
X106623356Y-34876113D01*
X106622361Y-34968411D01*
X106621570Y-35051835D01*
X106621015Y-35123222D01*
X106620731Y-35179411D01*
X106620700Y-35198660D01*
X106620700Y-35374936D01*
X106534222Y-35375688D01*
X106482241Y-35377739D01*
X106426162Y-35382437D01*
X106377382Y-35388806D01*
X106373619Y-35389449D01*
X106331289Y-35396105D01*
X106291012Y-35401150D01*
X106261374Y-35403508D01*
X106260940Y-35403521D01*
X106222385Y-35404586D01*
X106228737Y-35278574D01*
X106232221Y-35217407D01*
X106236663Y-35150843D01*
X106241420Y-35088021D01*
X106244818Y-35048788D01*
X106250264Y-34988739D01*
X106256953Y-34911693D01*
X106264661Y-34820368D01*
X106273162Y-34717480D01*
X106282233Y-34605744D01*
X106291649Y-34487876D01*
X106299621Y-34386609D01*
X106306189Y-34303612D01*
X106311634Y-34238290D01*
X106316265Y-34188604D01*
X106320395Y-34152515D01*
X106324333Y-34127982D01*
X106328390Y-34112968D01*
X106332877Y-34105432D01*
X106338106Y-34103335D01*
X106342673Y-34104097D01*
X106358049Y-34106635D01*
X106389022Y-34110341D01*
X106431489Y-34114767D01*
X106481347Y-34119468D01*
X106496277Y-34120791D01*
X106633760Y-34132796D01*
X106981569Y-34132796D01*
X106981440Y-34124703D01*
X107007614Y-34121672D01*
X107023516Y-34121440D01*
X107032200Y-34128712D01*
X107037080Y-34148266D01*
X107039400Y-34166147D01*
X107042791Y-34199292D01*
X107046628Y-34243500D01*
X107050166Y-34290106D01*
X107050686Y-34297660D01*
X107054121Y-34345391D01*
X107058610Y-34403483D01*
X107063422Y-34462612D01*
X107065785Y-34490383D01*
X107069702Y-34536615D01*
X107074674Y-34596850D01*
X107080236Y-34665386D01*
X107085924Y-34736516D01*
X107090284Y-34791823D01*
X107095755Y-34860898D01*
X107101504Y-34931972D01*
X107107061Y-34999341D01*
X107111955Y-35057300D01*
X107115098Y-35093263D01*
X107119506Y-35145372D01*
X107124543Y-35209499D01*
X107129621Y-35277933D01*
X107134154Y-35342964D01*
X107134637Y-35350228D01*
X107138553Y-35405628D01*
X107142644Y-35456969D01*
X107146506Y-35499609D01*
X107149738Y-35528908D01*
X107150710Y-35535539D01*
X107152916Y-35561380D01*
X107401067Y-35561380D01*
X107591827Y-35398431D01*
X107786265Y-35223591D01*
X107983523Y-35037518D01*
X108187025Y-34837209D01*
X108187198Y-34837035D01*
X108274325Y-34748682D01*
X108362962Y-34657031D01*
X108451181Y-34564187D01*
X108537055Y-34472253D01*
X108618654Y-34383333D01*
X108694050Y-34299531D01*
X108761315Y-34222951D01*
X108818521Y-34155696D01*
X108863740Y-34099871D01*
X108868444Y-34093813D01*
X108895153Y-34059717D01*
X108929776Y-34016224D01*
X108967639Y-33969178D01*
X109000681Y-33928552D01*
X109065401Y-33846505D01*
X109120842Y-33770134D01*
X109165539Y-33701624D01*
X109198029Y-33643160D01*
X109210310Y-33615714D01*
X109226143Y-33552924D01*
X109228576Y-33492317D01*
X108283560Y-33492317D01*
X108279093Y-33542419D01*
X108264194Y-33587130D01*
X108236614Y-33630785D01*
X108194106Y-33677719D01*
X108180736Y-33690611D01*
X108113198Y-33745364D01*
X108029790Y-33796719D01*
X107929562Y-33845137D01*
X107811560Y-33891076D01*
X107674832Y-33934993D01*
X107670456Y-33936277D01*
X107427915Y-33997556D01*
X107183527Y-34040188D01*
X106939753Y-34063747D01*
X106932023Y-34064180D01*
X106876208Y-34065990D01*
X106805620Y-34066393D01*
X106724896Y-34065532D01*
X106638674Y-34063549D01*
X106551592Y-34060590D01*
X106468288Y-34056797D01*
X106393399Y-34052314D01*
X106331564Y-34047284D01*
X106309377Y-34044898D01*
X106147790Y-34022557D01*
X105994339Y-33994606D01*
X105839828Y-33959219D01*
X105725661Y-33928918D01*
X105677819Y-33913042D01*
X105619671Y-33889940D01*
X105557653Y-33862528D01*
X105498199Y-33833720D01*
X105447746Y-33806431D01*
X105426883Y-33793598D01*
X105356021Y-33739255D01*
X105301539Y-33680683D01*
X105264036Y-33619285D01*
X105244115Y-33556461D01*
X105242376Y-33493615D01*
X105259421Y-33432147D01*
X105266001Y-33418467D01*
X105297599Y-33371921D01*
X105344026Y-33322560D01*
X105401412Y-33273974D01*
X105465888Y-33229756D01*
X105475511Y-33223971D01*
X105509687Y-33202962D01*
X105536217Y-33185078D01*
X105551275Y-33172975D01*
X105553307Y-33169939D01*
X105548718Y-33164336D01*
X105533163Y-33157645D01*
X105503961Y-33148967D01*
X105458432Y-33137402D01*
X105450762Y-33135540D01*
X105434066Y-33129363D01*
X105434571Y-33122668D01*
X105453010Y-33115036D01*
X105490116Y-33106046D01*
X105508833Y-33102270D01*
X105564418Y-33091039D01*
X105622048Y-33078473D01*
X105685640Y-33063650D01*
X105759114Y-33045649D01*
X105846388Y-33023547D01*
X105879455Y-33015049D01*
X105951963Y-32996420D01*
X106007477Y-32982425D01*
X106048132Y-32972722D01*
X106076064Y-32966970D01*
X106093407Y-32964825D01*
X106102299Y-32965946D01*
X106104873Y-32969991D01*
X106103266Y-32976617D01*
X106102161Y-32979361D01*
X106096194Y-32995207D01*
X106085205Y-33025750D01*
X106070611Y-33067001D01*
X106053832Y-33114969D01*
X106048698Y-33129744D01*
X106002996Y-33261478D01*
X105968405Y-33256391D01*
X105941395Y-33251719D01*
X105903151Y-33244254D01*
X105861715Y-33235569D01*
X105859689Y-33235127D01*
X105821541Y-33227195D01*
X105795581Y-33223965D01*
X105774719Y-33225776D01*
X105751865Y-33232965D01*
X105731206Y-33241246D01*
X105652955Y-33277879D01*
X105586342Y-33318304D01*
X105533787Y-33360759D01*
X105497709Y-33403483D01*
X105490130Y-33416741D01*
X105470579Y-33474189D01*
X105470345Y-33529560D01*
X105489066Y-33582610D01*
X105526378Y-33633091D01*
X105581917Y-33680759D01*
X105655321Y-33725366D01*
X105746224Y-33766668D01*
X105854265Y-33804418D01*
X105979078Y-33838370D01*
X106120301Y-33868278D01*
X106171012Y-33877316D01*
X106350670Y-33901256D01*
X106535846Y-33913333D01*
X106722989Y-33913789D01*
X106908549Y-33902865D01*
X107088976Y-33880804D01*
X107260721Y-33847847D01*
X107420233Y-33804237D01*
X107465164Y-33789115D01*
X107484685Y-33781350D01*
X107004559Y-33781350D01*
X107004221Y-33798621D01*
X107002871Y-33807641D01*
X107002746Y-33807988D01*
X106989352Y-33819946D01*
X106973686Y-33823263D01*
X106950487Y-33823263D01*
X106933254Y-33583594D01*
X106927393Y-33503107D01*
X106920968Y-33416616D01*
X106914438Y-33330187D01*
X106908263Y-33249887D01*
X106902901Y-33181780D01*
X106901785Y-33167901D01*
X106897018Y-33106296D01*
X106892839Y-33047224D01*
X106889543Y-32995281D01*
X106887427Y-32955060D01*
X106887026Y-32942682D01*
X106648021Y-32942682D01*
X106647591Y-33034708D01*
X106646693Y-33144419D01*
X106645467Y-33261705D01*
X106644225Y-33364494D01*
X106642892Y-33461824D01*
X106641504Y-33551814D01*
X106640098Y-33632581D01*
X106638709Y-33702243D01*
X106637375Y-33758918D01*
X106636132Y-33800722D01*
X106635017Y-33825773D01*
X106634423Y-33831982D01*
X106629551Y-33855525D01*
X106494172Y-33848495D01*
X106444280Y-33845459D01*
X106401606Y-33842021D01*
X106369974Y-33838552D01*
X106353210Y-33835424D01*
X106351709Y-33834668D01*
X106349723Y-33822713D01*
X106349546Y-33795173D01*
X106351092Y-33756142D01*
X106354278Y-33709711D01*
X106354300Y-33709439D01*
X106366156Y-33561658D01*
X106377153Y-33419235D01*
X106387037Y-33285644D01*
X106395550Y-33164361D01*
X106402436Y-33058860D01*
X106403140Y-33047426D01*
X106407221Y-32989082D01*
X106411928Y-32935220D01*
X106416830Y-32889984D01*
X106421491Y-32857518D01*
X106424313Y-32844819D01*
X106439555Y-32814883D01*
X106465644Y-32779978D01*
X106497113Y-32746297D01*
X106528493Y-32720028D01*
X106541634Y-32712014D01*
X106578274Y-32697625D01*
X106611130Y-32692369D01*
X106634774Y-32696837D01*
X106640249Y-32701249D01*
X106642828Y-32709911D01*
X106644880Y-32729759D01*
X106646415Y-32761878D01*
X106647444Y-32807349D01*
X106647976Y-32867256D01*
X106648021Y-32942682D01*
X106887026Y-32942682D01*
X106886797Y-32935644D01*
X106884217Y-32897506D01*
X106878455Y-32862007D01*
X106874202Y-32846723D01*
X106850365Y-32804903D01*
X106811754Y-32764545D01*
X106763117Y-32730201D01*
X106740440Y-32718479D01*
X106711312Y-32703153D01*
X106699864Y-32691468D01*
X106706638Y-32682506D01*
X106732176Y-32675352D01*
X106769110Y-32670001D01*
X106820737Y-32671007D01*
X106866241Y-32685356D01*
X106901047Y-32711157D01*
X106914221Y-32730018D01*
X106921631Y-32753376D01*
X106928680Y-32794422D01*
X106935458Y-32853821D01*
X106942054Y-32932238D01*
X106942853Y-32943171D01*
X106948495Y-33019938D01*
X106955105Y-33107439D01*
X106962001Y-33196771D01*
X106968499Y-33279027D01*
X106970946Y-33309333D01*
X106980241Y-33424394D01*
X106987886Y-33521195D01*
X106993973Y-33601166D01*
X106998592Y-33665737D01*
X107001836Y-33716338D01*
X107003794Y-33754399D01*
X107004559Y-33781350D01*
X107484685Y-33781350D01*
X107551797Y-33754655D01*
X107620616Y-33718054D01*
X107673570Y-33677690D01*
X107712603Y-33631939D01*
X107739664Y-33579179D01*
X107748387Y-33552949D01*
X107748319Y-33519836D01*
X107733024Y-33480201D01*
X107704799Y-33436669D01*
X107665942Y-33391863D01*
X107618750Y-33348406D01*
X107565520Y-33308924D01*
X107508548Y-33276039D01*
X107504013Y-33273827D01*
X107464915Y-33257003D01*
X107413220Y-33237543D01*
X107355462Y-33217781D01*
X107298174Y-33200051D01*
X107294412Y-33198964D01*
X107245891Y-33184796D01*
X107204521Y-33172298D01*
X107173851Y-33162574D01*
X107157429Y-33156728D01*
X107155712Y-33155810D01*
X107153392Y-33153053D01*
X107154431Y-33149645D01*
X107161548Y-33143599D01*
X107177461Y-33132928D01*
X107204889Y-33115645D01*
X107243346Y-33091751D01*
X107291718Y-33061333D01*
X107346734Y-33026142D01*
X107398636Y-32992434D01*
X107412839Y-32983085D01*
X107498324Y-32926566D01*
X107554073Y-32935308D01*
X107613117Y-32948857D01*
X107684143Y-32972075D01*
X107763051Y-33003137D01*
X107845744Y-33040215D01*
X107928121Y-33081483D01*
X108006086Y-33125116D01*
X108068599Y-33164565D01*
X108146321Y-33225280D01*
X108207488Y-33290918D01*
X108251262Y-33360200D01*
X108276806Y-33431849D01*
X108283560Y-33492317D01*
X109228576Y-33492317D01*
X109228965Y-33482631D01*
X109219116Y-33411906D01*
X109197440Y-33348866D01*
X109175763Y-33310256D01*
X109141711Y-33258652D01*
X109096418Y-33195489D01*
X109041019Y-33122199D01*
X108976651Y-33040219D01*
X108904447Y-32950981D01*
X108825543Y-32855920D01*
X108741074Y-32756470D01*
X108731438Y-32745370D01*
X107052232Y-32745370D01*
X107043203Y-32785973D01*
X107025482Y-32816410D01*
X107000781Y-32832985D01*
X106987637Y-32834936D01*
X106980349Y-32826145D01*
X106973481Y-32803948D01*
X106971193Y-32791483D01*
X106955418Y-32736720D01*
X106924551Y-32690712D01*
X106885405Y-32656136D01*
X106837718Y-32625227D01*
X106784432Y-32597350D01*
X106732231Y-32575610D01*
X106687801Y-32563116D01*
X106683825Y-32562462D01*
X106624559Y-32563200D01*
X106567597Y-32583173D01*
X106513508Y-32621928D01*
X106462864Y-32679010D01*
X106416232Y-32753965D01*
X106398206Y-32790184D01*
X106378118Y-32832347D01*
X106363542Y-32859639D01*
X106351992Y-32875263D01*
X106340981Y-32882423D01*
X106328022Y-32884322D01*
X106325096Y-32884352D01*
X106294503Y-32875801D01*
X106274611Y-32857176D01*
X106260701Y-32830886D01*
X106258498Y-32799716D01*
X106268383Y-32760326D01*
X106290737Y-32709380D01*
X106291723Y-32707400D01*
X106336088Y-32638274D01*
X106394808Y-32576326D01*
X106464277Y-32523648D01*
X106540891Y-32482330D01*
X106621043Y-32454461D01*
X106701128Y-32442132D01*
X106747662Y-32443065D01*
X106821739Y-32458149D01*
X106890200Y-32487629D01*
X106950219Y-32529127D01*
X106998969Y-32580263D01*
X107033624Y-32638657D01*
X107050859Y-32698300D01*
X107052232Y-32745370D01*
X108731438Y-32745370D01*
X108652176Y-32654066D01*
X108606842Y-32602679D01*
X108560276Y-32551439D01*
X108501672Y-32488954D01*
X108433314Y-32417513D01*
X108428677Y-32412736D01*
X107075281Y-32412736D01*
X107072038Y-32436621D01*
X107061535Y-32445724D01*
X107042777Y-32439698D01*
X107014771Y-32418196D01*
X106976520Y-32380869D01*
X106972697Y-32376884D01*
X106915057Y-32322055D01*
X106862193Y-32284180D01*
X106811417Y-32261912D01*
X106760039Y-32253903D01*
X106729807Y-32255165D01*
X106694191Y-32261706D01*
X106646650Y-32274362D01*
X106591724Y-32291500D01*
X106533952Y-32311489D01*
X106477876Y-32332699D01*
X106428037Y-32353498D01*
X106388973Y-32372255D01*
X106367875Y-32385189D01*
X106350652Y-32400236D01*
X106335161Y-32419048D01*
X106319434Y-32445024D01*
X106301503Y-32481563D01*
X106279399Y-32532063D01*
X106270321Y-32553646D01*
X106256645Y-32577227D01*
X106245463Y-32582031D01*
X106239850Y-32568932D01*
X106241557Y-32545467D01*
X106257921Y-32499389D01*
X106289638Y-32448963D01*
X106333627Y-32396972D01*
X106386803Y-32346199D01*
X106446083Y-32299424D01*
X106508386Y-32259430D01*
X106570629Y-32228999D01*
X106605864Y-32216718D01*
X106657691Y-32206336D01*
X106719040Y-32200980D01*
X106781926Y-32200815D01*
X106838361Y-32206007D01*
X106864395Y-32211375D01*
X106908992Y-32229186D01*
X106954522Y-32257209D01*
X106997407Y-32292027D01*
X107034065Y-32330221D01*
X107060917Y-32368373D01*
X107074383Y-32403064D01*
X107075281Y-32412736D01*
X108428677Y-32412736D01*
X108357488Y-32339407D01*
X108276480Y-32256927D01*
X108192576Y-32172362D01*
X108185645Y-32165443D01*
X106587874Y-32165443D01*
X106587339Y-32169879D01*
X106574785Y-32175128D01*
X106550172Y-32181642D01*
X106520975Y-32187671D01*
X106495481Y-32191387D01*
X106487583Y-32183047D01*
X106478089Y-32159772D01*
X106468843Y-32126091D01*
X106468780Y-32125811D01*
X106456372Y-32070486D01*
X106448549Y-32030776D01*
X106445598Y-32003003D01*
X106447806Y-31983488D01*
X106455460Y-31968554D01*
X106468847Y-31954521D01*
X106483111Y-31942129D01*
X106511333Y-31918988D01*
X106528696Y-31908443D01*
X106538645Y-31909444D01*
X106544624Y-31920944D01*
X106545304Y-31923204D01*
X106551868Y-31949683D01*
X106559545Y-31986343D01*
X106567570Y-32028700D01*
X106575179Y-32072273D01*
X106581609Y-32112576D01*
X106586095Y-32145127D01*
X106587874Y-32165443D01*
X108185645Y-32165443D01*
X108108061Y-32088003D01*
X108025220Y-32006140D01*
X107986364Y-31968173D01*
X106670117Y-31968173D01*
X106669163Y-32033602D01*
X106666303Y-32079412D01*
X106661538Y-32105582D01*
X106658492Y-32111246D01*
X106643316Y-32117600D01*
X106629914Y-32104456D01*
X106618233Y-32071737D01*
X106611812Y-32041470D01*
X106600809Y-31979335D01*
X106593357Y-31933742D01*
X106589457Y-31901789D01*
X106589106Y-31880573D01*
X106592304Y-31867192D01*
X106599050Y-31858743D01*
X106609343Y-31852324D01*
X106611747Y-31851070D01*
X106634177Y-31840181D01*
X106649972Y-31836098D01*
X106660294Y-31841154D01*
X106666308Y-31857682D01*
X106669174Y-31888012D01*
X106670056Y-31934479D01*
X106670117Y-31968173D01*
X107986364Y-31968173D01*
X107946339Y-31929064D01*
X107936446Y-31919529D01*
X106985022Y-31919529D01*
X106984780Y-31938152D01*
X106983538Y-31941697D01*
X106975084Y-31937031D01*
X106955595Y-31920586D01*
X106927772Y-31894795D01*
X106894315Y-31862093D01*
X106885985Y-31853728D01*
X106827297Y-31797384D01*
X106777149Y-31756742D01*
X106732981Y-31731146D01*
X106692231Y-31719943D01*
X106652337Y-31722480D01*
X106610739Y-31738103D01*
X106564873Y-31766160D01*
X106559003Y-31770301D01*
X106492429Y-31823686D01*
X106437788Y-31881982D01*
X106394006Y-31942971D01*
X106375054Y-31970066D01*
X106359233Y-31988842D01*
X106350914Y-31994858D01*
X106346327Y-31985843D01*
X106346336Y-31961279D01*
X106348198Y-31943783D01*
X106355083Y-31906372D01*
X106364613Y-31871126D01*
X106368936Y-31859291D01*
X106391913Y-31814753D01*
X106426586Y-31761093D01*
X106469956Y-31702414D01*
X106519028Y-31642820D01*
X106559997Y-31597642D01*
X106642602Y-31510695D01*
X106647946Y-31302910D01*
X106649750Y-31241615D01*
X106651766Y-31187949D01*
X106653852Y-31144706D01*
X106655869Y-31114681D01*
X106657672Y-31100669D01*
X106658215Y-31100052D01*
X106660505Y-31111171D01*
X106663444Y-31138371D01*
X106666706Y-31177992D01*
X106669970Y-31226372D01*
X106671126Y-31246007D01*
X106675006Y-31303264D01*
X106679932Y-31359468D01*
X106685316Y-31408718D01*
X106690572Y-31445116D01*
X106691405Y-31449575D01*
X106697797Y-31478385D01*
X106705780Y-31500906D01*
X106718327Y-31521813D01*
X106738411Y-31545779D01*
X106769005Y-31577476D01*
X106779428Y-31587941D01*
X106826388Y-31638690D01*
X106871222Y-31693974D01*
X106911544Y-31750216D01*
X106944968Y-31803839D01*
X106969109Y-31851267D01*
X106981581Y-31888922D01*
X106982056Y-31891747D01*
X106985022Y-31919529D01*
X107936446Y-31919529D01*
X107873705Y-31859065D01*
X107809602Y-31798433D01*
X107756316Y-31749458D01*
X107747393Y-31741473D01*
X107656443Y-31661680D01*
X107561327Y-31580351D01*
X107463841Y-31498885D01*
X107365787Y-31418683D01*
X107268963Y-31341148D01*
X107175167Y-31267678D01*
X107086200Y-31199676D01*
X107003860Y-31138543D01*
X106929946Y-31085679D01*
X106866258Y-31042485D01*
X106814594Y-31010363D01*
X106793657Y-30998800D01*
X106739127Y-30979656D01*
X106675284Y-30971687D01*
X106609276Y-30975123D01*
G36*
X106630937Y-29856210D02*
G01*
X106573457Y-29880553D01*
X106564454Y-29885469D01*
X106543146Y-29897898D01*
X106524797Y-29910519D01*
X106507260Y-29925764D01*
X106488390Y-29946063D01*
X106466042Y-29973850D01*
X106438070Y-30011555D01*
X106402327Y-30061609D01*
X106375722Y-30099346D01*
X106283572Y-30227167D01*
X106179928Y-30365299D01*
X106067516Y-30510325D01*
X105949062Y-30658826D01*
X105827291Y-30807382D01*
X105704929Y-30952576D01*
X105588635Y-31086533D01*
X105474296Y-31213703D01*
X105348592Y-31349135D01*
X105214210Y-31490157D01*
X105073837Y-31634097D01*
X104930159Y-31778285D01*
X104785862Y-31920047D01*
X104643633Y-32056712D01*
X104506158Y-32185608D01*
X104376124Y-32304064D01*
X104273424Y-32394572D01*
X104180148Y-32474140D01*
X104080153Y-32557371D01*
X103975350Y-32642805D01*
X103867647Y-32728983D01*
X103758956Y-32814448D01*
X103651186Y-32897740D01*
X103546247Y-32977401D01*
X103446050Y-33051973D01*
X103352504Y-33119997D01*
X103267519Y-33180014D01*
X103193006Y-33230566D01*
X103130875Y-33270194D01*
X103112045Y-33281425D01*
X103064100Y-33319429D01*
X103022897Y-33371715D01*
X102992509Y-33432979D01*
X102989800Y-33440632D01*
X102976484Y-33493212D01*
X102976643Y-33538810D01*
X102990751Y-33585332D01*
X102999644Y-33604447D01*
X103019978Y-33637682D01*
X103048087Y-33669291D01*
X103086662Y-33701544D01*
X103138396Y-33736709D01*
X103201089Y-33774252D01*
X103231869Y-33793511D01*
X103275892Y-33823276D01*
X103330849Y-33861850D01*
X103394436Y-33907535D01*
X103464344Y-33958633D01*
X103538268Y-34013447D01*
X103613900Y-34070279D01*
X103688933Y-34127430D01*
X103761062Y-34183203D01*
X103823735Y-34232525D01*
X104024875Y-34395203D01*
X104217054Y-34556571D01*
X104404060Y-34720023D01*
X104589683Y-34888956D01*
X104777712Y-35066766D01*
X104971936Y-35256851D01*
X105020192Y-35304975D01*
X105218622Y-35506451D01*
X105403182Y-35700154D01*
X105576532Y-35889151D01*
X105741334Y-36076507D01*
X105900247Y-36265291D01*
X106055930Y-36458567D01*
X106211045Y-36659403D01*
X106311148Y-36793185D01*
X106371217Y-36874063D01*
X106421126Y-36940421D01*
X106462182Y-36993841D01*
X106495692Y-37035905D01*
X106522960Y-37068195D01*
X106545293Y-37092293D01*
X106563999Y-37109780D01*
X106580382Y-37122238D01*
X106585694Y-37125633D01*
X106623269Y-37139081D01*
X106672514Y-37143024D01*
X106727781Y-37137487D01*
X106776902Y-37124797D01*
X106820304Y-37106301D01*
X106854840Y-37081553D01*
X106885611Y-37046041D01*
X106911643Y-37005675D01*
X106945376Y-36951878D01*
X106990264Y-36885217D01*
X107044635Y-36807869D01*
X107106822Y-36722013D01*
X107175154Y-36629826D01*
X107247961Y-36533487D01*
X107323575Y-36435172D01*
X107400324Y-36337061D01*
X107476539Y-36241330D01*
X107550551Y-36150157D01*
X107620689Y-36065721D01*
X107685285Y-35990199D01*
X107722685Y-35947840D01*
X107995443Y-35649820D01*
X108264529Y-35368674D01*
X108532171Y-35102408D01*
X108800596Y-34849032D01*
X109072032Y-34606552D01*
X109348709Y-34372977D01*
X109632853Y-34146314D01*
X109926694Y-33924571D01*
X110223152Y-33712256D01*
X110273241Y-33675125D01*
X110309444Y-33642410D01*
X110335637Y-33609863D01*
X110355701Y-33573236D01*
X110360828Y-33561482D01*
X110373859Y-33506998D01*
X109412406Y-33506998D01*
X109411479Y-33545174D01*
X109408228Y-33579627D01*
X109401529Y-33612543D01*
X109390261Y-33646112D01*
X109373302Y-33682520D01*
X109349530Y-33723955D01*
X109317824Y-33772605D01*
X109277061Y-33830658D01*
X109226119Y-33900301D01*
X109176731Y-33966570D01*
X109069708Y-34106062D01*
X108958287Y-34244300D01*
X108841228Y-34382577D01*
X108717293Y-34522180D01*
X108585243Y-34664402D01*
X108443838Y-34810531D01*
X108291840Y-34961858D01*
X108128010Y-35119673D01*
X107951109Y-35285265D01*
X107759897Y-35459926D01*
X107633735Y-35573229D01*
X107502837Y-35687793D01*
X107377511Y-35792890D01*
X107258604Y-35887946D01*
X107146964Y-35972384D01*
X107043439Y-36045630D01*
X106948877Y-36107107D01*
X106864126Y-36156242D01*
X106790033Y-36192457D01*
X106727446Y-36215178D01*
X106677214Y-36223830D01*
X106675058Y-36223883D01*
X106655090Y-36222032D01*
X106623491Y-36216904D01*
X106594653Y-36211186D01*
X106548442Y-36198668D01*
X106499507Y-36179913D01*
X106446132Y-36153874D01*
X106386600Y-36119504D01*
X106319196Y-36075753D01*
X106242202Y-36021575D01*
X106153903Y-35955921D01*
X106067237Y-35889188D01*
X105884262Y-35741911D01*
X105694308Y-35580254D01*
X105500236Y-35406979D01*
X105304906Y-35224850D01*
X105111177Y-35036630D01*
X104921912Y-34845082D01*
X104739970Y-34652969D01*
X104568211Y-34463055D01*
X104452793Y-34329628D01*
X104359376Y-34218200D01*
X104278537Y-34119025D01*
X104208976Y-34030278D01*
X104149395Y-33950133D01*
X104098496Y-33876768D01*
X104054979Y-33808356D01*
X104017546Y-33743073D01*
X103984898Y-33679095D01*
X103975417Y-33658962D01*
X103958225Y-33620256D01*
X103948125Y-33590844D01*
X103943564Y-33562782D01*
X103942992Y-33528127D01*
X103944028Y-33498216D01*
X103946414Y-33461607D01*
X103951062Y-33427870D01*
X103959064Y-33394990D01*
X103971509Y-33360956D01*
X103989488Y-33323754D01*
X104014092Y-33281373D01*
X104046412Y-33231798D01*
X104087537Y-33173018D01*
X104138559Y-33103018D01*
X104200568Y-33019788D01*
X104210248Y-33006886D01*
X104314934Y-32869690D01*
X104418446Y-32738865D01*
X104524162Y-32610370D01*
X104635456Y-32480166D01*
X104755704Y-32344210D01*
X104857439Y-32232057D01*
X104904767Y-32181248D01*
X104960915Y-32122419D01*
X105023789Y-32057644D01*
X105091297Y-31989000D01*
X105161343Y-31918563D01*
X105231834Y-31848409D01*
X105300675Y-31780614D01*
X105365774Y-31717254D01*
X105425035Y-31660404D01*
X105476364Y-31612142D01*
X105517669Y-31574542D01*
X105540571Y-31554785D01*
X105572705Y-31527663D01*
X105615174Y-31491088D01*
X105663632Y-31448842D01*
X105713732Y-31404705D01*
X105743178Y-31378526D01*
X105830114Y-31302662D01*
X105928255Y-31220003D01*
X106032410Y-31134797D01*
X106137387Y-31051286D01*
X106237997Y-30973719D01*
X106240194Y-30972056D01*
X106332113Y-30909587D01*
X106425448Y-30859415D01*
X106517630Y-30822435D01*
X106606091Y-30799545D01*
X106688262Y-30791640D01*
X106744519Y-30796136D01*
X106790445Y-30806346D01*
X106834611Y-30821789D01*
X106880768Y-30844380D01*
X106932667Y-30876035D01*
X106994059Y-30918668D01*
X107016163Y-30934825D01*
X107130006Y-31019592D01*
X107236207Y-31100475D01*
X107337029Y-31179405D01*
X107434735Y-31258315D01*
X107531590Y-31339137D01*
X107629855Y-31423803D01*
X107731796Y-31514246D01*
X107839674Y-31612397D01*
X107955755Y-31720189D01*
X108082300Y-31839554D01*
X108137496Y-31892060D01*
X108266734Y-32017272D01*
X108394311Y-32144774D01*
X108519132Y-32273291D01*
X108640101Y-32401546D01*
X108756126Y-32528264D01*
X108866109Y-32652168D01*
X108968957Y-32771983D01*
X109063575Y-32886431D01*
X109148868Y-32994237D01*
X109223740Y-33094125D01*
X109287098Y-33184818D01*
X109337846Y-33265040D01*
X109374889Y-33333515D01*
X109375830Y-33335485D01*
X109393352Y-33373738D01*
X109404207Y-33403427D01*
X109409955Y-33431872D01*
X109412158Y-33466394D01*
X109412406Y-33506998D01*
X110373859Y-33506998D01*
X110374457Y-33504499D01*
X110369479Y-33446256D01*
X110346697Y-33389245D01*
X110306912Y-33335957D01*
X110280210Y-33310912D01*
X110259422Y-33294501D01*
X110225210Y-33268665D01*
X110180284Y-33235400D01*
X110127355Y-33196699D01*
X110069133Y-33154558D01*
X110013885Y-33114936D01*
X109663327Y-32855487D01*
X109322707Y-32584589D01*
X108990603Y-32300924D01*
X108665592Y-32003176D01*
X108346251Y-31690029D01*
X108031158Y-31360164D01*
X107718890Y-31012265D01*
X107626427Y-30905210D01*
X107568868Y-30837837D01*
X107517736Y-30777564D01*
X107471096Y-30721981D01*
X107427011Y-30668677D01*
X107383545Y-30615243D01*
X107338762Y-30559267D01*
X107290725Y-30498341D01*
X107237498Y-30430053D01*
X107177144Y-30351994D01*
X107107728Y-30261753D01*
X107070363Y-30213068D01*
X107010752Y-30135559D01*
X106961582Y-30072201D01*
X106921428Y-30021336D01*
X106888869Y-29981307D01*
X106862479Y-29950455D01*
X106840835Y-29927121D01*
X106822513Y-29909649D01*
X106806090Y-29896380D01*
X106790141Y-29885656D01*
X106788171Y-29884449D01*
X106734044Y-29858177D01*
X106683050Y-29848758D01*
X106630937Y-29856210D01*
G37*
X106630937Y-29856210D02*
X106573457Y-29880553D01*
X106564454Y-29885469D01*
X106543146Y-29897898D01*
X106524797Y-29910519D01*
X106507260Y-29925764D01*
X106488390Y-29946063D01*
X106466042Y-29973850D01*
X106438070Y-30011555D01*
X106402327Y-30061609D01*
X106375722Y-30099346D01*
X106283572Y-30227167D01*
X106179928Y-30365299D01*
X106067516Y-30510325D01*
X105949062Y-30658826D01*
X105827291Y-30807382D01*
X105704929Y-30952576D01*
X105588635Y-31086533D01*
X105474296Y-31213703D01*
X105348592Y-31349135D01*
X105214210Y-31490157D01*
X105073837Y-31634097D01*
X104930159Y-31778285D01*
X104785862Y-31920047D01*
X104643633Y-32056712D01*
X104506158Y-32185608D01*
X104376124Y-32304064D01*
X104273424Y-32394572D01*
X104180148Y-32474140D01*
X104080153Y-32557371D01*
X103975350Y-32642805D01*
X103867647Y-32728983D01*
X103758956Y-32814448D01*
X103651186Y-32897740D01*
X103546247Y-32977401D01*
X103446050Y-33051973D01*
X103352504Y-33119997D01*
X103267519Y-33180014D01*
X103193006Y-33230566D01*
X103130875Y-33270194D01*
X103112045Y-33281425D01*
X103064100Y-33319429D01*
X103022897Y-33371715D01*
X102992509Y-33432979D01*
X102989800Y-33440632D01*
X102976484Y-33493212D01*
X102976643Y-33538810D01*
X102990751Y-33585332D01*
X102999644Y-33604447D01*
X103019978Y-33637682D01*
X103048087Y-33669291D01*
X103086662Y-33701544D01*
X103138396Y-33736709D01*
X103201089Y-33774252D01*
X103231869Y-33793511D01*
X103275892Y-33823276D01*
X103330849Y-33861850D01*
X103394436Y-33907535D01*
X103464344Y-33958633D01*
X103538268Y-34013447D01*
X103613900Y-34070279D01*
X103688933Y-34127430D01*
X103761062Y-34183203D01*
X103823735Y-34232525D01*
X104024875Y-34395203D01*
X104217054Y-34556571D01*
X104404060Y-34720023D01*
X104589683Y-34888956D01*
X104777712Y-35066766D01*
X104971936Y-35256851D01*
X105020192Y-35304975D01*
X105218622Y-35506451D01*
X105403182Y-35700154D01*
X105576532Y-35889151D01*
X105741334Y-36076507D01*
X105900247Y-36265291D01*
X106055930Y-36458567D01*
X106211045Y-36659403D01*
X106311148Y-36793185D01*
X106371217Y-36874063D01*
X106421126Y-36940421D01*
X106462182Y-36993841D01*
X106495692Y-37035905D01*
X106522960Y-37068195D01*
X106545293Y-37092293D01*
X106563999Y-37109780D01*
X106580382Y-37122238D01*
X106585694Y-37125633D01*
X106623269Y-37139081D01*
X106672514Y-37143024D01*
X106727781Y-37137487D01*
X106776902Y-37124797D01*
X106820304Y-37106301D01*
X106854840Y-37081553D01*
X106885611Y-37046041D01*
X106911643Y-37005675D01*
X106945376Y-36951878D01*
X106990264Y-36885217D01*
X107044635Y-36807869D01*
X107106822Y-36722013D01*
X107175154Y-36629826D01*
X107247961Y-36533487D01*
X107323575Y-36435172D01*
X107400324Y-36337061D01*
X107476539Y-36241330D01*
X107550551Y-36150157D01*
X107620689Y-36065721D01*
X107685285Y-35990199D01*
X107722685Y-35947840D01*
X107995443Y-35649820D01*
X108264529Y-35368674D01*
X108532171Y-35102408D01*
X108800596Y-34849032D01*
X109072032Y-34606552D01*
X109348709Y-34372977D01*
X109632853Y-34146314D01*
X109926694Y-33924571D01*
X110223152Y-33712256D01*
X110273241Y-33675125D01*
X110309444Y-33642410D01*
X110335637Y-33609863D01*
X110355701Y-33573236D01*
X110360828Y-33561482D01*
X110373859Y-33506998D01*
X109412406Y-33506998D01*
X109411479Y-33545174D01*
X109408228Y-33579627D01*
X109401529Y-33612543D01*
X109390261Y-33646112D01*
X109373302Y-33682520D01*
X109349530Y-33723955D01*
X109317824Y-33772605D01*
X109277061Y-33830658D01*
X109226119Y-33900301D01*
X109176731Y-33966570D01*
X109069708Y-34106062D01*
X108958287Y-34244300D01*
X108841228Y-34382577D01*
X108717293Y-34522180D01*
X108585243Y-34664402D01*
X108443838Y-34810531D01*
X108291840Y-34961858D01*
X108128010Y-35119673D01*
X107951109Y-35285265D01*
X107759897Y-35459926D01*
X107633735Y-35573229D01*
X107502837Y-35687793D01*
X107377511Y-35792890D01*
X107258604Y-35887946D01*
X107146964Y-35972384D01*
X107043439Y-36045630D01*
X106948877Y-36107107D01*
X106864126Y-36156242D01*
X106790033Y-36192457D01*
X106727446Y-36215178D01*
X106677214Y-36223830D01*
X106675058Y-36223883D01*
X106655090Y-36222032D01*
X106623491Y-36216904D01*
X106594653Y-36211186D01*
X106548442Y-36198668D01*
X106499507Y-36179913D01*
X106446132Y-36153874D01*
X106386600Y-36119504D01*
X106319196Y-36075753D01*
X106242202Y-36021575D01*
X106153903Y-35955921D01*
X106067237Y-35889188D01*
X105884262Y-35741911D01*
X105694308Y-35580254D01*
X105500236Y-35406979D01*
X105304906Y-35224850D01*
X105111177Y-35036630D01*
X104921912Y-34845082D01*
X104739970Y-34652969D01*
X104568211Y-34463055D01*
X104452793Y-34329628D01*
X104359376Y-34218200D01*
X104278537Y-34119025D01*
X104208976Y-34030278D01*
X104149395Y-33950133D01*
X104098496Y-33876768D01*
X104054979Y-33808356D01*
X104017546Y-33743073D01*
X103984898Y-33679095D01*
X103975417Y-33658962D01*
X103958225Y-33620256D01*
X103948125Y-33590844D01*
X103943564Y-33562782D01*
X103942992Y-33528127D01*
X103944028Y-33498216D01*
X103946414Y-33461607D01*
X103951062Y-33427870D01*
X103959064Y-33394990D01*
X103971509Y-33360956D01*
X103989488Y-33323754D01*
X104014092Y-33281373D01*
X104046412Y-33231798D01*
X104087537Y-33173018D01*
X104138559Y-33103018D01*
X104200568Y-33019788D01*
X104210248Y-33006886D01*
X104314934Y-32869690D01*
X104418446Y-32738865D01*
X104524162Y-32610370D01*
X104635456Y-32480166D01*
X104755704Y-32344210D01*
X104857439Y-32232057D01*
X104904767Y-32181248D01*
X104960915Y-32122419D01*
X105023789Y-32057644D01*
X105091297Y-31989000D01*
X105161343Y-31918563D01*
X105231834Y-31848409D01*
X105300675Y-31780614D01*
X105365774Y-31717254D01*
X105425035Y-31660404D01*
X105476364Y-31612142D01*
X105517669Y-31574542D01*
X105540571Y-31554785D01*
X105572705Y-31527663D01*
X105615174Y-31491088D01*
X105663632Y-31448842D01*
X105713732Y-31404705D01*
X105743178Y-31378526D01*
X105830114Y-31302662D01*
X105928255Y-31220003D01*
X106032410Y-31134797D01*
X106137387Y-31051286D01*
X106237997Y-30973719D01*
X106240194Y-30972056D01*
X106332113Y-30909587D01*
X106425448Y-30859415D01*
X106517630Y-30822435D01*
X106606091Y-30799545D01*
X106688262Y-30791640D01*
X106744519Y-30796136D01*
X106790445Y-30806346D01*
X106834611Y-30821789D01*
X106880768Y-30844380D01*
X106932667Y-30876035D01*
X106994059Y-30918668D01*
X107016163Y-30934825D01*
X107130006Y-31019592D01*
X107236207Y-31100475D01*
X107337029Y-31179405D01*
X107434735Y-31258315D01*
X107531590Y-31339137D01*
X107629855Y-31423803D01*
X107731796Y-31514246D01*
X107839674Y-31612397D01*
X107955755Y-31720189D01*
X108082300Y-31839554D01*
X108137496Y-31892060D01*
X108266734Y-32017272D01*
X108394311Y-32144774D01*
X108519132Y-32273291D01*
X108640101Y-32401546D01*
X108756126Y-32528264D01*
X108866109Y-32652168D01*
X108968957Y-32771983D01*
X109063575Y-32886431D01*
X109148868Y-32994237D01*
X109223740Y-33094125D01*
X109287098Y-33184818D01*
X109337846Y-33265040D01*
X109374889Y-33333515D01*
X109375830Y-33335485D01*
X109393352Y-33373738D01*
X109404207Y-33403427D01*
X109409955Y-33431872D01*
X109412158Y-33466394D01*
X109412406Y-33506998D01*
X110373859Y-33506998D01*
X110374457Y-33504499D01*
X110369479Y-33446256D01*
X110346697Y-33389245D01*
X110306912Y-33335957D01*
X110280210Y-33310912D01*
X110259422Y-33294501D01*
X110225210Y-33268665D01*
X110180284Y-33235400D01*
X110127355Y-33196699D01*
X110069133Y-33154558D01*
X110013885Y-33114936D01*
X109663327Y-32855487D01*
X109322707Y-32584589D01*
X108990603Y-32300924D01*
X108665592Y-32003176D01*
X108346251Y-31690029D01*
X108031158Y-31360164D01*
X107718890Y-31012265D01*
X107626427Y-30905210D01*
X107568868Y-30837837D01*
X107517736Y-30777564D01*
X107471096Y-30721981D01*
X107427011Y-30668677D01*
X107383545Y-30615243D01*
X107338762Y-30559267D01*
X107290725Y-30498341D01*
X107237498Y-30430053D01*
X107177144Y-30351994D01*
X107107728Y-30261753D01*
X107070363Y-30213068D01*
X107010752Y-30135559D01*
X106961582Y-30072201D01*
X106921428Y-30021336D01*
X106888869Y-29981307D01*
X106862479Y-29950455D01*
X106840835Y-29927121D01*
X106822513Y-29909649D01*
X106806090Y-29896380D01*
X106790141Y-29885656D01*
X106788171Y-29884449D01*
X106734044Y-29858177D01*
X106683050Y-29848758D01*
X106630937Y-29856210D01*
G36*
X102963891Y-37983963D02*
G01*
X103554416Y-37986512D01*
X104144942Y-37989061D01*
X104144942Y-38483224D01*
X103062724Y-38488334D01*
X103062724Y-38962562D01*
X104149883Y-38962562D01*
X104149883Y-39476492D01*
X102963891Y-39476492D01*
X102963891Y-39950889D01*
X104831829Y-39950889D01*
X104831829Y-37509722D01*
X102963891Y-37509722D01*
X102963891Y-37983963D01*
G37*
X102963891Y-37983963D02*
X103554416Y-37986512D01*
X104144942Y-37989061D01*
X104144942Y-38483224D01*
X103062724Y-38488334D01*
X103062724Y-38962562D01*
X104149883Y-38962562D01*
X104149883Y-39476492D01*
X102963891Y-39476492D01*
X102963891Y-39950889D01*
X104831829Y-39950889D01*
X104831829Y-37509722D01*
X102963891Y-37509722D01*
X102963891Y-37983963D01*
G36*
X105197510Y-37984119D02*
G01*
X106383502Y-37984119D01*
X106383502Y-38488166D01*
X105296342Y-38488166D01*
X105296342Y-38962562D01*
X106383502Y-38962562D01*
X106383502Y-39476492D01*
X105197510Y-39476492D01*
X105197510Y-39950889D01*
X107065447Y-39950889D01*
X107065447Y-37509722D01*
X105197510Y-37509722D01*
X105197510Y-37984119D01*
G37*
X105197510Y-37984119D02*
X106383502Y-37984119D01*
X106383502Y-38488166D01*
X105296342Y-38488166D01*
X105296342Y-38962562D01*
X106383502Y-38962562D01*
X106383502Y-39476492D01*
X105197510Y-39476492D01*
X105197510Y-39950889D01*
X107065447Y-39950889D01*
X107065447Y-37509722D01*
X105197510Y-37509722D01*
X105197510Y-37984119D01*
G36*
X107441012Y-37984119D02*
G01*
X108617121Y-37984119D01*
X108617121Y-38488166D01*
X107529961Y-38488166D01*
X107529961Y-38962562D01*
X108617121Y-38962562D01*
X108617121Y-39476492D01*
X107441012Y-39476492D01*
X107441012Y-39950889D01*
X109299066Y-39950889D01*
X109299066Y-37509722D01*
X107441012Y-37509722D01*
X107441012Y-37984119D01*
G37*
X107441012Y-37984119D02*
X108617121Y-37984119D01*
X108617121Y-38488166D01*
X107529961Y-38488166D01*
X107529961Y-38962562D01*
X108617121Y-38962562D01*
X108617121Y-39476492D01*
X107441012Y-39476492D01*
X107441012Y-39950889D01*
X109299066Y-39950889D01*
X109299066Y-37509722D01*
X107441012Y-37509722D01*
X107441012Y-37984119D01*
G36*
X109654864Y-39950889D02*
G01*
X110326926Y-39950889D01*
X110326926Y-37509722D01*
X109654864Y-37509722D01*
X109654864Y-39950889D01*
G37*
X109654864Y-39950889D02*
X110326926Y-39950889D01*
X110326926Y-37509722D01*
X109654864Y-37509722D01*
X109654864Y-39950889D01*
G36*
X104140000Y-40672368D02*
G01*
X104693463Y-40672368D01*
X104693463Y-40860150D01*
X104258599Y-40860150D01*
X104258599Y-41097348D01*
X104693463Y-41097348D01*
X104693463Y-41295014D01*
X104140000Y-41295014D01*
X104140000Y-41522329D01*
X104950428Y-41522329D01*
X104950428Y-40435169D01*
X104140000Y-40435169D01*
X104140000Y-40672368D01*
G37*
X104140000Y-40672368D02*
X104693463Y-40672368D01*
X104693463Y-40860150D01*
X104258599Y-40860150D01*
X104258599Y-41097348D01*
X104693463Y-41097348D01*
X104693463Y-41295014D01*
X104140000Y-41295014D01*
X104140000Y-41522329D01*
X104950428Y-41522329D01*
X104950428Y-40435169D01*
X104140000Y-40435169D01*
X104140000Y-40672368D01*
G36*
X105128327Y-40672368D02*
G01*
X105543424Y-40672368D01*
X105543424Y-41522329D01*
X105800389Y-41522329D01*
X105800389Y-40672368D01*
X106215486Y-40672368D01*
X106215486Y-40435169D01*
X105128327Y-40435169D01*
X105128327Y-40672368D01*
G37*
X105128327Y-40672368D02*
X105543424Y-40672368D01*
X105543424Y-41522329D01*
X105800389Y-41522329D01*
X105800389Y-40672368D01*
X106215486Y-40672368D01*
X106215486Y-40435169D01*
X105128327Y-40435169D01*
X105128327Y-40672368D01*
G36*
X106655918Y-40437319D02*
G01*
X106557114Y-40440111D01*
X106386702Y-40795909D01*
X106344803Y-40883389D01*
X106301674Y-40973436D01*
X106258972Y-41062593D01*
X106218350Y-41147406D01*
X106181464Y-41224420D01*
X106149967Y-41290181D01*
X106127534Y-41337018D01*
X106038778Y-41522329D01*
X106329751Y-41522329D01*
X106366429Y-41448204D01*
X106403107Y-41374080D01*
X106927243Y-41374080D01*
X106963921Y-41448204D01*
X107000599Y-41522329D01*
X107147264Y-41522329D01*
X107198202Y-41521861D01*
X107240964Y-41520572D01*
X107272228Y-41518633D01*
X107288672Y-41516217D01*
X107290315Y-41514917D01*
X107285393Y-41504966D01*
X107272458Y-41478857D01*
X107252281Y-41438142D01*
X107225630Y-41384371D01*
X107193274Y-41319095D01*
X107155982Y-41243866D01*
X107114522Y-41160234D01*
X107112745Y-41156648D01*
X106816980Y-41156648D01*
X106664482Y-41156648D01*
X106612102Y-41156195D01*
X106567474Y-41154945D01*
X106533970Y-41153061D01*
X106514959Y-41150708D01*
X106511900Y-41149236D01*
X106515862Y-41137875D01*
X106526707Y-41112283D01*
X106542772Y-41076050D01*
X106562393Y-41032768D01*
X106583908Y-40986029D01*
X106605652Y-40939424D01*
X106625963Y-40896544D01*
X106643178Y-40860981D01*
X106655632Y-40836326D01*
X106661407Y-40826420D01*
X106670244Y-40827315D01*
X106678754Y-40841245D01*
X106685870Y-40858249D01*
X106699393Y-40889617D01*
X106717711Y-40931646D01*
X106739214Y-40980632D01*
X106752554Y-41010870D01*
X106816980Y-41156648D01*
X107112745Y-41156648D01*
X107069664Y-41069751D01*
X107022176Y-40973968D01*
X107020712Y-40971015D01*
X106754723Y-40434526D01*
X106655918Y-40437319D01*
G37*
X106655918Y-40437319D02*
X106557114Y-40440111D01*
X106386702Y-40795909D01*
X106344803Y-40883389D01*
X106301674Y-40973436D01*
X106258972Y-41062593D01*
X106218350Y-41147406D01*
X106181464Y-41224420D01*
X106149967Y-41290181D01*
X106127534Y-41337018D01*
X106038778Y-41522329D01*
X106329751Y-41522329D01*
X106366429Y-41448204D01*
X106403107Y-41374080D01*
X106927243Y-41374080D01*
X106963921Y-41448204D01*
X107000599Y-41522329D01*
X107147264Y-41522329D01*
X107198202Y-41521861D01*
X107240964Y-41520572D01*
X107272228Y-41518633D01*
X107288672Y-41516217D01*
X107290315Y-41514917D01*
X107285393Y-41504966D01*
X107272458Y-41478857D01*
X107252281Y-41438142D01*
X107225630Y-41384371D01*
X107193274Y-41319095D01*
X107155982Y-41243866D01*
X107114522Y-41160234D01*
X107112745Y-41156648D01*
X106816980Y-41156648D01*
X106664482Y-41156648D01*
X106612102Y-41156195D01*
X106567474Y-41154945D01*
X106533970Y-41153061D01*
X106514959Y-41150708D01*
X106511900Y-41149236D01*
X106515862Y-41137875D01*
X106526707Y-41112283D01*
X106542772Y-41076050D01*
X106562393Y-41032768D01*
X106583908Y-40986029D01*
X106605652Y-40939424D01*
X106625963Y-40896544D01*
X106643178Y-40860981D01*
X106655632Y-40836326D01*
X106661407Y-40826420D01*
X106670244Y-40827315D01*
X106678754Y-40841245D01*
X106685870Y-40858249D01*
X106699393Y-40889617D01*
X106717711Y-40931646D01*
X106739214Y-40980632D01*
X106752554Y-41010870D01*
X106816980Y-41156648D01*
X107112745Y-41156648D01*
X107069664Y-41069751D01*
X107022176Y-40973968D01*
X107020712Y-40971015D01*
X106754723Y-40434526D01*
X106655918Y-40437319D01*
G36*
X108210882Y-40743494D02*
G01*
X108056813Y-41051820D01*
X107899632Y-40743695D01*
X107742451Y-40435571D01*
X107480545Y-40435169D01*
X107480545Y-41522329D01*
X107747075Y-41522329D01*
X107749705Y-41254429D01*
X107752335Y-40986528D01*
X107875593Y-41254843D01*
X107998851Y-41523159D01*
X108056490Y-41520273D01*
X108114130Y-41517387D01*
X108234672Y-41252937D01*
X108355214Y-40988486D01*
X108357844Y-41255407D01*
X108360473Y-41522329D01*
X108627004Y-41522329D01*
X108627004Y-40435169D01*
X108364950Y-40435169D01*
X108210882Y-40743494D01*
G37*
X108210882Y-40743494D02*
X108056813Y-41051820D01*
X107899632Y-40743695D01*
X107742451Y-40435571D01*
X107480545Y-40435169D01*
X107480545Y-41522329D01*
X107747075Y-41522329D01*
X107749705Y-41254429D01*
X107752335Y-40986528D01*
X107875593Y-41254843D01*
X107998851Y-41523159D01*
X108056490Y-41520273D01*
X108114130Y-41517387D01*
X108234672Y-41252937D01*
X108355214Y-40988486D01*
X108357844Y-41255407D01*
X108360473Y-41522329D01*
X108627004Y-41522329D01*
X108627004Y-40435169D01*
X108364950Y-40435169D01*
X108210882Y-40743494D01*
G36*
X108874085Y-41522329D02*
G01*
X109131050Y-41522329D01*
X109131050Y-40435169D01*
X108874085Y-40435169D01*
X108874085Y-41522329D01*
G37*
X108874085Y-41522329D02*
X109131050Y-41522329D01*
X109131050Y-40435169D01*
X108874085Y-40435169D01*
X108874085Y-41522329D01*
G36*
X103366266Y-40410943D02*
G01*
X103272962Y-40430343D01*
X103181920Y-40465292D01*
X103097081Y-40514089D01*
X103022385Y-40575031D01*
X102988448Y-40611445D01*
X102964004Y-40640495D01*
X103058420Y-40700906D01*
X103096601Y-40724971D01*
X103128653Y-40744487D01*
X103150962Y-40757299D01*
X103159698Y-40761317D01*
X103170828Y-40756008D01*
X103192684Y-40742239D01*
X103214643Y-40727132D01*
X103281336Y-40689032D01*
X103352645Y-40667604D01*
X103429903Y-40661328D01*
X103474658Y-40663195D01*
X103510209Y-40670057D01*
X103546949Y-40684310D01*
X103563119Y-40692032D01*
X103628880Y-40734176D01*
X103679898Y-40786833D01*
X103716174Y-40847351D01*
X103737710Y-40913077D01*
X103744506Y-40981356D01*
X103736563Y-41049537D01*
X103713882Y-41114967D01*
X103676463Y-41174992D01*
X103624307Y-41226960D01*
X103562949Y-41265550D01*
X103524452Y-41282741D01*
X103491272Y-41292048D01*
X103453615Y-41295680D01*
X103427574Y-41296057D01*
X103355269Y-41290623D01*
X103291991Y-41272817D01*
X103229923Y-41240210D01*
X103213918Y-41229625D01*
X103182528Y-41210621D01*
X103159119Y-41201365D01*
X103149677Y-41201667D01*
X103136274Y-41209794D01*
X103110399Y-41225916D01*
X103076253Y-41247405D01*
X103050845Y-41263493D01*
X102964843Y-41318079D01*
X102995017Y-41356177D01*
X103026884Y-41389353D01*
X103070701Y-41425709D01*
X103120231Y-41460686D01*
X103169236Y-41489726D01*
X103194117Y-41501692D01*
X103261992Y-41524854D01*
X103337850Y-41540988D01*
X103414367Y-41549078D01*
X103484217Y-41548108D01*
X103507471Y-41545156D01*
X103550540Y-41534840D01*
X103602917Y-41517795D01*
X103656652Y-41496932D01*
X103703798Y-41475162D01*
X103715019Y-41469141D01*
X103748320Y-41447083D01*
X103787349Y-41416213D01*
X103824691Y-41382478D01*
X103831542Y-41375671D01*
X103896392Y-41296587D01*
X103944675Y-41209229D01*
X103976396Y-41116030D01*
X103991562Y-41019424D01*
X103990178Y-40921842D01*
X103972250Y-40825718D01*
X103937784Y-40733485D01*
X103886785Y-40647576D01*
X103829620Y-40580518D01*
X103746417Y-40510729D01*
X103654205Y-40458426D01*
X103553919Y-40424038D01*
X103457891Y-40408792D01*
X103366266Y-40410943D01*
G37*
X103366266Y-40410943D02*
X103272962Y-40430343D01*
X103181920Y-40465292D01*
X103097081Y-40514089D01*
X103022385Y-40575031D01*
X102988448Y-40611445D01*
X102964004Y-40640495D01*
X103058420Y-40700906D01*
X103096601Y-40724971D01*
X103128653Y-40744487D01*
X103150962Y-40757299D01*
X103159698Y-40761317D01*
X103170828Y-40756008D01*
X103192684Y-40742239D01*
X103214643Y-40727132D01*
X103281336Y-40689032D01*
X103352645Y-40667604D01*
X103429903Y-40661328D01*
X103474658Y-40663195D01*
X103510209Y-40670057D01*
X103546949Y-40684310D01*
X103563119Y-40692032D01*
X103628880Y-40734176D01*
X103679898Y-40786833D01*
X103716174Y-40847351D01*
X103737710Y-40913077D01*
X103744506Y-40981356D01*
X103736563Y-41049537D01*
X103713882Y-41114967D01*
X103676463Y-41174992D01*
X103624307Y-41226960D01*
X103562949Y-41265550D01*
X103524452Y-41282741D01*
X103491272Y-41292048D01*
X103453615Y-41295680D01*
X103427574Y-41296057D01*
X103355269Y-41290623D01*
X103291991Y-41272817D01*
X103229923Y-41240210D01*
X103213918Y-41229625D01*
X103182528Y-41210621D01*
X103159119Y-41201365D01*
X103149677Y-41201667D01*
X103136274Y-41209794D01*
X103110399Y-41225916D01*
X103076253Y-41247405D01*
X103050845Y-41263493D01*
X102964843Y-41318079D01*
X102995017Y-41356177D01*
X103026884Y-41389353D01*
X103070701Y-41425709D01*
X103120231Y-41460686D01*
X103169236Y-41489726D01*
X103194117Y-41501692D01*
X103261992Y-41524854D01*
X103337850Y-41540988D01*
X103414367Y-41549078D01*
X103484217Y-41548108D01*
X103507471Y-41545156D01*
X103550540Y-41534840D01*
X103602917Y-41517795D01*
X103656652Y-41496932D01*
X103703798Y-41475162D01*
X103715019Y-41469141D01*
X103748320Y-41447083D01*
X103787349Y-41416213D01*
X103824691Y-41382478D01*
X103831542Y-41375671D01*
X103896392Y-41296587D01*
X103944675Y-41209229D01*
X103976396Y-41116030D01*
X103991562Y-41019424D01*
X103990178Y-40921842D01*
X103972250Y-40825718D01*
X103937784Y-40733485D01*
X103886785Y-40647576D01*
X103829620Y-40580518D01*
X103746417Y-40510729D01*
X103654205Y-40458426D01*
X103553919Y-40424038D01*
X103457891Y-40408792D01*
X103366266Y-40410943D01*
G36*
X109711324Y-40410943D02*
G01*
X109618020Y-40430343D01*
X109526978Y-40465292D01*
X109442139Y-40514089D01*
X109367443Y-40575031D01*
X109333507Y-40611445D01*
X109309063Y-40640495D01*
X109403478Y-40700906D01*
X109441660Y-40724971D01*
X109473711Y-40744487D01*
X109496020Y-40757299D01*
X109504756Y-40761317D01*
X109515887Y-40756008D01*
X109537743Y-40742239D01*
X109559702Y-40727132D01*
X109626394Y-40689032D01*
X109697703Y-40667604D01*
X109774962Y-40661328D01*
X109819716Y-40663195D01*
X109855267Y-40670057D01*
X109892008Y-40684310D01*
X109908177Y-40692032D01*
X109973938Y-40734176D01*
X110024956Y-40786833D01*
X110061233Y-40847351D01*
X110082769Y-40913077D01*
X110089565Y-40981356D01*
X110081622Y-41049537D01*
X110058940Y-41114967D01*
X110021521Y-41174992D01*
X109969365Y-41226960D01*
X109908007Y-41265550D01*
X109869510Y-41282741D01*
X109836331Y-41292048D01*
X109798673Y-41295680D01*
X109772633Y-41296057D01*
X109700328Y-41290623D01*
X109637049Y-41272817D01*
X109574982Y-41240210D01*
X109558976Y-41229625D01*
X109527586Y-41210621D01*
X109504177Y-41201365D01*
X109494735Y-41201667D01*
X109481332Y-41209794D01*
X109455457Y-41225916D01*
X109421311Y-41247405D01*
X109395904Y-41263493D01*
X109309901Y-41318079D01*
X109340075Y-41356177D01*
X109371942Y-41389353D01*
X109415760Y-41425709D01*
X109465290Y-41460686D01*
X109514294Y-41489726D01*
X109539175Y-41501692D01*
X109607051Y-41524854D01*
X109682909Y-41540988D01*
X109759425Y-41549078D01*
X109829275Y-41548108D01*
X109852529Y-41545156D01*
X109895599Y-41534840D01*
X109947975Y-41517795D01*
X110001711Y-41496932D01*
X110048856Y-41475162D01*
X110060078Y-41469141D01*
X110093378Y-41447083D01*
X110132407Y-41416213D01*
X110169750Y-41382478D01*
X110176600Y-41375671D01*
X110241450Y-41296587D01*
X110289733Y-41209229D01*
X110321455Y-41116030D01*
X110336621Y-41019424D01*
X110335236Y-40921842D01*
X110317308Y-40825718D01*
X110282842Y-40733485D01*
X110231844Y-40647576D01*
X110174679Y-40580518D01*
X110091475Y-40510729D01*
X109999264Y-40458426D01*
X109898977Y-40424038D01*
X109802949Y-40408792D01*
X109711324Y-40410943D01*
G37*
X109711324Y-40410943D02*
X109618020Y-40430343D01*
X109526978Y-40465292D01*
X109442139Y-40514089D01*
X109367443Y-40575031D01*
X109333507Y-40611445D01*
X109309063Y-40640495D01*
X109403478Y-40700906D01*
X109441660Y-40724971D01*
X109473711Y-40744487D01*
X109496020Y-40757299D01*
X109504756Y-40761317D01*
X109515887Y-40756008D01*
X109537743Y-40742239D01*
X109559702Y-40727132D01*
X109626394Y-40689032D01*
X109697703Y-40667604D01*
X109774962Y-40661328D01*
X109819716Y-40663195D01*
X109855267Y-40670057D01*
X109892008Y-40684310D01*
X109908177Y-40692032D01*
X109973938Y-40734176D01*
X110024956Y-40786833D01*
X110061233Y-40847351D01*
X110082769Y-40913077D01*
X110089565Y-40981356D01*
X110081622Y-41049537D01*
X110058940Y-41114967D01*
X110021521Y-41174992D01*
X109969365Y-41226960D01*
X109908007Y-41265550D01*
X109869510Y-41282741D01*
X109836331Y-41292048D01*
X109798673Y-41295680D01*
X109772633Y-41296057D01*
X109700328Y-41290623D01*
X109637049Y-41272817D01*
X109574982Y-41240210D01*
X109558976Y-41229625D01*
X109527586Y-41210621D01*
X109504177Y-41201365D01*
X109494735Y-41201667D01*
X109481332Y-41209794D01*
X109455457Y-41225916D01*
X109421311Y-41247405D01*
X109395904Y-41263493D01*
X109309901Y-41318079D01*
X109340075Y-41356177D01*
X109371942Y-41389353D01*
X109415760Y-41425709D01*
X109465290Y-41460686D01*
X109514294Y-41489726D01*
X109539175Y-41501692D01*
X109607051Y-41524854D01*
X109682909Y-41540988D01*
X109759425Y-41549078D01*
X109829275Y-41548108D01*
X109852529Y-41545156D01*
X109895599Y-41534840D01*
X109947975Y-41517795D01*
X110001711Y-41496932D01*
X110048856Y-41475162D01*
X110060078Y-41469141D01*
X110093378Y-41447083D01*
X110132407Y-41416213D01*
X110169750Y-41382478D01*
X110176600Y-41375671D01*
X110241450Y-41296587D01*
X110289733Y-41209229D01*
X110321455Y-41116030D01*
X110336621Y-41019424D01*
X110335236Y-40921842D01*
X110317308Y-40825718D01*
X110282842Y-40733485D01*
X110231844Y-40647576D01*
X110174679Y-40580518D01*
X110091475Y-40510729D01*
X109999264Y-40458426D01*
X109898977Y-40424038D01*
X109802949Y-40408792D01*
X109711324Y-40410943D01*
G36*
X97625103Y-32502889D02*
G01*
X97611067Y-32527266D01*
X97606873Y-32582101D01*
X97610227Y-32679019D01*
X97611339Y-32699709D01*
X97614709Y-32814847D01*
X97607141Y-32895260D01*
X97585119Y-32961549D01*
X97557876Y-33012895D01*
X97451964Y-33143181D01*
X97316209Y-33229905D01*
X97159814Y-33269401D01*
X96991981Y-33258002D01*
X96961717Y-33250389D01*
X96880069Y-33221326D01*
X96819930Y-33188895D01*
X96807398Y-33177713D01*
X96764487Y-33142161D01*
X96737835Y-33159267D01*
X96726900Y-33229526D01*
X96726549Y-33251670D01*
X96753641Y-33445240D01*
X96831665Y-33629307D01*
X96955742Y-33793140D01*
X96986335Y-33823170D01*
X97161692Y-33955087D01*
X97346166Y-34031940D01*
X97539709Y-34053718D01*
X97742274Y-34020410D01*
X97773252Y-34010722D01*
X97890224Y-33953995D01*
X98011011Y-33865865D01*
X98121847Y-33759559D01*
X98208964Y-33648305D01*
X98258595Y-33545331D01*
X98258948Y-33544050D01*
X98283840Y-33400999D01*
X98289470Y-33241901D01*
X98276651Y-33088073D01*
X98246191Y-32960834D01*
X98235802Y-32935430D01*
X98159548Y-32813621D01*
X98051927Y-32698942D01*
X97926395Y-32601478D01*
X97796408Y-32531315D01*
X97675422Y-32498539D01*
X97651275Y-32497346D01*
X97625103Y-32502889D01*
G37*
X97625103Y-32502889D02*
X97611067Y-32527266D01*
X97606873Y-32582101D01*
X97610227Y-32679019D01*
X97611339Y-32699709D01*
X97614709Y-32814847D01*
X97607141Y-32895260D01*
X97585119Y-32961549D01*
X97557876Y-33012895D01*
X97451964Y-33143181D01*
X97316209Y-33229905D01*
X97159814Y-33269401D01*
X96991981Y-33258002D01*
X96961717Y-33250389D01*
X96880069Y-33221326D01*
X96819930Y-33188895D01*
X96807398Y-33177713D01*
X96764487Y-33142161D01*
X96737835Y-33159267D01*
X96726900Y-33229526D01*
X96726549Y-33251670D01*
X96753641Y-33445240D01*
X96831665Y-33629307D01*
X96955742Y-33793140D01*
X96986335Y-33823170D01*
X97161692Y-33955087D01*
X97346166Y-34031940D01*
X97539709Y-34053718D01*
X97742274Y-34020410D01*
X97773252Y-34010722D01*
X97890224Y-33953995D01*
X98011011Y-33865865D01*
X98121847Y-33759559D01*
X98208964Y-33648305D01*
X98258595Y-33545331D01*
X98258948Y-33544050D01*
X98283840Y-33400999D01*
X98289470Y-33241901D01*
X98276651Y-33088073D01*
X98246191Y-32960834D01*
X98235802Y-32935430D01*
X98159548Y-32813621D01*
X98051927Y-32698942D01*
X97926395Y-32601478D01*
X97796408Y-32531315D01*
X97675422Y-32498539D01*
X97651275Y-32497346D01*
X97625103Y-32502889D01*
G36*
X97383386Y-29772902D02*
G01*
X97329749Y-29800529D01*
X97286639Y-29834470D01*
X97181148Y-29954565D01*
X97126705Y-30088736D01*
X97123557Y-30228333D01*
X97171947Y-30364708D01*
X97268183Y-30485563D01*
X97307824Y-30529215D01*
X97329731Y-30578249D01*
X97338960Y-30650467D01*
X97340615Y-30740499D01*
X97340615Y-30927766D01*
X97152208Y-30946466D01*
X96785277Y-31008330D01*
X96418392Y-31118444D01*
X96066803Y-31271345D01*
X95780971Y-31437746D01*
X95650110Y-31534725D01*
X95498976Y-31662699D01*
X95339510Y-31810016D01*
X95183655Y-31965021D01*
X95043354Y-32116062D01*
X94930549Y-32251486D01*
X94889847Y-32307271D01*
X94723234Y-32585693D01*
X94581879Y-32891752D01*
X94476319Y-33201769D01*
X94454808Y-33285229D01*
X94421865Y-33428719D01*
X94396917Y-33553814D01*
X94378878Y-33672350D01*
X94366661Y-33796164D01*
X94359178Y-33937096D01*
X94355343Y-34106981D01*
X94354068Y-34317658D01*
X94354022Y-34382786D01*
X94354022Y-35009434D01*
X100690066Y-35009434D01*
X100690066Y-34430203D01*
X100684730Y-34098524D01*
X100667439Y-33810535D01*
X100636267Y-33555009D01*
X100596923Y-33358794D01*
X98790587Y-33358794D01*
X98785829Y-33467802D01*
X98771035Y-33559732D01*
X98744113Y-33653801D01*
X98737270Y-33674037D01*
X98623706Y-33926533D01*
X98470656Y-34140161D01*
X98279359Y-34313618D01*
X98051053Y-34445606D01*
X97971137Y-34478586D01*
X97860847Y-34518288D01*
X97773298Y-34542500D01*
X97688251Y-34554186D01*
X97585467Y-34556307D01*
X97465110Y-34552648D01*
X97329829Y-34545601D01*
X97230846Y-34534065D01*
X97148634Y-34513433D01*
X97063669Y-34479097D01*
X96979259Y-34437992D01*
X96740241Y-34289831D01*
X96545753Y-34108929D01*
X96396780Y-33896416D01*
X96294305Y-33653421D01*
X96293382Y-33650393D01*
X96273703Y-33555015D01*
X96259349Y-33425700D01*
X96252588Y-33284249D01*
X96252346Y-33256010D01*
X96271465Y-33007585D01*
X96332451Y-32788141D01*
X96439815Y-32586554D01*
X96598071Y-32391700D01*
X96606553Y-32382816D01*
X96778497Y-32224146D01*
X96950723Y-32111000D01*
X97134975Y-32038961D01*
X97342997Y-32003615D01*
X97586532Y-32000544D01*
X97618966Y-32002149D01*
X97755633Y-32011952D01*
X97857087Y-32026959D01*
X97943935Y-32052205D01*
X98036789Y-32092727D01*
X98082172Y-32115328D01*
X98296173Y-32252955D01*
X98484049Y-32431043D01*
X98634089Y-32637567D01*
X98685222Y-32734599D01*
X98729153Y-32834881D01*
X98757437Y-32921575D01*
X98774262Y-33014312D01*
X98783819Y-33132725D01*
X98787402Y-33213488D01*
X98790587Y-33358794D01*
X100596923Y-33358794D01*
X100589288Y-33320719D01*
X100524575Y-33096440D01*
X100440205Y-32870944D01*
X100410560Y-32800890D01*
X100315981Y-32599870D01*
X100212820Y-32418785D01*
X100092105Y-32244820D01*
X99944864Y-32065162D01*
X99762124Y-31866998D01*
X99742157Y-31846295D01*
X99445527Y-31579317D01*
X99114771Y-31353948D01*
X98756282Y-31173402D01*
X98376452Y-31040889D01*
X97981676Y-30959621D01*
X97975372Y-30958768D01*
X97703472Y-30922278D01*
X97703472Y-30741044D01*
X97705752Y-30639780D01*
X97717615Y-30573304D01*
X97746598Y-30520620D01*
X97800237Y-30460729D01*
X97806324Y-30454480D01*
X97867778Y-30384358D01*
X97900759Y-30319494D01*
X97916050Y-30234559D01*
X97919704Y-30188138D01*
X97923152Y-30094177D01*
X97912634Y-30030525D01*
X97879838Y-29972993D01*
X97821968Y-29903673D01*
X97756305Y-29833536D01*
X97701256Y-29794975D01*
X97633670Y-29776591D01*
X97546759Y-29768144D01*
X97448399Y-29763975D01*
X97383386Y-29772902D01*
G37*
X97383386Y-29772902D02*
X97329749Y-29800529D01*
X97286639Y-29834470D01*
X97181148Y-29954565D01*
X97126705Y-30088736D01*
X97123557Y-30228333D01*
X97171947Y-30364708D01*
X97268183Y-30485563D01*
X97307824Y-30529215D01*
X97329731Y-30578249D01*
X97338960Y-30650467D01*
X97340615Y-30740499D01*
X97340615Y-30927766D01*
X97152208Y-30946466D01*
X96785277Y-31008330D01*
X96418392Y-31118444D01*
X96066803Y-31271345D01*
X95780971Y-31437746D01*
X95650110Y-31534725D01*
X95498976Y-31662699D01*
X95339510Y-31810016D01*
X95183655Y-31965021D01*
X95043354Y-32116062D01*
X94930549Y-32251486D01*
X94889847Y-32307271D01*
X94723234Y-32585693D01*
X94581879Y-32891752D01*
X94476319Y-33201769D01*
X94454808Y-33285229D01*
X94421865Y-33428719D01*
X94396917Y-33553814D01*
X94378878Y-33672350D01*
X94366661Y-33796164D01*
X94359178Y-33937096D01*
X94355343Y-34106981D01*
X94354068Y-34317658D01*
X94354022Y-34382786D01*
X94354022Y-35009434D01*
X100690066Y-35009434D01*
X100690066Y-34430203D01*
X100684730Y-34098524D01*
X100667439Y-33810535D01*
X100636267Y-33555009D01*
X100596923Y-33358794D01*
X98790587Y-33358794D01*
X98785829Y-33467802D01*
X98771035Y-33559732D01*
X98744113Y-33653801D01*
X98737270Y-33674037D01*
X98623706Y-33926533D01*
X98470656Y-34140161D01*
X98279359Y-34313618D01*
X98051053Y-34445606D01*
X97971137Y-34478586D01*
X97860847Y-34518288D01*
X97773298Y-34542500D01*
X97688251Y-34554186D01*
X97585467Y-34556307D01*
X97465110Y-34552648D01*
X97329829Y-34545601D01*
X97230846Y-34534065D01*
X97148634Y-34513433D01*
X97063669Y-34479097D01*
X96979259Y-34437992D01*
X96740241Y-34289831D01*
X96545753Y-34108929D01*
X96396780Y-33896416D01*
X96294305Y-33653421D01*
X96293382Y-33650393D01*
X96273703Y-33555015D01*
X96259349Y-33425700D01*
X96252588Y-33284249D01*
X96252346Y-33256010D01*
X96271465Y-33007585D01*
X96332451Y-32788141D01*
X96439815Y-32586554D01*
X96598071Y-32391700D01*
X96606553Y-32382816D01*
X96778497Y-32224146D01*
X96950723Y-32111000D01*
X97134975Y-32038961D01*
X97342997Y-32003615D01*
X97586532Y-32000544D01*
X97618966Y-32002149D01*
X97755633Y-32011952D01*
X97857087Y-32026959D01*
X97943935Y-32052205D01*
X98036789Y-32092727D01*
X98082172Y-32115328D01*
X98296173Y-32252955D01*
X98484049Y-32431043D01*
X98634089Y-32637567D01*
X98685222Y-32734599D01*
X98729153Y-32834881D01*
X98757437Y-32921575D01*
X98774262Y-33014312D01*
X98783819Y-33132725D01*
X98787402Y-33213488D01*
X98790587Y-33358794D01*
X100596923Y-33358794D01*
X100589288Y-33320719D01*
X100524575Y-33096440D01*
X100440205Y-32870944D01*
X100410560Y-32800890D01*
X100315981Y-32599870D01*
X100212820Y-32418785D01*
X100092105Y-32244820D01*
X99944864Y-32065162D01*
X99762124Y-31866998D01*
X99742157Y-31846295D01*
X99445527Y-31579317D01*
X99114771Y-31353948D01*
X98756282Y-31173402D01*
X98376452Y-31040889D01*
X97981676Y-30959621D01*
X97975372Y-30958768D01*
X97703472Y-30922278D01*
X97703472Y-30741044D01*
X97705752Y-30639780D01*
X97717615Y-30573304D01*
X97746598Y-30520620D01*
X97800237Y-30460729D01*
X97806324Y-30454480D01*
X97867778Y-30384358D01*
X97900759Y-30319494D01*
X97916050Y-30234559D01*
X97919704Y-30188138D01*
X97923152Y-30094177D01*
X97912634Y-30030525D01*
X97879838Y-29972993D01*
X97821968Y-29903673D01*
X97756305Y-29833536D01*
X97701256Y-29794975D01*
X97633670Y-29776591D01*
X97546759Y-29768144D01*
X97448399Y-29763975D01*
X97383386Y-29772902D01*
G36*
X97184797Y-35735444D02*
G01*
X96889314Y-35736750D01*
X96638426Y-35739844D01*
X96426520Y-35745480D01*
X96247980Y-35754412D01*
X96097194Y-35767392D01*
X95968547Y-35785175D01*
X95856425Y-35808515D01*
X95755213Y-35838165D01*
X95659299Y-35874879D01*
X95563068Y-35919411D01*
X95460905Y-35972514D01*
X95363013Y-36026171D01*
X95199265Y-36135357D01*
X95028094Y-36281120D01*
X94864087Y-36448736D01*
X94721833Y-36623479D01*
X94628201Y-36767896D01*
X94567346Y-36887845D01*
X94503314Y-37030976D01*
X94449543Y-37167176D01*
X94447593Y-37172621D01*
X94368082Y-37395918D01*
X94359741Y-38672896D01*
X94351401Y-39949874D01*
X100694239Y-39949874D01*
X100683004Y-38742676D01*
X100679710Y-38420878D01*
X100675837Y-38148939D01*
X100670665Y-37920896D01*
X100663475Y-37730782D01*
X100653546Y-37572634D01*
X100640158Y-37440486D01*
X100622592Y-37328375D01*
X100600127Y-37230335D01*
X100572043Y-37140402D01*
X100537620Y-37052612D01*
X100496138Y-36960999D01*
X100458545Y-36883308D01*
X100399683Y-36771283D01*
X100337540Y-36673192D01*
X100261904Y-36575586D01*
X100162563Y-36465014D01*
X100062044Y-36361108D01*
X99942390Y-36241942D01*
X99846960Y-36154083D01*
X99762444Y-36087513D01*
X99675533Y-36032216D01*
X99572919Y-35978174D01*
X99517758Y-35951445D01*
X99418314Y-35904607D01*
X99328674Y-35865068D01*
X99243157Y-35832211D01*
X99156085Y-35805419D01*
X99061779Y-35784071D01*
X98954561Y-35767552D01*
X98828752Y-35755242D01*
X98678673Y-35746524D01*
X98498645Y-35740780D01*
X98282990Y-35737392D01*
X98026029Y-35735741D01*
X97722083Y-35735210D01*
X97530490Y-35735171D01*
X97184797Y-35735444D01*
G37*
X97184797Y-35735444D02*
X96889314Y-35736750D01*
X96638426Y-35739844D01*
X96426520Y-35745480D01*
X96247980Y-35754412D01*
X96097194Y-35767392D01*
X95968547Y-35785175D01*
X95856425Y-35808515D01*
X95755213Y-35838165D01*
X95659299Y-35874879D01*
X95563068Y-35919411D01*
X95460905Y-35972514D01*
X95363013Y-36026171D01*
X95199265Y-36135357D01*
X95028094Y-36281120D01*
X94864087Y-36448736D01*
X94721833Y-36623479D01*
X94628201Y-36767896D01*
X94567346Y-36887845D01*
X94503314Y-37030976D01*
X94449543Y-37167176D01*
X94447593Y-37172621D01*
X94368082Y-37395918D01*
X94359741Y-38672896D01*
X94351401Y-39949874D01*
X100694239Y-39949874D01*
X100683004Y-38742676D01*
X100679710Y-38420878D01*
X100675837Y-38148939D01*
X100670665Y-37920896D01*
X100663475Y-37730782D01*
X100653546Y-37572634D01*
X100640158Y-37440486D01*
X100622592Y-37328375D01*
X100600127Y-37230335D01*
X100572043Y-37140402D01*
X100537620Y-37052612D01*
X100496138Y-36960999D01*
X100458545Y-36883308D01*
X100399683Y-36771283D01*
X100337540Y-36673192D01*
X100261904Y-36575586D01*
X100162563Y-36465014D01*
X100062044Y-36361108D01*
X99942390Y-36241942D01*
X99846960Y-36154083D01*
X99762444Y-36087513D01*
X99675533Y-36032216D01*
X99572919Y-35978174D01*
X99517758Y-35951445D01*
X99418314Y-35904607D01*
X99328674Y-35865068D01*
X99243157Y-35832211D01*
X99156085Y-35805419D01*
X99061779Y-35784071D01*
X98954561Y-35767552D01*
X98828752Y-35755242D01*
X98678673Y-35746524D01*
X98498645Y-35740780D01*
X98282990Y-35737392D01*
X98026029Y-35735741D01*
X97722083Y-35735210D01*
X97530490Y-35735171D01*
X97184797Y-35735444D01*
G36*
X94354022Y-41512951D02*
G01*
X100690066Y-41512951D01*
X100690066Y-40563940D01*
X94354022Y-40563940D01*
X94354022Y-41512951D01*
G37*
X94354022Y-41512951D02*
X100690066Y-41512951D01*
X100690066Y-40563940D01*
X94354022Y-40563940D01*
X94354022Y-41512951D01*
%TD*%
M02*
