%TF.GenerationSoftware,KiCad,Pcbnew,5.1.10-88a1d61d58~88~ubuntu20.04.1*%
%TF.CreationDate,2021-05-02T12:58:33-03:00*%
%TF.ProjectId,D3_Board,44335f42-6f61-4726-942e-6b696361645f,rev?*%
%TF.SameCoordinates,Original*%
%TF.FileFunction,Soldermask,Bot*%
%TF.FilePolarity,Negative*%
%FSLAX46Y46*%
G04 Gerber Fmt 4.6, Leading zero omitted, Abs format (unit mm)*
G04 Created by KiCad (PCBNEW 5.1.10-88a1d61d58~88~ubuntu20.04.1) date 2021-05-02 12:58:33*
%MOMM*%
%LPD*%
G01*
G04 APERTURE LIST*
%ADD10C,4.500000*%
%ADD11C,2.600000*%
%ADD12R,2.600000X2.600000*%
%ADD13C,1.524000*%
%ADD14C,2.540000*%
%ADD15R,2.540000X2.540000*%
%ADD16R,1.727200X2.250000*%
%ADD17O,1.727200X2.250000*%
%ADD18O,1.600000X1.600000*%
%ADD19C,1.600000*%
%ADD20R,1.050000X1.500000*%
%ADD21O,1.050000X1.500000*%
%ADD22O,1.700000X1.700000*%
%ADD23R,1.700000X1.700000*%
%ADD24O,1.700000X1.950000*%
%ADD25C,6.000000*%
%ADD26C,2.000000*%
%ADD27R,2.000000X2.000000*%
G04 APERTURE END LIST*
D10*
%TO.C,REF\u002A\u002A*%
X109920000Y-5080000D03*
%TD*%
%TO.C,REF\u002A\u002A*%
X109920000Y-77920000D03*
%TD*%
%TO.C,REF\u002A\u002A*%
X5080000Y-77920000D03*
%TD*%
%TO.C,REF\u002A\u002A*%
X5080000Y-5080000D03*
%TD*%
D11*
%TO.C,J5*%
X20367000Y-77152500D03*
D12*
X15367000Y-77152500D03*
%TD*%
D13*
%TO.C,U4*%
X85026500Y-74422000D03*
X85026500Y-71882000D03*
X85026500Y-69342000D03*
X85026500Y-66802000D03*
X85026500Y-64262000D03*
X85026500Y-61722000D03*
X85026500Y-59182000D03*
X85026500Y-56642000D03*
%TD*%
%TO.C,U3*%
X85090000Y-43878500D03*
X85090000Y-41338500D03*
X85090000Y-38798500D03*
X85090000Y-46418500D03*
%TD*%
D14*
%TO.C,U2*%
X46926500Y-50736500D03*
X7429500Y-67881500D03*
X46926500Y-67881500D03*
D15*
X7429500Y-50736500D03*
%TD*%
D16*
%TO.C,U1*%
X29413200Y-33591500D03*
D17*
X31953200Y-33591500D03*
X34493200Y-33591500D03*
X37033200Y-33591500D03*
X39573200Y-33591500D03*
X42113200Y-33591500D03*
X44653200Y-33591500D03*
X47193200Y-33591500D03*
X49733200Y-33591500D03*
X52273200Y-33591500D03*
X54813200Y-33591500D03*
X57353200Y-33591500D03*
X59893200Y-33591500D03*
X62433200Y-33591500D03*
X64973200Y-33591500D03*
X67513200Y-33591500D03*
X70053200Y-33591500D03*
X72593200Y-33591500D03*
X75133200Y-33591500D03*
X77673200Y-33591500D03*
X77673200Y-18351500D03*
X75133200Y-18351500D03*
X72593200Y-18351500D03*
X70053200Y-18351500D03*
X67513200Y-18351500D03*
X64973200Y-18351500D03*
X62433200Y-18351500D03*
X59893200Y-18351500D03*
X57353200Y-18351500D03*
X54813200Y-18351500D03*
X52273200Y-18351500D03*
X49733200Y-18351500D03*
X47193200Y-18351500D03*
X44653200Y-18351500D03*
X42113200Y-18351500D03*
X39573200Y-18351500D03*
X37033200Y-18351500D03*
X34493200Y-18351500D03*
X31953200Y-18351500D03*
X29362400Y-18351500D03*
%TD*%
D18*
%TO.C,R10*%
X21844000Y-24955500D03*
D19*
X21844000Y-35115500D03*
%TD*%
D18*
%TO.C,R9*%
X17716500Y-35115500D03*
D19*
X17716500Y-24955500D03*
%TD*%
D18*
%TO.C,R8*%
X73025000Y-51181000D03*
D19*
X62865000Y-51181000D03*
%TD*%
D18*
%TO.C,R7*%
X62865000Y-67691000D03*
D19*
X73025000Y-67691000D03*
%TD*%
D18*
%TO.C,R6*%
X73025000Y-47117000D03*
D19*
X62865000Y-47117000D03*
%TD*%
D18*
%TO.C,R5*%
X73025000Y-63627000D03*
D19*
X62865000Y-63627000D03*
%TD*%
D18*
%TO.C,R4*%
X73025000Y-43053000D03*
D19*
X62865000Y-43053000D03*
%TD*%
D18*
%TO.C,R3*%
X73025000Y-59563000D03*
D19*
X62865000Y-59563000D03*
%TD*%
D18*
%TO.C,R2*%
X23050500Y-41211500D03*
D19*
X33210500Y-41211500D03*
%TD*%
D18*
%TO.C,R1*%
X33210500Y-45212000D03*
D19*
X23050500Y-45212000D03*
%TD*%
D20*
%TO.C,Q4*%
X56642000Y-50419000D03*
D21*
X59182000Y-50419000D03*
X57912000Y-50419000D03*
%TD*%
D20*
%TO.C,Q3*%
X56642000Y-67183000D03*
D21*
X59182000Y-67183000D03*
X57912000Y-67183000D03*
%TD*%
D20*
%TO.C,Q2*%
X56642000Y-44069000D03*
D21*
X59182000Y-44069000D03*
X57912000Y-44069000D03*
%TD*%
D20*
%TO.C,Q1*%
X56642000Y-60833000D03*
D21*
X59182000Y-60833000D03*
X57912000Y-60833000D03*
%TD*%
D22*
%TO.C,M2*%
X78486000Y-44323000D03*
X78486000Y-46863000D03*
D23*
X78486000Y-49403000D03*
%TD*%
D22*
%TO.C,M1*%
X78740000Y-61087000D03*
X78740000Y-63627000D03*
D23*
X78740000Y-66167000D03*
%TD*%
D11*
%TO.C,J17*%
X41101000Y-5900000D03*
D12*
X46101000Y-5900000D03*
%TD*%
D11*
%TO.C,J16*%
X17834600Y-5900000D03*
D12*
X22834600Y-5900000D03*
%TD*%
D11*
%TO.C,J15*%
X51159400Y-5900000D03*
D12*
X56159400Y-5900000D03*
%TD*%
D11*
%TO.C,J14*%
X27893000Y-5900000D03*
D12*
X32893000Y-5900000D03*
%TD*%
D23*
%TO.C,J13*%
X105156000Y-70231000D03*
D22*
X105156000Y-72771000D03*
%TD*%
D23*
%TO.C,J12*%
X87249000Y-14351000D03*
D22*
X89789000Y-14351000D03*
X92329000Y-14351000D03*
X94869000Y-14351000D03*
X97409000Y-14351000D03*
X99949000Y-14351000D03*
X102489000Y-14351000D03*
%TD*%
%TO.C,J11*%
X102489000Y-19177000D03*
X99949000Y-19177000D03*
X97409000Y-19177000D03*
X94869000Y-19177000D03*
X92329000Y-19177000D03*
X89789000Y-19177000D03*
D23*
X87249000Y-19177000D03*
%TD*%
D22*
%TO.C,J10*%
X9652000Y-27495500D03*
X9652000Y-24955500D03*
D23*
X9652000Y-22415500D03*
%TD*%
D24*
%TO.C,J9*%
X87385500Y-7747000D03*
X89885500Y-7747000D03*
X92385500Y-7747000D03*
X94885500Y-7747000D03*
X97385500Y-7747000D03*
G36*
G01*
X100735500Y-7022000D02*
X100735500Y-8472000D01*
G75*
G02*
X100485500Y-8722000I-250000J0D01*
G01*
X99285500Y-8722000D01*
G75*
G02*
X99035500Y-8472000I0J250000D01*
G01*
X99035500Y-7022000D01*
G75*
G02*
X99285500Y-6772000I250000J0D01*
G01*
X100485500Y-6772000D01*
G75*
G02*
X100735500Y-7022000I0J-250000D01*
G01*
G37*
%TD*%
%TO.C,J8*%
X68780000Y-7683500D03*
X71280000Y-7683500D03*
X73780000Y-7683500D03*
X76280000Y-7683500D03*
X78780000Y-7683500D03*
G36*
G01*
X82130000Y-6958500D02*
X82130000Y-8408500D01*
G75*
G02*
X81880000Y-8658500I-250000J0D01*
G01*
X80680000Y-8658500D01*
G75*
G02*
X80430000Y-8408500I0J250000D01*
G01*
X80430000Y-6958500D01*
G75*
G02*
X80680000Y-6708500I250000J0D01*
G01*
X81880000Y-6708500D01*
G75*
G02*
X82130000Y-6958500I0J-250000D01*
G01*
G37*
%TD*%
D22*
%TO.C,J7*%
X77216000Y-79756000D03*
X79756000Y-79756000D03*
X82296000Y-79756000D03*
X84836000Y-79756000D03*
X87376000Y-79756000D03*
D23*
X89916000Y-79756000D03*
%TD*%
%TO.C,J6*%
X99949000Y-26670000D03*
D22*
X97409000Y-26670000D03*
X94869000Y-26670000D03*
X92329000Y-26670000D03*
X89789000Y-26670000D03*
%TD*%
D23*
%TO.C,J4*%
X105029000Y-56642000D03*
D22*
X105029000Y-59182000D03*
X105029000Y-61722000D03*
X105029000Y-64262000D03*
%TD*%
D11*
%TO.C,J3*%
X65198000Y-76771500D03*
D12*
X60198000Y-76771500D03*
%TD*%
D11*
%TO.C,J2*%
X49577000Y-76771500D03*
D12*
X44577000Y-76771500D03*
%TD*%
%TO.C,J1*%
G36*
G01*
X25829000Y-78779500D02*
X25829000Y-75779500D01*
G75*
G02*
X27329000Y-74279500I1500000J0D01*
G01*
X30329000Y-74279500D01*
G75*
G02*
X31829000Y-75779500I0J-1500000D01*
G01*
X31829000Y-78779500D01*
G75*
G02*
X30329000Y-80279500I-1500000J0D01*
G01*
X27329000Y-80279500D01*
G75*
G02*
X25829000Y-78779500I0J1500000D01*
G01*
G37*
D25*
X36029000Y-77279500D03*
%TD*%
D26*
%TO.C,C1*%
X9224000Y-41021000D03*
D27*
X14224000Y-41021000D03*
%TD*%
M02*
